%TF.GenerationSoftware,KiCad,Pcbnew,(6.0.7-1)-1*%
%TF.CreationDate,2022-12-18T15:37:26+01:00*%
%TF.ProjectId,overdrive,6f766572-6472-4697-9665-2e6b69636164,rev?*%
%TF.SameCoordinates,Original*%
%TF.FileFunction,Soldermask,Top*%
%TF.FilePolarity,Negative*%
%FSLAX46Y46*%
G04 Gerber Fmt 4.6, Leading zero omitted, Abs format (unit mm)*
G04 Created by KiCad (PCBNEW (6.0.7-1)-1) date 2022-12-18 15:37:26*
%MOMM*%
%LPD*%
G01*
G04 APERTURE LIST*
G04 Aperture macros list*
%AMRoundRect*
0 Rectangle with rounded corners*
0 $1 Rounding radius*
0 $2 $3 $4 $5 $6 $7 $8 $9 X,Y pos of 4 corners*
0 Add a 4 corners polygon primitive as box body*
4,1,4,$2,$3,$4,$5,$6,$7,$8,$9,$2,$3,0*
0 Add four circle primitives for the rounded corners*
1,1,$1+$1,$2,$3*
1,1,$1+$1,$4,$5*
1,1,$1+$1,$6,$7*
1,1,$1+$1,$8,$9*
0 Add four rect primitives between the rounded corners*
20,1,$1+$1,$2,$3,$4,$5,0*
20,1,$1+$1,$4,$5,$6,$7,0*
20,1,$1+$1,$6,$7,$8,$9,0*
20,1,$1+$1,$8,$9,$2,$3,0*%
G04 Aperture macros list end*
%ADD10R,0.900000X1.200000*%
%ADD11R,1.700000X1.700000*%
%ADD12O,1.700000X1.700000*%
%ADD13RoundRect,0.160000X0.160000X-0.197500X0.160000X0.197500X-0.160000X0.197500X-0.160000X-0.197500X0*%
%ADD14R,4.600000X2.000000*%
%ADD15O,4.200000X2.000000*%
%ADD16O,2.000000X4.200000*%
%ADD17RoundRect,0.250000X1.100000X-0.412500X1.100000X0.412500X-1.100000X0.412500X-1.100000X-0.412500X0*%
%ADD18R,1.200000X0.900000*%
%ADD19RoundRect,0.160000X-0.160000X0.197500X-0.160000X-0.197500X0.160000X-0.197500X0.160000X0.197500X0*%
%ADD20C,3.000000*%
%ADD21RoundRect,0.155000X0.155000X-0.212500X0.155000X0.212500X-0.155000X0.212500X-0.155000X-0.212500X0*%
%ADD22RoundRect,0.250000X-0.475000X0.337500X-0.475000X-0.337500X0.475000X-0.337500X0.475000X0.337500X0*%
%ADD23RoundRect,0.250000X-0.350000X-0.450000X0.350000X-0.450000X0.350000X0.450000X-0.350000X0.450000X0*%
%ADD24RoundRect,0.150000X-0.825000X-0.150000X0.825000X-0.150000X0.825000X0.150000X-0.825000X0.150000X0*%
%ADD25R,0.700000X0.450000*%
%ADD26R,1.800000X1.800000*%
%ADD27C,1.800000*%
%ADD28RoundRect,0.155000X-0.155000X0.212500X-0.155000X-0.212500X0.155000X-0.212500X0.155000X0.212500X0*%
%ADD29RoundRect,0.250000X-1.100000X0.412500X-1.100000X-0.412500X1.100000X-0.412500X1.100000X0.412500X0*%
%ADD30RoundRect,0.250000X0.475000X-0.337500X0.475000X0.337500X-0.475000X0.337500X-0.475000X-0.337500X0*%
G04 APERTURE END LIST*
D10*
%TO.C,D4*%
X67650000Y-73000000D03*
X64350000Y-73000000D03*
%TD*%
D11*
%TO.C,J6*%
X91000000Y-64000000D03*
D12*
X88460000Y-64000000D03*
%TD*%
D13*
%TO.C,R6*%
X91000000Y-84160000D03*
X91000000Y-82965000D03*
%TD*%
D14*
%TO.C,J2*%
X78000000Y-64300000D03*
D15*
X78000000Y-58000000D03*
D16*
X73200000Y-61400000D03*
%TD*%
D17*
%TO.C,C2*%
X90500000Y-58500000D03*
X90500000Y-55375000D03*
%TD*%
D18*
%TO.C,D2*%
X64000000Y-75850000D03*
X64000000Y-79150000D03*
%TD*%
D19*
%TO.C,R1*%
X69500000Y-85322500D03*
X69500000Y-86517500D03*
%TD*%
%TO.C,R7*%
X89000000Y-82965000D03*
X89000000Y-84160000D03*
%TD*%
D13*
%TO.C,R4*%
X61000000Y-80195000D03*
X61000000Y-79000000D03*
%TD*%
D11*
%TO.C,J5*%
X67000000Y-64000000D03*
D12*
X64460000Y-64000000D03*
%TD*%
D11*
%TO.C,J3*%
X54500000Y-76540000D03*
D12*
X54500000Y-74000000D03*
%TD*%
D20*
%TO.C,J1*%
X55300000Y-110115000D03*
X55300000Y-93885000D03*
X68000000Y-110115000D03*
X68000000Y-93885000D03*
%TD*%
D21*
%TO.C,C7*%
X61000000Y-76635000D03*
X61000000Y-75500000D03*
%TD*%
D11*
%TO.C,J11*%
X84000000Y-116000000D03*
D12*
X81460000Y-116000000D03*
X78920000Y-116000000D03*
X76380000Y-116000000D03*
X73840000Y-116000000D03*
X71300000Y-116000000D03*
%TD*%
D21*
%TO.C,C1*%
X66000000Y-86487500D03*
X66000000Y-85352500D03*
%TD*%
%TO.C,C3*%
X61000000Y-83067500D03*
X61000000Y-81932500D03*
%TD*%
D18*
%TO.C,D3*%
X68000000Y-79150000D03*
X68000000Y-75850000D03*
%TD*%
D22*
%TO.C,C12*%
X96500000Y-80462500D03*
X96500000Y-82537500D03*
%TD*%
D13*
%TO.C,R11*%
X83000000Y-78597500D03*
X83000000Y-77402500D03*
%TD*%
D18*
%TO.C,D7*%
X87500000Y-79310000D03*
X87500000Y-76010000D03*
%TD*%
D13*
%TO.C,R2*%
X66000000Y-83097500D03*
X66000000Y-81902500D03*
%TD*%
D23*
%TO.C,R5*%
X96000000Y-58500000D03*
X98000000Y-58500000D03*
%TD*%
D21*
%TO.C,C8*%
X80500000Y-74067500D03*
X80500000Y-72932500D03*
%TD*%
D13*
%TO.C,R3*%
X69500000Y-83097500D03*
X69500000Y-81902500D03*
%TD*%
D11*
%TO.C,J9*%
X101500000Y-82475000D03*
D12*
X101500000Y-85015000D03*
X101500000Y-87555000D03*
%TD*%
D24*
%TO.C,U1*%
X75525000Y-76095000D03*
X75525000Y-77365000D03*
X75525000Y-78635000D03*
X75525000Y-79905000D03*
X80475000Y-79905000D03*
X80475000Y-78635000D03*
X80475000Y-77365000D03*
X80475000Y-76095000D03*
%TD*%
D21*
%TO.C,C4*%
X93600000Y-58500000D03*
X93600000Y-57365000D03*
%TD*%
D11*
%TO.C,J7*%
X88460000Y-68580000D03*
D12*
X91000000Y-68580000D03*
%TD*%
D25*
%TO.C,D1*%
X85000000Y-57850000D03*
X85000000Y-59150000D03*
X87000000Y-58500000D03*
%TD*%
D20*
%TO.C,J10*%
X100700000Y-94000000D03*
X100700000Y-110230000D03*
X88000000Y-94000000D03*
X88000000Y-110230000D03*
%TD*%
D13*
%TO.C,R8*%
X75500000Y-74097500D03*
X75500000Y-72902500D03*
%TD*%
D18*
%TO.C,D6*%
X91500000Y-76010000D03*
X91500000Y-79310000D03*
%TD*%
D10*
%TO.C,D5*%
X87850000Y-73000000D03*
X91150000Y-73000000D03*
%TD*%
D11*
%TO.C,J8*%
X101500000Y-74000000D03*
D12*
X101500000Y-76540000D03*
%TD*%
D19*
%TO.C,R10*%
X68000000Y-114805000D03*
X68000000Y-116000000D03*
%TD*%
D26*
%TO.C,D8*%
X78000000Y-89275000D03*
D27*
X78000000Y-86735000D03*
%TD*%
D28*
%TO.C,C11*%
X80500000Y-69500000D03*
X80500000Y-70635000D03*
%TD*%
D29*
%TO.C,C9*%
X86000000Y-83000000D03*
X86000000Y-86125000D03*
%TD*%
D30*
%TO.C,C6*%
X83000000Y-74075000D03*
X83000000Y-72000000D03*
%TD*%
D21*
%TO.C,C5*%
X100500000Y-58500000D03*
X100500000Y-57365000D03*
%TD*%
D28*
%TO.C,C10*%
X83000000Y-82995000D03*
X83000000Y-84130000D03*
%TD*%
D11*
%TO.C,J4*%
X64460000Y-68580000D03*
D12*
X67000000Y-68580000D03*
%TD*%
D13*
%TO.C,R9*%
X83000000Y-88000000D03*
X83000000Y-86805000D03*
%TD*%
M02*
