%TF.GenerationSoftware,KiCad,Pcbnew,(6.0.7-1)-1*%
%TF.CreationDate,2022-12-18T15:37:26+01:00*%
%TF.ProjectId,overdrive,6f766572-6472-4697-9665-2e6b69636164,rev?*%
%TF.SameCoordinates,Original*%
%TF.FileFunction,Copper,L1,Top*%
%TF.FilePolarity,Positive*%
%FSLAX46Y46*%
G04 Gerber Fmt 4.6, Leading zero omitted, Abs format (unit mm)*
G04 Created by KiCad (PCBNEW (6.0.7-1)-1) date 2022-12-18 15:37:26*
%MOMM*%
%LPD*%
G01*
G04 APERTURE LIST*
G04 Aperture macros list*
%AMRoundRect*
0 Rectangle with rounded corners*
0 $1 Rounding radius*
0 $2 $3 $4 $5 $6 $7 $8 $9 X,Y pos of 4 corners*
0 Add a 4 corners polygon primitive as box body*
4,1,4,$2,$3,$4,$5,$6,$7,$8,$9,$2,$3,0*
0 Add four circle primitives for the rounded corners*
1,1,$1+$1,$2,$3*
1,1,$1+$1,$4,$5*
1,1,$1+$1,$6,$7*
1,1,$1+$1,$8,$9*
0 Add four rect primitives between the rounded corners*
20,1,$1+$1,$2,$3,$4,$5,0*
20,1,$1+$1,$4,$5,$6,$7,0*
20,1,$1+$1,$6,$7,$8,$9,0*
20,1,$1+$1,$8,$9,$2,$3,0*%
G04 Aperture macros list end*
%TA.AperFunction,SMDPad,CuDef*%
%ADD10R,0.900000X1.200000*%
%TD*%
%TA.AperFunction,ComponentPad*%
%ADD11R,1.700000X1.700000*%
%TD*%
%TA.AperFunction,ComponentPad*%
%ADD12O,1.700000X1.700000*%
%TD*%
%TA.AperFunction,SMDPad,CuDef*%
%ADD13RoundRect,0.160000X0.160000X-0.197500X0.160000X0.197500X-0.160000X0.197500X-0.160000X-0.197500X0*%
%TD*%
%TA.AperFunction,ComponentPad*%
%ADD14R,4.600000X2.000000*%
%TD*%
%TA.AperFunction,ComponentPad*%
%ADD15O,4.200000X2.000000*%
%TD*%
%TA.AperFunction,ComponentPad*%
%ADD16O,2.000000X4.200000*%
%TD*%
%TA.AperFunction,SMDPad,CuDef*%
%ADD17RoundRect,0.250000X1.100000X-0.412500X1.100000X0.412500X-1.100000X0.412500X-1.100000X-0.412500X0*%
%TD*%
%TA.AperFunction,SMDPad,CuDef*%
%ADD18R,1.200000X0.900000*%
%TD*%
%TA.AperFunction,SMDPad,CuDef*%
%ADD19RoundRect,0.160000X-0.160000X0.197500X-0.160000X-0.197500X0.160000X-0.197500X0.160000X0.197500X0*%
%TD*%
%TA.AperFunction,ComponentPad*%
%ADD20C,3.000000*%
%TD*%
%TA.AperFunction,SMDPad,CuDef*%
%ADD21RoundRect,0.155000X0.155000X-0.212500X0.155000X0.212500X-0.155000X0.212500X-0.155000X-0.212500X0*%
%TD*%
%TA.AperFunction,SMDPad,CuDef*%
%ADD22RoundRect,0.250000X-0.475000X0.337500X-0.475000X-0.337500X0.475000X-0.337500X0.475000X0.337500X0*%
%TD*%
%TA.AperFunction,SMDPad,CuDef*%
%ADD23RoundRect,0.250000X-0.350000X-0.450000X0.350000X-0.450000X0.350000X0.450000X-0.350000X0.450000X0*%
%TD*%
%TA.AperFunction,SMDPad,CuDef*%
%ADD24RoundRect,0.150000X-0.825000X-0.150000X0.825000X-0.150000X0.825000X0.150000X-0.825000X0.150000X0*%
%TD*%
%TA.AperFunction,SMDPad,CuDef*%
%ADD25R,0.700000X0.450000*%
%TD*%
%TA.AperFunction,ComponentPad*%
%ADD26R,1.800000X1.800000*%
%TD*%
%TA.AperFunction,ComponentPad*%
%ADD27C,1.800000*%
%TD*%
%TA.AperFunction,SMDPad,CuDef*%
%ADD28RoundRect,0.155000X-0.155000X0.212500X-0.155000X-0.212500X0.155000X-0.212500X0.155000X0.212500X0*%
%TD*%
%TA.AperFunction,SMDPad,CuDef*%
%ADD29RoundRect,0.250000X-1.100000X0.412500X-1.100000X-0.412500X1.100000X-0.412500X1.100000X0.412500X0*%
%TD*%
%TA.AperFunction,SMDPad,CuDef*%
%ADD30RoundRect,0.250000X0.475000X-0.337500X0.475000X0.337500X-0.475000X0.337500X-0.475000X-0.337500X0*%
%TD*%
%TA.AperFunction,ViaPad*%
%ADD31C,0.800000*%
%TD*%
%TA.AperFunction,Conductor*%
%ADD32C,0.250000*%
%TD*%
%TA.AperFunction,Conductor*%
%ADD33C,0.500000*%
%TD*%
%TA.AperFunction,Conductor*%
%ADD34C,0.300000*%
%TD*%
G04 APERTURE END LIST*
D10*
%TO.P,D4,1,K*%
%TO.N,Net-(D3-Pad2)*%
X67650000Y-73000000D03*
%TO.P,D4,2,A*%
%TO.N,Net-(D2-Pad1)*%
X64350000Y-73000000D03*
%TD*%
D11*
%TO.P,J6,1,Pin_1*%
%TO.N,Net-(J6-Pad1)*%
X91000000Y-64000000D03*
D12*
%TO.P,J6,2,Pin_2*%
%TO.N,Net-(D5-Pad1)*%
X88460000Y-64000000D03*
%TD*%
D13*
%TO.P,R6,1*%
%TO.N,VCC*%
X91000000Y-84160000D03*
%TO.P,R6,2*%
%TO.N,VREF*%
X91000000Y-82965000D03*
%TD*%
D14*
%TO.P,J2,1*%
%TO.N,GNDREF*%
X78000000Y-64300000D03*
D15*
%TO.P,J2,2*%
%TO.N,/VCC_IN*%
X78000000Y-58000000D03*
D16*
%TO.P,J2,3*%
%TO.N,N/C*%
X73200000Y-61400000D03*
%TD*%
D17*
%TO.P,C2,1*%
%TO.N,/VCC_D*%
X90500000Y-58500000D03*
%TO.P,C2,2*%
%TO.N,GNDREF*%
X90500000Y-55375000D03*
%TD*%
D18*
%TO.P,D2,1,K*%
%TO.N,Net-(D2-Pad1)*%
X64000000Y-75850000D03*
%TO.P,D2,2,A*%
%TO.N,Net-(C7-Pad1)*%
X64000000Y-79150000D03*
%TD*%
D19*
%TO.P,R1,1*%
%TO.N,GNDREF*%
X69500000Y-85322500D03*
%TO.P,R1,2*%
%TO.N,/VIN_JACK*%
X69500000Y-86517500D03*
%TD*%
%TO.P,R7,1*%
%TO.N,VREF*%
X89000000Y-82965000D03*
%TO.P,R7,2*%
%TO.N,GNDREF*%
X89000000Y-84160000D03*
%TD*%
D13*
%TO.P,R4,1*%
%TO.N,Net-(C3-Pad2)*%
X61000000Y-80195000D03*
%TO.P,R4,2*%
%TO.N,Net-(C7-Pad1)*%
X61000000Y-79000000D03*
%TD*%
D11*
%TO.P,J5,1,Pin_1*%
%TO.N,Net-(D3-Pad2)*%
X67000000Y-64000000D03*
D12*
%TO.P,J5,2,Pin_2*%
%TO.N,Net-(C7-Pad2)*%
X64460000Y-64000000D03*
%TD*%
D11*
%TO.P,J3,1,Pin_1*%
%TO.N,Net-(C7-Pad1)*%
X54500000Y-76540000D03*
D12*
%TO.P,J3,2,Pin_2*%
%TO.N,Net-(C7-Pad2)*%
X54500000Y-74000000D03*
%TD*%
D20*
%TO.P,J1,S*%
%TO.N,GNDREF*%
X55300000Y-110115000D03*
%TO.P,J1,SN*%
%TO.N,unconnected-(J1-PadSN)*%
X55300000Y-93885000D03*
%TO.P,J1,T*%
%TO.N,/VIN_JACK*%
X68000000Y-110115000D03*
%TO.P,J1,TN*%
%TO.N,unconnected-(J1-PadTN)*%
X68000000Y-93885000D03*
%TD*%
D21*
%TO.P,C7,1*%
%TO.N,Net-(C7-Pad1)*%
X61000000Y-76635000D03*
%TO.P,C7,2*%
%TO.N,Net-(C7-Pad2)*%
X61000000Y-75500000D03*
%TD*%
D11*
%TO.P,J11,1,Pin_1*%
%TO.N,/VCC_SWITCH*%
X84000000Y-116000000D03*
D12*
%TO.P,J11,2,Pin_2*%
%TO.N,VCC*%
X81460000Y-116000000D03*
%TO.P,J11,3,Pin_3*%
%TO.N,unconnected-(J11-Pad3)*%
X78920000Y-116000000D03*
%TO.P,J11,4,Pin_4*%
%TO.N,/VOUT*%
X76380000Y-116000000D03*
%TO.P,J11,5,Pin_5*%
%TO.N,/VOUT_JACK*%
X73840000Y-116000000D03*
%TO.P,J11,6,Pin_6*%
%TO.N,/VOUT_BYPASS*%
X71300000Y-116000000D03*
%TD*%
D21*
%TO.P,C1,1*%
%TO.N,/VIN_JACK*%
X66000000Y-86487500D03*
%TO.P,C1,2*%
%TO.N,Net-(C1-Pad2)*%
X66000000Y-85352500D03*
%TD*%
%TO.P,C3,1*%
%TO.N,GNDREF*%
X61000000Y-83067500D03*
%TO.P,C3,2*%
%TO.N,Net-(C3-Pad2)*%
X61000000Y-81932500D03*
%TD*%
D18*
%TO.P,D3,1,K*%
%TO.N,Net-(C7-Pad1)*%
X68000000Y-79150000D03*
%TO.P,D3,2,A*%
%TO.N,Net-(D3-Pad2)*%
X68000000Y-75850000D03*
%TD*%
D22*
%TO.P,C12,1*%
%TO.N,Net-(C12-Pad1)*%
X96500000Y-80462500D03*
%TO.P,C12,2*%
%TO.N,Net-(C12-Pad2)*%
X96500000Y-82537500D03*
%TD*%
D13*
%TO.P,R11,1*%
%TO.N,Net-(U1-Pad6)*%
X83000000Y-78597500D03*
%TO.P,R11,2*%
%TO.N,Net-(C12-Pad1)*%
X83000000Y-77402500D03*
%TD*%
D18*
%TO.P,D7,1,K*%
%TO.N,VREF*%
X87500000Y-79310000D03*
%TO.P,D7,2,A*%
%TO.N,Net-(D5-Pad1)*%
X87500000Y-76010000D03*
%TD*%
D13*
%TO.P,R2,1*%
%TO.N,Net-(C1-Pad2)*%
X66000000Y-83097500D03*
%TO.P,R2,2*%
%TO.N,Net-(R2-Pad2)*%
X66000000Y-81902500D03*
%TD*%
D23*
%TO.P,R5,1*%
%TO.N,/VCC_D*%
X96000000Y-58500000D03*
%TO.P,R5,2*%
%TO.N,/VCC_SWITCH*%
X98000000Y-58500000D03*
%TD*%
D21*
%TO.P,C8,1*%
%TO.N,VCC*%
X80500000Y-74067500D03*
%TO.P,C8,2*%
%TO.N,GNDREF*%
X80500000Y-72932500D03*
%TD*%
D13*
%TO.P,R3,1*%
%TO.N,VREF*%
X69500000Y-83097500D03*
%TO.P,R3,2*%
%TO.N,Net-(R2-Pad2)*%
X69500000Y-81902500D03*
%TD*%
D11*
%TO.P,J9,1,Pin_1*%
%TO.N,Net-(C12-Pad2)*%
X101500000Y-82475000D03*
D12*
%TO.P,J9,2,Pin_2*%
%TO.N,/VOUT*%
X101500000Y-85015000D03*
%TO.P,J9,3,Pin_3*%
%TO.N,GNDREF*%
X101500000Y-87555000D03*
%TD*%
D24*
%TO.P,U1,1*%
%TO.N,Net-(C7-Pad2)*%
X75525000Y-76095000D03*
%TO.P,U1,2,-*%
%TO.N,Net-(C7-Pad1)*%
X75525000Y-77365000D03*
%TO.P,U1,3,+*%
%TO.N,Net-(R2-Pad2)*%
X75525000Y-78635000D03*
%TO.P,U1,4,V-*%
%TO.N,GNDREF*%
X75525000Y-79905000D03*
%TO.P,U1,5,+*%
%TO.N,Net-(C11-Pad1)*%
X80475000Y-79905000D03*
%TO.P,U1,6,-*%
%TO.N,Net-(U1-Pad6)*%
X80475000Y-78635000D03*
%TO.P,U1,7*%
%TO.N,Net-(C12-Pad1)*%
X80475000Y-77365000D03*
%TO.P,U1,8,V+*%
%TO.N,VCC*%
X80475000Y-76095000D03*
%TD*%
D21*
%TO.P,C4,1*%
%TO.N,/VCC_D*%
X93600000Y-58500000D03*
%TO.P,C4,2*%
%TO.N,GNDREF*%
X93600000Y-57365000D03*
%TD*%
D11*
%TO.P,J7,1,Pin_1*%
%TO.N,Net-(D5-Pad1)*%
X88460000Y-68580000D03*
D12*
%TO.P,J7,2,Pin_2*%
%TO.N,Net-(D5-Pad2)*%
X91000000Y-68580000D03*
%TD*%
D25*
%TO.P,D1,1,A*%
%TO.N,/VCC_IN*%
X85000000Y-57850000D03*
%TO.P,D1,2,NC*%
%TO.N,unconnected-(D1-Pad2)*%
X85000000Y-59150000D03*
%TO.P,D1,3,K*%
%TO.N,/VCC_D*%
X87000000Y-58500000D03*
%TD*%
D20*
%TO.P,J10,S*%
%TO.N,GNDREF*%
X100700000Y-94000000D03*
%TO.P,J10,SN*%
%TO.N,unconnected-(J10-PadSN)*%
X100700000Y-110230000D03*
%TO.P,J10,T*%
%TO.N,/VOUT_JACK*%
X88000000Y-94000000D03*
%TO.P,J10,TN*%
%TO.N,unconnected-(J10-PadTN)*%
X88000000Y-110230000D03*
%TD*%
D13*
%TO.P,R8,1*%
%TO.N,Net-(C7-Pad2)*%
X75500000Y-74097500D03*
%TO.P,R8,2*%
%TO.N,Net-(J6-Pad1)*%
X75500000Y-72902500D03*
%TD*%
D18*
%TO.P,D6,1,K*%
%TO.N,Net-(D5-Pad2)*%
X91500000Y-76010000D03*
%TO.P,D6,2,A*%
%TO.N,VREF*%
X91500000Y-79310000D03*
%TD*%
D10*
%TO.P,D5,1,K*%
%TO.N,Net-(D5-Pad1)*%
X87850000Y-73000000D03*
%TO.P,D5,2,A*%
%TO.N,Net-(D5-Pad2)*%
X91150000Y-73000000D03*
%TD*%
D11*
%TO.P,J8,1,Pin_1*%
%TO.N,Net-(J6-Pad1)*%
X101500000Y-74000000D03*
D12*
%TO.P,J8,2,Pin_2*%
%TO.N,Net-(C11-Pad1)*%
X101500000Y-76540000D03*
%TD*%
D19*
%TO.P,R10,1*%
%TO.N,/VIN_JACK*%
X68000000Y-114805000D03*
%TO.P,R10,2*%
%TO.N,/VOUT_BYPASS*%
X68000000Y-116000000D03*
%TD*%
D26*
%TO.P,D8,1,K*%
%TO.N,GNDREF*%
X78000000Y-89275000D03*
D27*
%TO.P,D8,2,A*%
%TO.N,Net-(D8-Pad2)*%
X78000000Y-86735000D03*
%TD*%
D28*
%TO.P,C11,1*%
%TO.N,Net-(C11-Pad1)*%
X80500000Y-69500000D03*
%TO.P,C11,2*%
%TO.N,GNDREF*%
X80500000Y-70635000D03*
%TD*%
D29*
%TO.P,C9,1*%
%TO.N,VREF*%
X86000000Y-83000000D03*
%TO.P,C9,2*%
%TO.N,GNDREF*%
X86000000Y-86125000D03*
%TD*%
D30*
%TO.P,C6,1*%
%TO.N,VCC*%
X83000000Y-74075000D03*
%TO.P,C6,2*%
%TO.N,GNDREF*%
X83000000Y-72000000D03*
%TD*%
D21*
%TO.P,C5,1*%
%TO.N,/VCC_SWITCH*%
X100500000Y-58500000D03*
%TO.P,C5,2*%
%TO.N,GNDREF*%
X100500000Y-57365000D03*
%TD*%
D28*
%TO.P,C10,1*%
%TO.N,VREF*%
X83000000Y-82995000D03*
%TO.P,C10,2*%
%TO.N,GNDREF*%
X83000000Y-84130000D03*
%TD*%
D11*
%TO.P,J4,1,Pin_1*%
%TO.N,Net-(D2-Pad1)*%
X64460000Y-68580000D03*
D12*
%TO.P,J4,2,Pin_2*%
%TO.N,Net-(D3-Pad2)*%
X67000000Y-68580000D03*
%TD*%
D13*
%TO.P,R9,1*%
%TO.N,VCC*%
X83000000Y-88000000D03*
%TO.P,R9,2*%
%TO.N,Net-(D8-Pad2)*%
X83000000Y-86805000D03*
%TD*%
D31*
%TO.N,GNDREF*%
X88000000Y-103000000D03*
X75500000Y-81500000D03*
X61500000Y-97000000D03*
X61500000Y-86500000D03*
X67500000Y-103000000D03*
X99250000Y-56000000D03*
X95500000Y-60500000D03*
X91500000Y-90000000D03*
X95000000Y-52000000D03*
X61500000Y-108000000D03*
X59500000Y-77500000D03*
X53500000Y-68500000D03*
X53500000Y-103000000D03*
X69500000Y-60000000D03*
X53500000Y-117000000D03*
X93500000Y-79500000D03*
X102500000Y-117000000D03*
X77000000Y-72000000D03*
X61500000Y-117000000D03*
X95500000Y-86500000D03*
X84500000Y-79000000D03*
X94500000Y-97000000D03*
X86500000Y-74500000D03*
X98000000Y-78500000D03*
X62000000Y-60000000D03*
X86000000Y-81000000D03*
X80500000Y-71755000D03*
X78000000Y-97000000D03*
X83000000Y-70500000D03*
X58000000Y-55000000D03*
X85500000Y-66500000D03*
X78000000Y-52000000D03*
X102500000Y-103000000D03*
X68000000Y-90000000D03*
X73500000Y-80000000D03*
X71000000Y-113000000D03*
X102500000Y-69000000D03*
X59500000Y-74000000D03*
X70500000Y-79000000D03*
X93600000Y-55500000D03*
X102500000Y-60500000D03*
X88500000Y-86000000D03*
X53500000Y-82500000D03*
X79000000Y-111500000D03*
X78000000Y-55500000D03*
X53000000Y-60000000D03*
X94500000Y-117000000D03*
X74000000Y-74500000D03*
X74000000Y-68500000D03*
X68000000Y-84500000D03*
X94500000Y-108000000D03*
X53500000Y-90000000D03*
X87500000Y-55500000D03*
%TO.N,VCC*%
X83000000Y-91500000D03*
X83000000Y-76000000D03*
%TO.N,/VCC_SWITCH*%
X100500000Y-60500000D03*
%TD*%
D32*
%TO.N,Net-(C1-Pad2)*%
X66000000Y-83097500D02*
X66000000Y-85352500D01*
D33*
%TO.N,/VCC_D*%
X93600000Y-58500000D02*
X96000000Y-58500000D01*
X90500000Y-58500000D02*
X93600000Y-58500000D01*
X87000000Y-58500000D02*
X90500000Y-58500000D01*
D32*
%TO.N,Net-(C3-Pad2)*%
X61000000Y-80195000D02*
X61000000Y-81932500D01*
D33*
%TO.N,VCC*%
X89000000Y-88000000D02*
X91000000Y-86000000D01*
X83000000Y-74075000D02*
X80507500Y-74075000D01*
X91000000Y-86000000D02*
X91000000Y-84160000D01*
X80507500Y-74075000D02*
X80500000Y-74067500D01*
X83000000Y-88000000D02*
X83000000Y-91500000D01*
X80500000Y-74067500D02*
X80500000Y-76070000D01*
X80500000Y-76070000D02*
X80475000Y-76095000D01*
X83000000Y-88000000D02*
X89000000Y-88000000D01*
X83000000Y-76000000D02*
X83000000Y-74075000D01*
D32*
%TO.N,Net-(C7-Pad1)*%
X60905000Y-76540000D02*
X54500000Y-76540000D01*
X75525000Y-77365000D02*
X69785000Y-77365000D01*
X64000000Y-79150000D02*
X61150000Y-79150000D01*
X68000000Y-79150000D02*
X64000000Y-79150000D01*
X61000000Y-76635000D02*
X60905000Y-76540000D01*
X61000000Y-76635000D02*
X61000000Y-79000000D01*
X61150000Y-79150000D02*
X61000000Y-79000000D01*
X69785000Y-77365000D02*
X68000000Y-79150000D01*
%TO.N,Net-(C7-Pad2)*%
X68500000Y-62500000D02*
X70500000Y-64500000D01*
X64460000Y-64000000D02*
X65960000Y-62500000D01*
X70500000Y-73000000D02*
X73595000Y-76095000D01*
X75500000Y-74097500D02*
X75500000Y-76070000D01*
X56000000Y-75500000D02*
X54500000Y-74000000D01*
X61000000Y-75500000D02*
X56000000Y-75500000D01*
X64460000Y-64000000D02*
X61000000Y-67460000D01*
X70500000Y-64500000D02*
X70500000Y-73000000D01*
X65960000Y-62500000D02*
X68500000Y-62500000D01*
X61000000Y-67460000D02*
X61000000Y-75500000D01*
X73595000Y-76095000D02*
X75525000Y-76095000D01*
D34*
%TO.N,VREF*%
X86000000Y-83000000D02*
X88965000Y-83000000D01*
X83000000Y-82995000D02*
X85995000Y-82995000D01*
X69500000Y-83097500D02*
X82897500Y-83097500D01*
X91500000Y-79310000D02*
X87500000Y-79310000D01*
X83000000Y-82995000D02*
X83000000Y-82000000D01*
X89000000Y-82965000D02*
X91000000Y-82965000D01*
X85690000Y-79310000D02*
X87500000Y-79310000D01*
X83000000Y-82000000D02*
X85690000Y-79310000D01*
D32*
%TO.N,Net-(C11-Pad1)*%
X85000000Y-71000000D02*
X85000000Y-76000000D01*
X78500000Y-79250000D02*
X79155000Y-79905000D01*
X86000000Y-77000000D02*
X94000000Y-77000000D01*
X83500000Y-69500000D02*
X85000000Y-71000000D01*
X94460000Y-76540000D02*
X101500000Y-76540000D01*
X80500000Y-69500000D02*
X78500000Y-71500000D01*
X79155000Y-79905000D02*
X80475000Y-79905000D01*
X85000000Y-76000000D02*
X86000000Y-77000000D01*
X94000000Y-77000000D02*
X94460000Y-76540000D01*
X80500000Y-69500000D02*
X83500000Y-69500000D01*
X78500000Y-71500000D02*
X78500000Y-79250000D01*
%TO.N,Net-(C12-Pad1)*%
X85500000Y-78000000D02*
X84902500Y-77402500D01*
X96500000Y-80462500D02*
X94037500Y-78000000D01*
X84902500Y-77402500D02*
X83000000Y-77402500D01*
X94037500Y-78000000D02*
X85500000Y-78000000D01*
X80475000Y-77365000D02*
X82962500Y-77365000D01*
X82962500Y-77365000D02*
X83000000Y-77402500D01*
%TO.N,Net-(C12-Pad2)*%
X96562500Y-82475000D02*
X101500000Y-82475000D01*
X96500000Y-82537500D02*
X96562500Y-82475000D01*
%TO.N,Net-(D2-Pad1)*%
X64460000Y-68580000D02*
X64460000Y-72890000D01*
X64350000Y-75500000D02*
X64000000Y-75850000D01*
X64350000Y-73000000D02*
X64350000Y-75500000D01*
%TO.N,Net-(D3-Pad2)*%
X67000000Y-68580000D02*
X67000000Y-64000000D01*
X67650000Y-75500000D02*
X68000000Y-75850000D01*
X67000000Y-72350000D02*
X67650000Y-73000000D01*
X67000000Y-68580000D02*
X67000000Y-72350000D01*
X67650000Y-73000000D02*
X67650000Y-75500000D01*
%TO.N,Net-(D5-Pad1)*%
X87850000Y-75660000D02*
X87500000Y-76010000D01*
X88460000Y-68580000D02*
X88460000Y-72390000D01*
X88460000Y-64000000D02*
X88460000Y-68580000D01*
X88460000Y-72390000D02*
X87850000Y-73000000D01*
X87850000Y-73000000D02*
X87850000Y-75660000D01*
%TO.N,Net-(D5-Pad2)*%
X91000000Y-68580000D02*
X91000000Y-72850000D01*
X91150000Y-73000000D02*
X91150000Y-75660000D01*
X91150000Y-75660000D02*
X91500000Y-76010000D01*
%TO.N,Net-(J6-Pad1)*%
X75500000Y-72902500D02*
X75500000Y-71500000D01*
X90000000Y-62500000D02*
X84500000Y-62500000D01*
X91000000Y-64000000D02*
X101000000Y-74000000D01*
X101000000Y-74000000D02*
X101500000Y-74000000D01*
X91000000Y-63500000D02*
X90000000Y-62500000D01*
X75500000Y-71500000D02*
X84500000Y-62500000D01*
%TO.N,Net-(R2-Pad2)*%
X69500000Y-81902500D02*
X66000000Y-81902500D01*
X69500000Y-81902500D02*
X72767500Y-78635000D01*
X72767500Y-78635000D02*
X75525000Y-78635000D01*
%TO.N,/VIN_JACK*%
X71000000Y-107115000D02*
X71000000Y-88000000D01*
X68000000Y-110115000D02*
X71000000Y-107115000D01*
X68000000Y-114805000D02*
X68000000Y-110115000D01*
X66000000Y-86487500D02*
X69470000Y-86487500D01*
X71000000Y-88000000D02*
X69517500Y-86517500D01*
%TO.N,/VOUT*%
X101500000Y-85015000D02*
X76380000Y-110135000D01*
X102000000Y-85015000D02*
X100985000Y-85015000D01*
X76380000Y-110135000D02*
X76380000Y-110380000D01*
X76380000Y-110380000D02*
X76380000Y-116000000D01*
%TO.N,/VOUT_JACK*%
X73840000Y-108160000D02*
X73840000Y-116000000D01*
X88000000Y-94000000D02*
X73840000Y-108160000D01*
%TO.N,/VOUT_BYPASS*%
X68000000Y-116000000D02*
X71300000Y-116000000D01*
D33*
%TO.N,/VCC_IN*%
X85000000Y-57850000D02*
X78150000Y-57850000D01*
X78150000Y-57850000D02*
X78000000Y-58000000D01*
D32*
%TO.N,Net-(D8-Pad2)*%
X82930000Y-86735000D02*
X78000000Y-86735000D01*
D33*
%TO.N,/VCC_SWITCH*%
X98000000Y-58500000D02*
X100500000Y-58500000D01*
X100500000Y-58500000D02*
X100500000Y-60500000D01*
D32*
%TO.N,Net-(U1-Pad6)*%
X82962500Y-78635000D02*
X83000000Y-78597500D01*
X80475000Y-78635000D02*
X82962500Y-78635000D01*
%TD*%
%TA.AperFunction,Conductor*%
%TO.N,GNDREF*%
G36*
X95805304Y-50528502D02*
G01*
X95826278Y-50545405D01*
X103954595Y-58673722D01*
X103988621Y-58736034D01*
X103991500Y-58762817D01*
X103991500Y-90428928D01*
X103990145Y-90441058D01*
X103990627Y-90441097D01*
X103989907Y-90450044D01*
X103987926Y-90458800D01*
X103988482Y-90467760D01*
X103991258Y-90512508D01*
X103991500Y-90520310D01*
X103991500Y-90536513D01*
X103992136Y-90540953D01*
X103992984Y-90546878D01*
X103994013Y-90556928D01*
X103994397Y-90563111D01*
X103996945Y-90604177D01*
X103999994Y-90612623D01*
X104000593Y-90615514D01*
X104004822Y-90632480D01*
X104005648Y-90635305D01*
X104006920Y-90644187D01*
X104026522Y-90687298D01*
X104030327Y-90696647D01*
X104046404Y-90741181D01*
X104051699Y-90748429D01*
X104053080Y-90751027D01*
X104061915Y-90766145D01*
X104063494Y-90768614D01*
X104067208Y-90776782D01*
X104098115Y-90812652D01*
X104104401Y-90820569D01*
X104109548Y-90827615D01*
X104109553Y-90827620D01*
X104112425Y-90831552D01*
X104123400Y-90842527D01*
X104129758Y-90849374D01*
X104162287Y-90887127D01*
X104169822Y-90892011D01*
X104176066Y-90897458D01*
X104187931Y-90907058D01*
X105454595Y-92173722D01*
X105488621Y-92236034D01*
X105491500Y-92262817D01*
X105491500Y-118737183D01*
X105471498Y-118805304D01*
X105454595Y-118826278D01*
X104826278Y-119454595D01*
X104763966Y-119488621D01*
X104737183Y-119491500D01*
X51262817Y-119491500D01*
X51194696Y-119471498D01*
X51173722Y-119454595D01*
X50545405Y-118826278D01*
X50511379Y-118763966D01*
X50508500Y-118737183D01*
X50508500Y-111704654D01*
X54075618Y-111704654D01*
X54082673Y-111714627D01*
X54113679Y-111740551D01*
X54120598Y-111745579D01*
X54345272Y-111886515D01*
X54352807Y-111890556D01*
X54594520Y-111999694D01*
X54602551Y-112002680D01*
X54856832Y-112078002D01*
X54865184Y-112079869D01*
X55127340Y-112119984D01*
X55135874Y-112120700D01*
X55401045Y-112124867D01*
X55409596Y-112124418D01*
X55672883Y-112092557D01*
X55681284Y-112090955D01*
X55937824Y-112023653D01*
X55945926Y-112020926D01*
X56190949Y-111919434D01*
X56198617Y-111915628D01*
X56427598Y-111781822D01*
X56434679Y-111777009D01*
X56514655Y-111714301D01*
X56523125Y-111702442D01*
X56516608Y-111690818D01*
X55312812Y-110487022D01*
X55298868Y-110479408D01*
X55297035Y-110479539D01*
X55290420Y-110483790D01*
X54082910Y-111691300D01*
X54075618Y-111704654D01*
X50508500Y-111704654D01*
X50508500Y-110098204D01*
X53287665Y-110098204D01*
X53302932Y-110362969D01*
X53304005Y-110371470D01*
X53355065Y-110631722D01*
X53357276Y-110639974D01*
X53443184Y-110890894D01*
X53446499Y-110898779D01*
X53565664Y-111135713D01*
X53570020Y-111143079D01*
X53699347Y-111331250D01*
X53709601Y-111339594D01*
X53723342Y-111332448D01*
X54927978Y-110127812D01*
X54934356Y-110116132D01*
X55664408Y-110116132D01*
X55664539Y-110117965D01*
X55668790Y-110124580D01*
X56875730Y-111331520D01*
X56887939Y-111338187D01*
X56899439Y-111329497D01*
X56996831Y-111196913D01*
X57001418Y-111189685D01*
X57127962Y-110956621D01*
X57131530Y-110948827D01*
X57225271Y-110700750D01*
X57227748Y-110692544D01*
X57286954Y-110434038D01*
X57288294Y-110425577D01*
X57312031Y-110159616D01*
X57312277Y-110154677D01*
X57312666Y-110117485D01*
X57312523Y-110112519D01*
X57294362Y-109846123D01*
X57293201Y-109837649D01*
X57239419Y-109577944D01*
X57237120Y-109569709D01*
X57148588Y-109319705D01*
X57145191Y-109311854D01*
X57023550Y-109076178D01*
X57019122Y-109068866D01*
X56900031Y-108899417D01*
X56889509Y-108891037D01*
X56876121Y-108898089D01*
X55672022Y-110102188D01*
X55664408Y-110116132D01*
X54934356Y-110116132D01*
X54935592Y-110113868D01*
X54935461Y-110112035D01*
X54931210Y-110105420D01*
X53723814Y-108898024D01*
X53711804Y-108891466D01*
X53700064Y-108900434D01*
X53591935Y-109050911D01*
X53587418Y-109058196D01*
X53463325Y-109292567D01*
X53459839Y-109300395D01*
X53368700Y-109549446D01*
X53366311Y-109557670D01*
X53309812Y-109816795D01*
X53308563Y-109825250D01*
X53287754Y-110089653D01*
X53287665Y-110098204D01*
X50508500Y-110098204D01*
X50508500Y-108527500D01*
X54076584Y-108527500D01*
X54082980Y-108538770D01*
X55287188Y-109742978D01*
X55301132Y-109750592D01*
X55302965Y-109750461D01*
X55309580Y-109746210D01*
X56516604Y-108539186D01*
X56523795Y-108526017D01*
X56516473Y-108515780D01*
X56469233Y-108477115D01*
X56462261Y-108472160D01*
X56236122Y-108333582D01*
X56228552Y-108329624D01*
X55985704Y-108223022D01*
X55977644Y-108220120D01*
X55722592Y-108147467D01*
X55714214Y-108145685D01*
X55451656Y-108108318D01*
X55443111Y-108107691D01*
X55177908Y-108106302D01*
X55169374Y-108106839D01*
X54906433Y-108141456D01*
X54898035Y-108143149D01*
X54642238Y-108213127D01*
X54634143Y-108215946D01*
X54390199Y-108319997D01*
X54382577Y-108323881D01*
X54155013Y-108460075D01*
X54147981Y-108464962D01*
X54085053Y-108515377D01*
X54076584Y-108527500D01*
X50508500Y-108527500D01*
X50508500Y-93863918D01*
X53286917Y-93863918D01*
X53302682Y-94137320D01*
X53303507Y-94141525D01*
X53303508Y-94141533D01*
X53333917Y-94296526D01*
X53355405Y-94406053D01*
X53356792Y-94410103D01*
X53356793Y-94410108D01*
X53414169Y-94577689D01*
X53444112Y-94665144D01*
X53446039Y-94668975D01*
X53521226Y-94818468D01*
X53567160Y-94909799D01*
X53569586Y-94913328D01*
X53569589Y-94913334D01*
X53680669Y-95074955D01*
X53722274Y-95135490D01*
X53725161Y-95138663D01*
X53725162Y-95138664D01*
X53796005Y-95216520D01*
X53906582Y-95338043D01*
X54116675Y-95513707D01*
X54120316Y-95515991D01*
X54345024Y-95656951D01*
X54345028Y-95656953D01*
X54348664Y-95659234D01*
X54416544Y-95689883D01*
X54594345Y-95770164D01*
X54594349Y-95770166D01*
X54598257Y-95771930D01*
X54661393Y-95790632D01*
X54856723Y-95848491D01*
X54856727Y-95848492D01*
X54860836Y-95849709D01*
X54865070Y-95850357D01*
X54865075Y-95850358D01*
X55127298Y-95890483D01*
X55127300Y-95890483D01*
X55131540Y-95891132D01*
X55270912Y-95893322D01*
X55401071Y-95895367D01*
X55401077Y-95895367D01*
X55405362Y-95895434D01*
X55677235Y-95862534D01*
X55942127Y-95793041D01*
X55946087Y-95791401D01*
X55946092Y-95791399D01*
X56068632Y-95740641D01*
X56195136Y-95688241D01*
X56346781Y-95599627D01*
X56427879Y-95552237D01*
X56427880Y-95552236D01*
X56431582Y-95550073D01*
X56647089Y-95381094D01*
X56688809Y-95338043D01*
X56805673Y-95217448D01*
X56837669Y-95184431D01*
X56840202Y-95180983D01*
X56840206Y-95180978D01*
X56997257Y-94967178D01*
X56999795Y-94963723D01*
X57027154Y-94913334D01*
X57128418Y-94726830D01*
X57128419Y-94726828D01*
X57130468Y-94723054D01*
X57185452Y-94577544D01*
X57225751Y-94470895D01*
X57225752Y-94470891D01*
X57227269Y-94466877D01*
X57261110Y-94319117D01*
X57287449Y-94204117D01*
X57287450Y-94204113D01*
X57288407Y-94199933D01*
X57302710Y-94039677D01*
X57312531Y-93929627D01*
X57312531Y-93929625D01*
X57312751Y-93927161D01*
X57313193Y-93885000D01*
X57311756Y-93863918D01*
X65986917Y-93863918D01*
X66002682Y-94137320D01*
X66003507Y-94141525D01*
X66003508Y-94141533D01*
X66033917Y-94296526D01*
X66055405Y-94406053D01*
X66056792Y-94410103D01*
X66056793Y-94410108D01*
X66114169Y-94577689D01*
X66144112Y-94665144D01*
X66146039Y-94668975D01*
X66221226Y-94818468D01*
X66267160Y-94909799D01*
X66269586Y-94913328D01*
X66269589Y-94913334D01*
X66380669Y-95074955D01*
X66422274Y-95135490D01*
X66425161Y-95138663D01*
X66425162Y-95138664D01*
X66496005Y-95216520D01*
X66606582Y-95338043D01*
X66816675Y-95513707D01*
X66820316Y-95515991D01*
X67045024Y-95656951D01*
X67045028Y-95656953D01*
X67048664Y-95659234D01*
X67116544Y-95689883D01*
X67294345Y-95770164D01*
X67294349Y-95770166D01*
X67298257Y-95771930D01*
X67361393Y-95790632D01*
X67556723Y-95848491D01*
X67556727Y-95848492D01*
X67560836Y-95849709D01*
X67565070Y-95850357D01*
X67565075Y-95850358D01*
X67827298Y-95890483D01*
X67827300Y-95890483D01*
X67831540Y-95891132D01*
X67970912Y-95893322D01*
X68101071Y-95895367D01*
X68101077Y-95895367D01*
X68105362Y-95895434D01*
X68377235Y-95862534D01*
X68642127Y-95793041D01*
X68646087Y-95791401D01*
X68646092Y-95791399D01*
X68768632Y-95740641D01*
X68895136Y-95688241D01*
X69046781Y-95599627D01*
X69127879Y-95552237D01*
X69127880Y-95552236D01*
X69131582Y-95550073D01*
X69347089Y-95381094D01*
X69388809Y-95338043D01*
X69505673Y-95217448D01*
X69537669Y-95184431D01*
X69540202Y-95180983D01*
X69540206Y-95180978D01*
X69697257Y-94967178D01*
X69699795Y-94963723D01*
X69727154Y-94913334D01*
X69828418Y-94726830D01*
X69828419Y-94726828D01*
X69830468Y-94723054D01*
X69885452Y-94577544D01*
X69925751Y-94470895D01*
X69925752Y-94470891D01*
X69927269Y-94466877D01*
X69961110Y-94319117D01*
X69987449Y-94204117D01*
X69987450Y-94204113D01*
X69988407Y-94199933D01*
X70002710Y-94039677D01*
X70012531Y-93929627D01*
X70012531Y-93929625D01*
X70012751Y-93927161D01*
X70013193Y-93885000D01*
X70002703Y-93731123D01*
X69994859Y-93616055D01*
X69994858Y-93616049D01*
X69994567Y-93611778D01*
X69939032Y-93343612D01*
X69847617Y-93085465D01*
X69722013Y-92842112D01*
X69712040Y-92827921D01*
X69567008Y-92621562D01*
X69564545Y-92618057D01*
X69487910Y-92535588D01*
X69381046Y-92420588D01*
X69381043Y-92420585D01*
X69378125Y-92417445D01*
X69374810Y-92414731D01*
X69374806Y-92414728D01*
X69169523Y-92246706D01*
X69166205Y-92243990D01*
X69001847Y-92143272D01*
X68936366Y-92103145D01*
X68936365Y-92103145D01*
X68932704Y-92100901D01*
X68928768Y-92099173D01*
X68685873Y-91992549D01*
X68685869Y-91992548D01*
X68681945Y-91990825D01*
X68418566Y-91915800D01*
X68414324Y-91915196D01*
X68414318Y-91915195D01*
X68213834Y-91886662D01*
X68147443Y-91877213D01*
X68003589Y-91876460D01*
X67877877Y-91875802D01*
X67877871Y-91875802D01*
X67873591Y-91875780D01*
X67869347Y-91876339D01*
X67869343Y-91876339D01*
X67750302Y-91892011D01*
X67602078Y-91911525D01*
X67597938Y-91912658D01*
X67597936Y-91912658D01*
X67525008Y-91932609D01*
X67337928Y-91983788D01*
X67333980Y-91985472D01*
X67089982Y-92089546D01*
X67089978Y-92089548D01*
X67086030Y-92091232D01*
X67057976Y-92108022D01*
X66854725Y-92229664D01*
X66854721Y-92229667D01*
X66851043Y-92231868D01*
X66637318Y-92403094D01*
X66448808Y-92601742D01*
X66289002Y-92824136D01*
X66160857Y-93066161D01*
X66159385Y-93070184D01*
X66159383Y-93070188D01*
X66068214Y-93319317D01*
X66066743Y-93323337D01*
X66008404Y-93590907D01*
X65986917Y-93863918D01*
X57311756Y-93863918D01*
X57302703Y-93731123D01*
X57294859Y-93616055D01*
X57294858Y-93616049D01*
X57294567Y-93611778D01*
X57239032Y-93343612D01*
X57147617Y-93085465D01*
X57022013Y-92842112D01*
X57012040Y-92827921D01*
X56867008Y-92621562D01*
X56864545Y-92618057D01*
X56787910Y-92535588D01*
X56681046Y-92420588D01*
X56681043Y-92420585D01*
X56678125Y-92417445D01*
X56674810Y-92414731D01*
X56674806Y-92414728D01*
X56469523Y-92246706D01*
X56466205Y-92243990D01*
X56301847Y-92143272D01*
X56236366Y-92103145D01*
X56236365Y-92103145D01*
X56232704Y-92100901D01*
X56228768Y-92099173D01*
X55985873Y-91992549D01*
X55985869Y-91992548D01*
X55981945Y-91990825D01*
X55718566Y-91915800D01*
X55714324Y-91915196D01*
X55714318Y-91915195D01*
X55513834Y-91886662D01*
X55447443Y-91877213D01*
X55303589Y-91876460D01*
X55177877Y-91875802D01*
X55177871Y-91875802D01*
X55173591Y-91875780D01*
X55169347Y-91876339D01*
X55169343Y-91876339D01*
X55050302Y-91892011D01*
X54902078Y-91911525D01*
X54897938Y-91912658D01*
X54897936Y-91912658D01*
X54825008Y-91932609D01*
X54637928Y-91983788D01*
X54633980Y-91985472D01*
X54389982Y-92089546D01*
X54389978Y-92089548D01*
X54386030Y-92091232D01*
X54357976Y-92108022D01*
X54154725Y-92229664D01*
X54154721Y-92229667D01*
X54151043Y-92231868D01*
X53937318Y-92403094D01*
X53748808Y-92601742D01*
X53589002Y-92824136D01*
X53460857Y-93066161D01*
X53459385Y-93070184D01*
X53459383Y-93070188D01*
X53368214Y-93319317D01*
X53366743Y-93323337D01*
X53308404Y-93590907D01*
X53286917Y-93863918D01*
X50508500Y-93863918D01*
X50508500Y-92262817D01*
X50528502Y-92194696D01*
X50545405Y-92173722D01*
X51809304Y-90909823D01*
X51818844Y-90902200D01*
X51818530Y-90901832D01*
X51825366Y-90896014D01*
X51832958Y-90891224D01*
X51868593Y-90850875D01*
X51873939Y-90845188D01*
X51885382Y-90833745D01*
X51891659Y-90825370D01*
X51898033Y-90817541D01*
X51929378Y-90782049D01*
X51933192Y-90773926D01*
X51934826Y-90771438D01*
X51943814Y-90756477D01*
X51945230Y-90753891D01*
X51950616Y-90746705D01*
X51967244Y-90702350D01*
X51971164Y-90693048D01*
X51971706Y-90691893D01*
X51991281Y-90650200D01*
X51992662Y-90641334D01*
X51993518Y-90638533D01*
X51997962Y-90621596D01*
X51998595Y-90618716D01*
X52001744Y-90610316D01*
X52005252Y-90563111D01*
X52006406Y-90553063D01*
X52007750Y-90544429D01*
X52008500Y-90539614D01*
X52008500Y-90524077D01*
X52008847Y-90514739D01*
X52011874Y-90474010D01*
X52011874Y-90474009D01*
X52012539Y-90465059D01*
X52010666Y-90456284D01*
X52010103Y-90448027D01*
X52008500Y-90432838D01*
X52008500Y-83334186D01*
X60182187Y-83334186D01*
X60182266Y-83335888D01*
X60187702Y-83395046D01*
X60190315Y-83408096D01*
X60234029Y-83547589D01*
X60240235Y-83561334D01*
X60315496Y-83685604D01*
X60324803Y-83697473D01*
X60427527Y-83800197D01*
X60439396Y-83809504D01*
X60563666Y-83884765D01*
X60577411Y-83890971D01*
X60716912Y-83934687D01*
X60728503Y-83937009D01*
X60742835Y-83934194D01*
X60746000Y-83922298D01*
X60746000Y-83920658D01*
X61254000Y-83920658D01*
X61258271Y-83935203D01*
X61270302Y-83937248D01*
X61283088Y-83934687D01*
X61422589Y-83890971D01*
X61436334Y-83884765D01*
X61560604Y-83809504D01*
X61572473Y-83800197D01*
X61675197Y-83697473D01*
X61684504Y-83685604D01*
X61759765Y-83561334D01*
X61765971Y-83547589D01*
X61809685Y-83408096D01*
X61812298Y-83395046D01*
X61817537Y-83338038D01*
X61813525Y-83324376D01*
X61812135Y-83323171D01*
X61804452Y-83321500D01*
X61272115Y-83321500D01*
X61256876Y-83325975D01*
X61255671Y-83327365D01*
X61254000Y-83335048D01*
X61254000Y-83920658D01*
X60746000Y-83920658D01*
X60746000Y-83339615D01*
X60741525Y-83324376D01*
X60740135Y-83323171D01*
X60732452Y-83321500D01*
X60200115Y-83321500D01*
X60184876Y-83325975D01*
X60183671Y-83327365D01*
X60182187Y-83334186D01*
X52008500Y-83334186D01*
X52008500Y-73966695D01*
X53137251Y-73966695D01*
X53137548Y-73971848D01*
X53137548Y-73971851D01*
X53144832Y-74098175D01*
X53150110Y-74189715D01*
X53151247Y-74194761D01*
X53151248Y-74194767D01*
X53171119Y-74282939D01*
X53199222Y-74407639D01*
X53283266Y-74614616D01*
X53285965Y-74619020D01*
X53375728Y-74765500D01*
X53399987Y-74805088D01*
X53546250Y-74973938D01*
X53552095Y-74978791D01*
X53554981Y-74981187D01*
X53594616Y-75040090D01*
X53596113Y-75111071D01*
X53558997Y-75171593D01*
X53518725Y-75196112D01*
X53458627Y-75218642D01*
X53403295Y-75239385D01*
X53286739Y-75326739D01*
X53199385Y-75443295D01*
X53148255Y-75579684D01*
X53141500Y-75641866D01*
X53141500Y-77438134D01*
X53148255Y-77500316D01*
X53199385Y-77636705D01*
X53286739Y-77753261D01*
X53403295Y-77840615D01*
X53539684Y-77891745D01*
X53601866Y-77898500D01*
X55398134Y-77898500D01*
X55460316Y-77891745D01*
X55596705Y-77840615D01*
X55713261Y-77753261D01*
X55800615Y-77636705D01*
X55851745Y-77500316D01*
X55858500Y-77438134D01*
X55858500Y-77299500D01*
X55878502Y-77231379D01*
X55932158Y-77184886D01*
X55984500Y-77173500D01*
X60195704Y-77173500D01*
X60263825Y-77193502D01*
X60303479Y-77234227D01*
X60315097Y-77253409D01*
X60319034Y-77259910D01*
X60329595Y-77270471D01*
X60363621Y-77332783D01*
X60366500Y-77359566D01*
X60366500Y-78278362D01*
X60346498Y-78346483D01*
X60329595Y-78367457D01*
X60310070Y-78386982D01*
X60226252Y-78525382D01*
X60223981Y-78532629D01*
X60223980Y-78532631D01*
X60213157Y-78567167D01*
X60177866Y-78679781D01*
X60171500Y-78749063D01*
X60171501Y-79250936D01*
X60171764Y-79253795D01*
X60171764Y-79253803D01*
X60173252Y-79270000D01*
X60177866Y-79320219D01*
X60179865Y-79326597D01*
X60179865Y-79326598D01*
X60220965Y-79457746D01*
X60226252Y-79474618D01*
X60230186Y-79481114D01*
X60230187Y-79481116D01*
X60261142Y-79532229D01*
X60279321Y-79600859D01*
X60261142Y-79662771D01*
X60237106Y-79702460D01*
X60226252Y-79720382D01*
X60177866Y-79874781D01*
X60171500Y-79944063D01*
X60171501Y-80445936D01*
X60171764Y-80448795D01*
X60171764Y-80448803D01*
X60171852Y-80449758D01*
X60177866Y-80515219D01*
X60179865Y-80521597D01*
X60179865Y-80521598D01*
X60223272Y-80660108D01*
X60226252Y-80669618D01*
X60310070Y-80808018D01*
X60329595Y-80827543D01*
X60363621Y-80889855D01*
X60366500Y-80916638D01*
X60366500Y-81207934D01*
X60346498Y-81276055D01*
X60329595Y-81297029D01*
X60319034Y-81307590D01*
X60235843Y-81444955D01*
X60233572Y-81452202D01*
X60233571Y-81452204D01*
X60223502Y-81484335D01*
X60187819Y-81598199D01*
X60181500Y-81666968D01*
X60181500Y-82198032D01*
X60187819Y-82266801D01*
X60235843Y-82420045D01*
X60239779Y-82426544D01*
X60245027Y-82435210D01*
X60263207Y-82503839D01*
X60245026Y-82565757D01*
X60240234Y-82573669D01*
X60234029Y-82587411D01*
X60190315Y-82726904D01*
X60187702Y-82739954D01*
X60182463Y-82796962D01*
X60186475Y-82810624D01*
X60187865Y-82811829D01*
X60195548Y-82813500D01*
X61799885Y-82813500D01*
X61815124Y-82809025D01*
X61816329Y-82807635D01*
X61817813Y-82800814D01*
X61817734Y-82799112D01*
X61812298Y-82739954D01*
X61809685Y-82726904D01*
X61765971Y-82587411D01*
X61759766Y-82573669D01*
X61754974Y-82565757D01*
X61736793Y-82497128D01*
X61754973Y-82435210D01*
X61760221Y-82426544D01*
X61764157Y-82420045D01*
X61812181Y-82266801D01*
X61818500Y-82198032D01*
X61818500Y-81666968D01*
X61812181Y-81598199D01*
X61776498Y-81484335D01*
X61766429Y-81452204D01*
X61766428Y-81452202D01*
X61764157Y-81444955D01*
X61680966Y-81307590D01*
X61670405Y-81297029D01*
X61636379Y-81234717D01*
X61633500Y-81207934D01*
X61633500Y-80916638D01*
X61653502Y-80848517D01*
X61670405Y-80827543D01*
X61689930Y-80808018D01*
X61773748Y-80669618D01*
X61776729Y-80660108D01*
X61813359Y-80543220D01*
X61822134Y-80515219D01*
X61828500Y-80445937D01*
X61828499Y-79944064D01*
X61827855Y-79937054D01*
X61826383Y-79921025D01*
X61840071Y-79851360D01*
X61889249Y-79800154D01*
X61951855Y-79783500D01*
X62841567Y-79783500D01*
X62909688Y-79803502D01*
X62949000Y-79845678D01*
X62949385Y-79846705D01*
X63036739Y-79963261D01*
X63153295Y-80050615D01*
X63289684Y-80101745D01*
X63351866Y-80108500D01*
X64648134Y-80108500D01*
X64710316Y-80101745D01*
X64846705Y-80050615D01*
X64963261Y-79963261D01*
X65050615Y-79846705D01*
X65050861Y-79846049D01*
X65098175Y-79798843D01*
X65158433Y-79783500D01*
X66841567Y-79783500D01*
X66909688Y-79803502D01*
X66949000Y-79845678D01*
X66949385Y-79846705D01*
X67036739Y-79963261D01*
X67153295Y-80050615D01*
X67289684Y-80101745D01*
X67351866Y-80108500D01*
X68648134Y-80108500D01*
X68710316Y-80101745D01*
X68846705Y-80050615D01*
X68963261Y-79963261D01*
X69050615Y-79846705D01*
X69101745Y-79710316D01*
X69108500Y-79648134D01*
X69108500Y-78989594D01*
X69128502Y-78921473D01*
X69145405Y-78900499D01*
X70010499Y-78035405D01*
X70072811Y-78001379D01*
X70099594Y-77998500D01*
X72203906Y-77998500D01*
X72272027Y-78018502D01*
X72318520Y-78072158D01*
X72328624Y-78142432D01*
X72299130Y-78207012D01*
X72293001Y-78213595D01*
X69507000Y-80999596D01*
X69444688Y-81033622D01*
X69417905Y-81036501D01*
X69286564Y-81036501D01*
X69283705Y-81036764D01*
X69283697Y-81036764D01*
X69249924Y-81039867D01*
X69217281Y-81042866D01*
X69210903Y-81044865D01*
X69210902Y-81044865D01*
X69070131Y-81088980D01*
X69070129Y-81088981D01*
X69062882Y-81091252D01*
X68924482Y-81175070D01*
X68867457Y-81232095D01*
X68805145Y-81266121D01*
X68778362Y-81269000D01*
X66721638Y-81269000D01*
X66653517Y-81248998D01*
X66632543Y-81232095D01*
X66575518Y-81175070D01*
X66437118Y-81091252D01*
X66429871Y-81088981D01*
X66429869Y-81088980D01*
X66367715Y-81069502D01*
X66282719Y-81042866D01*
X66213437Y-81036500D01*
X66210539Y-81036500D01*
X65999447Y-81036501D01*
X65786564Y-81036501D01*
X65783705Y-81036764D01*
X65783697Y-81036764D01*
X65749924Y-81039867D01*
X65717281Y-81042866D01*
X65710903Y-81044865D01*
X65710902Y-81044865D01*
X65570131Y-81088980D01*
X65570129Y-81088981D01*
X65562882Y-81091252D01*
X65424482Y-81175070D01*
X65310070Y-81289482D01*
X65226252Y-81427882D01*
X65223981Y-81435129D01*
X65223980Y-81435131D01*
X65208990Y-81482964D01*
X65177866Y-81582281D01*
X65171500Y-81651563D01*
X65171501Y-82153436D01*
X65171764Y-82156295D01*
X65171764Y-82156303D01*
X65174867Y-82190076D01*
X65177866Y-82222719D01*
X65179865Y-82229097D01*
X65179865Y-82229098D01*
X65222562Y-82365342D01*
X65226252Y-82377118D01*
X65230186Y-82383614D01*
X65230187Y-82383616D01*
X65261142Y-82434729D01*
X65279321Y-82503359D01*
X65261142Y-82565271D01*
X65230187Y-82616384D01*
X65226252Y-82622882D01*
X65223981Y-82630129D01*
X65223980Y-82630131D01*
X65204502Y-82692285D01*
X65177866Y-82777281D01*
X65171500Y-82846563D01*
X65171501Y-83348436D01*
X65171764Y-83351295D01*
X65171764Y-83351303D01*
X65172060Y-83354521D01*
X65177866Y-83417719D01*
X65179865Y-83424097D01*
X65179865Y-83424098D01*
X65223488Y-83563297D01*
X65226252Y-83572118D01*
X65310070Y-83710518D01*
X65329595Y-83730043D01*
X65363621Y-83792355D01*
X65366500Y-83819138D01*
X65366500Y-84627934D01*
X65346498Y-84696055D01*
X65329595Y-84717029D01*
X65319034Y-84727590D01*
X65235843Y-84864955D01*
X65187819Y-85018199D01*
X65181500Y-85086968D01*
X65181500Y-85618032D01*
X65187819Y-85686801D01*
X65195853Y-85712438D01*
X65220054Y-85789661D01*
X65235843Y-85840045D01*
X65244737Y-85854730D01*
X65262915Y-85923358D01*
X65244737Y-85985270D01*
X65235843Y-85999955D01*
X65187819Y-86153199D01*
X65181500Y-86221968D01*
X65181500Y-86753032D01*
X65187819Y-86821801D01*
X65235843Y-86975045D01*
X65319034Y-87112410D01*
X65432590Y-87225966D01*
X65569955Y-87309157D01*
X65577202Y-87311428D01*
X65577204Y-87311429D01*
X65619913Y-87324813D01*
X65723199Y-87357181D01*
X65791968Y-87363500D01*
X66208032Y-87363500D01*
X66276801Y-87357181D01*
X66380087Y-87324813D01*
X66422796Y-87311429D01*
X66422798Y-87311428D01*
X66430045Y-87309157D01*
X66567410Y-87225966D01*
X66635471Y-87157905D01*
X66697783Y-87123879D01*
X66724566Y-87121000D01*
X68748362Y-87121000D01*
X68816483Y-87141002D01*
X68837457Y-87157905D01*
X68924482Y-87244930D01*
X69062882Y-87328748D01*
X69070129Y-87331019D01*
X69070131Y-87331020D01*
X69132285Y-87350498D01*
X69217281Y-87377134D01*
X69286563Y-87383500D01*
X69435406Y-87383500D01*
X69503527Y-87403502D01*
X69524501Y-87420405D01*
X70329595Y-88225499D01*
X70363621Y-88287811D01*
X70366500Y-88314594D01*
X70366500Y-106800406D01*
X70346498Y-106868527D01*
X70329595Y-106889501D01*
X68962663Y-108256432D01*
X68900351Y-108290458D01*
X68822922Y-108282710D01*
X68685873Y-108222549D01*
X68685869Y-108222548D01*
X68681945Y-108220825D01*
X68418566Y-108145800D01*
X68414324Y-108145196D01*
X68414318Y-108145195D01*
X68213834Y-108116662D01*
X68147443Y-108107213D01*
X68003589Y-108106460D01*
X67877877Y-108105802D01*
X67877871Y-108105802D01*
X67873591Y-108105780D01*
X67869347Y-108106339D01*
X67869343Y-108106339D01*
X67766072Y-108119935D01*
X67602078Y-108141525D01*
X67597938Y-108142658D01*
X67597936Y-108142658D01*
X67579012Y-108147835D01*
X67337928Y-108213788D01*
X67333980Y-108215472D01*
X67089982Y-108319546D01*
X67089978Y-108319548D01*
X67086030Y-108321232D01*
X66978647Y-108385499D01*
X66854725Y-108459664D01*
X66854721Y-108459667D01*
X66851043Y-108461868D01*
X66637318Y-108633094D01*
X66448808Y-108831742D01*
X66289002Y-109054136D01*
X66160857Y-109296161D01*
X66159385Y-109300184D01*
X66159383Y-109300188D01*
X66117299Y-109415188D01*
X66066743Y-109553337D01*
X66008404Y-109820907D01*
X65986917Y-110093918D01*
X66002682Y-110367320D01*
X66003507Y-110371525D01*
X66003508Y-110371533D01*
X66026166Y-110487022D01*
X66055405Y-110636053D01*
X66056792Y-110640103D01*
X66056793Y-110640108D01*
X66114169Y-110807689D01*
X66144112Y-110895144D01*
X66267160Y-111139799D01*
X66269586Y-111143328D01*
X66269589Y-111143334D01*
X66398741Y-111331250D01*
X66422274Y-111365490D01*
X66606582Y-111568043D01*
X66816675Y-111743707D01*
X66820316Y-111745991D01*
X67045024Y-111886951D01*
X67045028Y-111886953D01*
X67048664Y-111889234D01*
X67052574Y-111890999D01*
X67052575Y-111891000D01*
X67107120Y-111915628D01*
X67292352Y-111999264D01*
X67346205Y-112045526D01*
X67366500Y-112114100D01*
X67366500Y-114083362D01*
X67346498Y-114151483D01*
X67329595Y-114172457D01*
X67310070Y-114191982D01*
X67226252Y-114330382D01*
X67177866Y-114484781D01*
X67171500Y-114554063D01*
X67171501Y-115055936D01*
X67171764Y-115058795D01*
X67171764Y-115058803D01*
X67174462Y-115088163D01*
X67177866Y-115125219D01*
X67179865Y-115131597D01*
X67179865Y-115131598D01*
X67208374Y-115222568D01*
X67226252Y-115279618D01*
X67230186Y-115286114D01*
X67230187Y-115286116D01*
X67261142Y-115337229D01*
X67279321Y-115405859D01*
X67261142Y-115467771D01*
X67226252Y-115525382D01*
X67177866Y-115679781D01*
X67171500Y-115749063D01*
X67171501Y-116250936D01*
X67177866Y-116320219D01*
X67226252Y-116474618D01*
X67310070Y-116613018D01*
X67424482Y-116727430D01*
X67562882Y-116811248D01*
X67570129Y-116813519D01*
X67570131Y-116813520D01*
X67632285Y-116832998D01*
X67717281Y-116859634D01*
X67786563Y-116866000D01*
X67789461Y-116866000D01*
X68000553Y-116865999D01*
X68213436Y-116865999D01*
X68216295Y-116865736D01*
X68216303Y-116865736D01*
X68250076Y-116862633D01*
X68282719Y-116859634D01*
X68289104Y-116857633D01*
X68429869Y-116813520D01*
X68429871Y-116813519D01*
X68437118Y-116811248D01*
X68575518Y-116727430D01*
X68632543Y-116670405D01*
X68694855Y-116636379D01*
X68721638Y-116633500D01*
X70024274Y-116633500D01*
X70092395Y-116653502D01*
X70131707Y-116693665D01*
X70199987Y-116805088D01*
X70346250Y-116973938D01*
X70518126Y-117116632D01*
X70711000Y-117229338D01*
X70919692Y-117309030D01*
X70924760Y-117310061D01*
X70924763Y-117310062D01*
X71032017Y-117331883D01*
X71138597Y-117353567D01*
X71143772Y-117353757D01*
X71143774Y-117353757D01*
X71356673Y-117361564D01*
X71356677Y-117361564D01*
X71361837Y-117361753D01*
X71366957Y-117361097D01*
X71366959Y-117361097D01*
X71578288Y-117334025D01*
X71578289Y-117334025D01*
X71583416Y-117333368D01*
X71588366Y-117331883D01*
X71792429Y-117270661D01*
X71792434Y-117270659D01*
X71797384Y-117269174D01*
X71997994Y-117170896D01*
X72179860Y-117041173D01*
X72338096Y-116883489D01*
X72354799Y-116860245D01*
X72468453Y-116702077D01*
X72469776Y-116703028D01*
X72516645Y-116659857D01*
X72586580Y-116647625D01*
X72652026Y-116675144D01*
X72679875Y-116706994D01*
X72739987Y-116805088D01*
X72886250Y-116973938D01*
X73058126Y-117116632D01*
X73251000Y-117229338D01*
X73459692Y-117309030D01*
X73464760Y-117310061D01*
X73464763Y-117310062D01*
X73572017Y-117331883D01*
X73678597Y-117353567D01*
X73683772Y-117353757D01*
X73683774Y-117353757D01*
X73896673Y-117361564D01*
X73896677Y-117361564D01*
X73901837Y-117361753D01*
X73906957Y-117361097D01*
X73906959Y-117361097D01*
X74118288Y-117334025D01*
X74118289Y-117334025D01*
X74123416Y-117333368D01*
X74128366Y-117331883D01*
X74332429Y-117270661D01*
X74332434Y-117270659D01*
X74337384Y-117269174D01*
X74537994Y-117170896D01*
X74719860Y-117041173D01*
X74878096Y-116883489D01*
X74894799Y-116860245D01*
X75008453Y-116702077D01*
X75009776Y-116703028D01*
X75056645Y-116659857D01*
X75126580Y-116647625D01*
X75192026Y-116675144D01*
X75219875Y-116706994D01*
X75279987Y-116805088D01*
X75426250Y-116973938D01*
X75598126Y-117116632D01*
X75791000Y-117229338D01*
X75999692Y-117309030D01*
X76004760Y-117310061D01*
X76004763Y-117310062D01*
X76112017Y-117331883D01*
X76218597Y-117353567D01*
X76223772Y-117353757D01*
X76223774Y-117353757D01*
X76436673Y-117361564D01*
X76436677Y-117361564D01*
X76441837Y-117361753D01*
X76446957Y-117361097D01*
X76446959Y-117361097D01*
X76658288Y-117334025D01*
X76658289Y-117334025D01*
X76663416Y-117333368D01*
X76668366Y-117331883D01*
X76872429Y-117270661D01*
X76872434Y-117270659D01*
X76877384Y-117269174D01*
X77077994Y-117170896D01*
X77259860Y-117041173D01*
X77418096Y-116883489D01*
X77434799Y-116860245D01*
X77548453Y-116702077D01*
X77549776Y-116703028D01*
X77596645Y-116659857D01*
X77666580Y-116647625D01*
X77732026Y-116675144D01*
X77759875Y-116706994D01*
X77819987Y-116805088D01*
X77966250Y-116973938D01*
X78138126Y-117116632D01*
X78331000Y-117229338D01*
X78539692Y-117309030D01*
X78544760Y-117310061D01*
X78544763Y-117310062D01*
X78652017Y-117331883D01*
X78758597Y-117353567D01*
X78763772Y-117353757D01*
X78763774Y-117353757D01*
X78976673Y-117361564D01*
X78976677Y-117361564D01*
X78981837Y-117361753D01*
X78986957Y-117361097D01*
X78986959Y-117361097D01*
X79198288Y-117334025D01*
X79198289Y-117334025D01*
X79203416Y-117333368D01*
X79208366Y-117331883D01*
X79412429Y-117270661D01*
X79412434Y-117270659D01*
X79417384Y-117269174D01*
X79617994Y-117170896D01*
X79799860Y-117041173D01*
X79958096Y-116883489D01*
X79974799Y-116860245D01*
X80088453Y-116702077D01*
X80089776Y-116703028D01*
X80136645Y-116659857D01*
X80206580Y-116647625D01*
X80272026Y-116675144D01*
X80299875Y-116706994D01*
X80359987Y-116805088D01*
X80506250Y-116973938D01*
X80678126Y-117116632D01*
X80871000Y-117229338D01*
X81079692Y-117309030D01*
X81084760Y-117310061D01*
X81084763Y-117310062D01*
X81192017Y-117331883D01*
X81298597Y-117353567D01*
X81303772Y-117353757D01*
X81303774Y-117353757D01*
X81516673Y-117361564D01*
X81516677Y-117361564D01*
X81521837Y-117361753D01*
X81526957Y-117361097D01*
X81526959Y-117361097D01*
X81738288Y-117334025D01*
X81738289Y-117334025D01*
X81743416Y-117333368D01*
X81748366Y-117331883D01*
X81952429Y-117270661D01*
X81952434Y-117270659D01*
X81957384Y-117269174D01*
X82157994Y-117170896D01*
X82339860Y-117041173D01*
X82448091Y-116933319D01*
X82510462Y-116899404D01*
X82581268Y-116904592D01*
X82638030Y-116947238D01*
X82655012Y-116978341D01*
X82699385Y-117096705D01*
X82786739Y-117213261D01*
X82903295Y-117300615D01*
X83039684Y-117351745D01*
X83101866Y-117358500D01*
X84898134Y-117358500D01*
X84960316Y-117351745D01*
X85096705Y-117300615D01*
X85213261Y-117213261D01*
X85300615Y-117096705D01*
X85351745Y-116960316D01*
X85358500Y-116898134D01*
X85358500Y-115101866D01*
X85351745Y-115039684D01*
X85300615Y-114903295D01*
X85213261Y-114786739D01*
X85096705Y-114699385D01*
X84960316Y-114648255D01*
X84898134Y-114641500D01*
X83101866Y-114641500D01*
X83039684Y-114648255D01*
X82903295Y-114699385D01*
X82786739Y-114786739D01*
X82699385Y-114903295D01*
X82696233Y-114911703D01*
X82654919Y-115021907D01*
X82612277Y-115078671D01*
X82545716Y-115103371D01*
X82476367Y-115088163D01*
X82443743Y-115062476D01*
X82393151Y-115006875D01*
X82393142Y-115006866D01*
X82389670Y-115003051D01*
X82385619Y-114999852D01*
X82385615Y-114999848D01*
X82218414Y-114867800D01*
X82218410Y-114867798D01*
X82214359Y-114864598D01*
X82209831Y-114862098D01*
X82093988Y-114798150D01*
X82018789Y-114756638D01*
X82013920Y-114754914D01*
X82013916Y-114754912D01*
X81813087Y-114683795D01*
X81813083Y-114683794D01*
X81808212Y-114682069D01*
X81803119Y-114681162D01*
X81803116Y-114681161D01*
X81593373Y-114643800D01*
X81593367Y-114643799D01*
X81588284Y-114642894D01*
X81514452Y-114641992D01*
X81370081Y-114640228D01*
X81370079Y-114640228D01*
X81364911Y-114640165D01*
X81144091Y-114673955D01*
X80931756Y-114743357D01*
X80901443Y-114759137D01*
X80757975Y-114833822D01*
X80733607Y-114846507D01*
X80729474Y-114849610D01*
X80729471Y-114849612D01*
X80559100Y-114977530D01*
X80554965Y-114980635D01*
X80515525Y-115021907D01*
X80423165Y-115118556D01*
X80400629Y-115142138D01*
X80293201Y-115299621D01*
X80238293Y-115344621D01*
X80167768Y-115352792D01*
X80104021Y-115321538D01*
X80083324Y-115297054D01*
X80002822Y-115172617D01*
X80002820Y-115172614D01*
X80000014Y-115168277D01*
X79849670Y-115003051D01*
X79845619Y-114999852D01*
X79845615Y-114999848D01*
X79678414Y-114867800D01*
X79678410Y-114867798D01*
X79674359Y-114864598D01*
X79669831Y-114862098D01*
X79553988Y-114798150D01*
X79478789Y-114756638D01*
X79473920Y-114754914D01*
X79473916Y-114754912D01*
X79273087Y-114683795D01*
X79273083Y-114683794D01*
X79268212Y-114682069D01*
X79263119Y-114681162D01*
X79263116Y-114681161D01*
X79053373Y-114643800D01*
X79053367Y-114643799D01*
X79048284Y-114642894D01*
X78974452Y-114641992D01*
X78830081Y-114640228D01*
X78830079Y-114640228D01*
X78824911Y-114640165D01*
X78604091Y-114673955D01*
X78391756Y-114743357D01*
X78361443Y-114759137D01*
X78217975Y-114833822D01*
X78193607Y-114846507D01*
X78189474Y-114849610D01*
X78189471Y-114849612D01*
X78019100Y-114977530D01*
X78014965Y-114980635D01*
X77975525Y-115021907D01*
X77883165Y-115118556D01*
X77860629Y-115142138D01*
X77753201Y-115299621D01*
X77698293Y-115344621D01*
X77627768Y-115352792D01*
X77564021Y-115321538D01*
X77543324Y-115297054D01*
X77462822Y-115172617D01*
X77462820Y-115172614D01*
X77460014Y-115168277D01*
X77309670Y-115003051D01*
X77305619Y-114999852D01*
X77305615Y-114999848D01*
X77138414Y-114867800D01*
X77138410Y-114867798D01*
X77134359Y-114864598D01*
X77129835Y-114862101D01*
X77129831Y-114862098D01*
X77078608Y-114833822D01*
X77028636Y-114783390D01*
X77013500Y-114723513D01*
X77013500Y-110449594D01*
X77033502Y-110381473D01*
X77050405Y-110360499D01*
X77201986Y-110208918D01*
X85986917Y-110208918D01*
X86002682Y-110482320D01*
X86003507Y-110486525D01*
X86003508Y-110486533D01*
X86003604Y-110487022D01*
X86055405Y-110751053D01*
X86056792Y-110755103D01*
X86056793Y-110755108D01*
X86125787Y-110956621D01*
X86144112Y-111010144D01*
X86146039Y-111013975D01*
X86238047Y-111196913D01*
X86267160Y-111254799D01*
X86269586Y-111258328D01*
X86269589Y-111258334D01*
X86378988Y-111417509D01*
X86422274Y-111480490D01*
X86606582Y-111683043D01*
X86609877Y-111685798D01*
X86609878Y-111685799D01*
X86643966Y-111714301D01*
X86816675Y-111858707D01*
X86820316Y-111860991D01*
X87045024Y-112001951D01*
X87045028Y-112001953D01*
X87048664Y-112004234D01*
X87116544Y-112034883D01*
X87294345Y-112115164D01*
X87294349Y-112115166D01*
X87298257Y-112116930D01*
X87323536Y-112124418D01*
X87556723Y-112193491D01*
X87556727Y-112193492D01*
X87560836Y-112194709D01*
X87565070Y-112195357D01*
X87565075Y-112195358D01*
X87827298Y-112235483D01*
X87827300Y-112235483D01*
X87831540Y-112236132D01*
X87970912Y-112238322D01*
X88101071Y-112240367D01*
X88101077Y-112240367D01*
X88105362Y-112240434D01*
X88377235Y-112207534D01*
X88642127Y-112138041D01*
X88646087Y-112136401D01*
X88646092Y-112136399D01*
X88865477Y-112045526D01*
X88895136Y-112033241D01*
X89095638Y-111916077D01*
X89127879Y-111897237D01*
X89127880Y-111897236D01*
X89131582Y-111895073D01*
X89347089Y-111726094D01*
X89358202Y-111714627D01*
X89471059Y-111598167D01*
X89537669Y-111529431D01*
X89540202Y-111525983D01*
X89540206Y-111525978D01*
X89697257Y-111312178D01*
X89699795Y-111308723D01*
X89727154Y-111258334D01*
X89828418Y-111071830D01*
X89828419Y-111071828D01*
X89830468Y-111068054D01*
X89878869Y-110939965D01*
X89925751Y-110815895D01*
X89925752Y-110815891D01*
X89927269Y-110811877D01*
X89988407Y-110544933D01*
X89993576Y-110487022D01*
X90012531Y-110274627D01*
X90012531Y-110274625D01*
X90012751Y-110272161D01*
X90013193Y-110230000D01*
X90011756Y-110208918D01*
X98686917Y-110208918D01*
X98702682Y-110482320D01*
X98703507Y-110486525D01*
X98703508Y-110486533D01*
X98703604Y-110487022D01*
X98755405Y-110751053D01*
X98756792Y-110755103D01*
X98756793Y-110755108D01*
X98825787Y-110956621D01*
X98844112Y-111010144D01*
X98846039Y-111013975D01*
X98938047Y-111196913D01*
X98967160Y-111254799D01*
X98969586Y-111258328D01*
X98969589Y-111258334D01*
X99078988Y-111417509D01*
X99122274Y-111480490D01*
X99306582Y-111683043D01*
X99309877Y-111685798D01*
X99309878Y-111685799D01*
X99343966Y-111714301D01*
X99516675Y-111858707D01*
X99520316Y-111860991D01*
X99745024Y-112001951D01*
X99745028Y-112001953D01*
X99748664Y-112004234D01*
X99816544Y-112034883D01*
X99994345Y-112115164D01*
X99994349Y-112115166D01*
X99998257Y-112116930D01*
X100023536Y-112124418D01*
X100256723Y-112193491D01*
X100256727Y-112193492D01*
X100260836Y-112194709D01*
X100265070Y-112195357D01*
X100265075Y-112195358D01*
X100527298Y-112235483D01*
X100527300Y-112235483D01*
X100531540Y-112236132D01*
X100670912Y-112238322D01*
X100801071Y-112240367D01*
X100801077Y-112240367D01*
X100805362Y-112240434D01*
X101077235Y-112207534D01*
X101342127Y-112138041D01*
X101346087Y-112136401D01*
X101346092Y-112136399D01*
X101565477Y-112045526D01*
X101595136Y-112033241D01*
X101795638Y-111916077D01*
X101827879Y-111897237D01*
X101827880Y-111897236D01*
X101831582Y-111895073D01*
X102047089Y-111726094D01*
X102058202Y-111714627D01*
X102171059Y-111598167D01*
X102237669Y-111529431D01*
X102240202Y-111525983D01*
X102240206Y-111525978D01*
X102397257Y-111312178D01*
X102399795Y-111308723D01*
X102427154Y-111258334D01*
X102528418Y-111071830D01*
X102528419Y-111071828D01*
X102530468Y-111068054D01*
X102578869Y-110939965D01*
X102625751Y-110815895D01*
X102625752Y-110815891D01*
X102627269Y-110811877D01*
X102688407Y-110544933D01*
X102693576Y-110487022D01*
X102712531Y-110274627D01*
X102712531Y-110274625D01*
X102712751Y-110272161D01*
X102713193Y-110230000D01*
X102709159Y-110170819D01*
X102694859Y-109961055D01*
X102694858Y-109961049D01*
X102694567Y-109956778D01*
X102693077Y-109949580D01*
X102652553Y-109753900D01*
X102639032Y-109688612D01*
X102547617Y-109430465D01*
X102422013Y-109187112D01*
X102412040Y-109172921D01*
X102267008Y-108966562D01*
X102264545Y-108963057D01*
X102194466Y-108887643D01*
X102081046Y-108765588D01*
X102081043Y-108765585D01*
X102078125Y-108762445D01*
X102074810Y-108759731D01*
X102074806Y-108759728D01*
X101869523Y-108591706D01*
X101866205Y-108588990D01*
X101632704Y-108445901D01*
X101628768Y-108444173D01*
X101385873Y-108337549D01*
X101385869Y-108337548D01*
X101381945Y-108335825D01*
X101118566Y-108260800D01*
X101114324Y-108260196D01*
X101114318Y-108260195D01*
X100913834Y-108231662D01*
X100847443Y-108222213D01*
X100703589Y-108221460D01*
X100577877Y-108220802D01*
X100577871Y-108220802D01*
X100573591Y-108220780D01*
X100569347Y-108221339D01*
X100569343Y-108221339D01*
X100450302Y-108237011D01*
X100302078Y-108256525D01*
X100297938Y-108257658D01*
X100297936Y-108257658D01*
X100225008Y-108277609D01*
X100037928Y-108328788D01*
X100033980Y-108330472D01*
X99789982Y-108434546D01*
X99789978Y-108434548D01*
X99786030Y-108436232D01*
X99717719Y-108477115D01*
X99554725Y-108574664D01*
X99554721Y-108574667D01*
X99551043Y-108576868D01*
X99337318Y-108748094D01*
X99148808Y-108946742D01*
X98989002Y-109169136D01*
X98860857Y-109411161D01*
X98859385Y-109415184D01*
X98859383Y-109415188D01*
X98776015Y-109643000D01*
X98766743Y-109668337D01*
X98708404Y-109935907D01*
X98708068Y-109940177D01*
X98689916Y-110170819D01*
X98686917Y-110208918D01*
X90011756Y-110208918D01*
X90009159Y-110170819D01*
X89994859Y-109961055D01*
X89994858Y-109961049D01*
X89994567Y-109956778D01*
X89993077Y-109949580D01*
X89952553Y-109753900D01*
X89939032Y-109688612D01*
X89847617Y-109430465D01*
X89722013Y-109187112D01*
X89712040Y-109172921D01*
X89567008Y-108966562D01*
X89564545Y-108963057D01*
X89494466Y-108887643D01*
X89381046Y-108765588D01*
X89381043Y-108765585D01*
X89378125Y-108762445D01*
X89374810Y-108759731D01*
X89374806Y-108759728D01*
X89169523Y-108591706D01*
X89166205Y-108588990D01*
X88932704Y-108445901D01*
X88928768Y-108444173D01*
X88685873Y-108337549D01*
X88685869Y-108337548D01*
X88681945Y-108335825D01*
X88418566Y-108260800D01*
X88414324Y-108260196D01*
X88414318Y-108260195D01*
X88213834Y-108231662D01*
X88147443Y-108222213D01*
X88003589Y-108221460D01*
X87877877Y-108220802D01*
X87877871Y-108220802D01*
X87873591Y-108220780D01*
X87869347Y-108221339D01*
X87869343Y-108221339D01*
X87750302Y-108237011D01*
X87602078Y-108256525D01*
X87597938Y-108257658D01*
X87597936Y-108257658D01*
X87525008Y-108277609D01*
X87337928Y-108328788D01*
X87333980Y-108330472D01*
X87089982Y-108434546D01*
X87089978Y-108434548D01*
X87086030Y-108436232D01*
X87017719Y-108477115D01*
X86854725Y-108574664D01*
X86854721Y-108574667D01*
X86851043Y-108576868D01*
X86637318Y-108748094D01*
X86448808Y-108946742D01*
X86289002Y-109169136D01*
X86160857Y-109411161D01*
X86159385Y-109415184D01*
X86159383Y-109415188D01*
X86076015Y-109643000D01*
X86066743Y-109668337D01*
X86008404Y-109935907D01*
X86008068Y-109940177D01*
X85989916Y-110170819D01*
X85986917Y-110208918D01*
X77201986Y-110208918D01*
X91821250Y-95589654D01*
X99475618Y-95589654D01*
X99482673Y-95599627D01*
X99513679Y-95625551D01*
X99520598Y-95630579D01*
X99745272Y-95771515D01*
X99752807Y-95775556D01*
X99994520Y-95884694D01*
X100002551Y-95887680D01*
X100256832Y-95963002D01*
X100265184Y-95964869D01*
X100527340Y-96004984D01*
X100535874Y-96005700D01*
X100801045Y-96009867D01*
X100809596Y-96009418D01*
X101072883Y-95977557D01*
X101081284Y-95975955D01*
X101337824Y-95908653D01*
X101345926Y-95905926D01*
X101590949Y-95804434D01*
X101598617Y-95800628D01*
X101827598Y-95666822D01*
X101834679Y-95662009D01*
X101914655Y-95599301D01*
X101923125Y-95587442D01*
X101916608Y-95575818D01*
X100712812Y-94372022D01*
X100698868Y-94364408D01*
X100697035Y-94364539D01*
X100690420Y-94368790D01*
X99482910Y-95576300D01*
X99475618Y-95589654D01*
X91821250Y-95589654D01*
X93427700Y-93983204D01*
X98687665Y-93983204D01*
X98702932Y-94247969D01*
X98704005Y-94256470D01*
X98755065Y-94516722D01*
X98757276Y-94524974D01*
X98843184Y-94775894D01*
X98846499Y-94783779D01*
X98965664Y-95020713D01*
X98970020Y-95028079D01*
X99099347Y-95216250D01*
X99109601Y-95224594D01*
X99123342Y-95217448D01*
X100327978Y-94012812D01*
X100334356Y-94001132D01*
X101064408Y-94001132D01*
X101064539Y-94002965D01*
X101068790Y-94009580D01*
X102275730Y-95216520D01*
X102287939Y-95223187D01*
X102299439Y-95214497D01*
X102396831Y-95081913D01*
X102401418Y-95074685D01*
X102527962Y-94841621D01*
X102531530Y-94833827D01*
X102625271Y-94585750D01*
X102627748Y-94577544D01*
X102686954Y-94319038D01*
X102688294Y-94310577D01*
X102712031Y-94044616D01*
X102712277Y-94039677D01*
X102712666Y-94002485D01*
X102712523Y-93997519D01*
X102694362Y-93731123D01*
X102693201Y-93722649D01*
X102639419Y-93462944D01*
X102637120Y-93454709D01*
X102548588Y-93204705D01*
X102545191Y-93196854D01*
X102423550Y-92961178D01*
X102419122Y-92953866D01*
X102300031Y-92784417D01*
X102289509Y-92776037D01*
X102276121Y-92783089D01*
X101072022Y-93987188D01*
X101064408Y-94001132D01*
X100334356Y-94001132D01*
X100335592Y-93998868D01*
X100335461Y-93997035D01*
X100331210Y-93990420D01*
X99123814Y-92783024D01*
X99111804Y-92776466D01*
X99100064Y-92785434D01*
X98991935Y-92935911D01*
X98987418Y-92943196D01*
X98863325Y-93177567D01*
X98859839Y-93185395D01*
X98768700Y-93434446D01*
X98766311Y-93442670D01*
X98709812Y-93701795D01*
X98708563Y-93710250D01*
X98687754Y-93974653D01*
X98687665Y-93983204D01*
X93427700Y-93983204D01*
X94998404Y-92412500D01*
X99476584Y-92412500D01*
X99482980Y-92423770D01*
X100687188Y-93627978D01*
X100701132Y-93635592D01*
X100702965Y-93635461D01*
X100709580Y-93631210D01*
X101916604Y-92424186D01*
X101923795Y-92411017D01*
X101916473Y-92400780D01*
X101869233Y-92362115D01*
X101862261Y-92357160D01*
X101636122Y-92218582D01*
X101628552Y-92214624D01*
X101385704Y-92108022D01*
X101377644Y-92105120D01*
X101122592Y-92032467D01*
X101114214Y-92030685D01*
X100851656Y-91993318D01*
X100843111Y-91992691D01*
X100577908Y-91991302D01*
X100569374Y-91991839D01*
X100306433Y-92026456D01*
X100298035Y-92028149D01*
X100042238Y-92098127D01*
X100034143Y-92100946D01*
X99790199Y-92204997D01*
X99782577Y-92208881D01*
X99555013Y-92345075D01*
X99547981Y-92349962D01*
X99485053Y-92400377D01*
X99476584Y-92412500D01*
X94998404Y-92412500D01*
X99587938Y-87822966D01*
X100168257Y-87822966D01*
X100198565Y-87957446D01*
X100201645Y-87967275D01*
X100281770Y-88164603D01*
X100286413Y-88173794D01*
X100397694Y-88355388D01*
X100403777Y-88363699D01*
X100543213Y-88524667D01*
X100550580Y-88531883D01*
X100714434Y-88667916D01*
X100722881Y-88673831D01*
X100906756Y-88781279D01*
X100916042Y-88785729D01*
X101115001Y-88861703D01*
X101124899Y-88864579D01*
X101228250Y-88885606D01*
X101242299Y-88884410D01*
X101246000Y-88874065D01*
X101246000Y-88873517D01*
X101754000Y-88873517D01*
X101758064Y-88887359D01*
X101771478Y-88889393D01*
X101778184Y-88888534D01*
X101788262Y-88886392D01*
X101992255Y-88825191D01*
X102001842Y-88821433D01*
X102193095Y-88727739D01*
X102201945Y-88722464D01*
X102375328Y-88598792D01*
X102383200Y-88592139D01*
X102534052Y-88441812D01*
X102540730Y-88433965D01*
X102665003Y-88261020D01*
X102670313Y-88252183D01*
X102764670Y-88061267D01*
X102768469Y-88051672D01*
X102830377Y-87847910D01*
X102832555Y-87837837D01*
X102833986Y-87826962D01*
X102831775Y-87812778D01*
X102818617Y-87809000D01*
X101772115Y-87809000D01*
X101756876Y-87813475D01*
X101755671Y-87814865D01*
X101754000Y-87822548D01*
X101754000Y-88873517D01*
X101246000Y-88873517D01*
X101246000Y-87827115D01*
X101241525Y-87811876D01*
X101240135Y-87810671D01*
X101232452Y-87809000D01*
X100183225Y-87809000D01*
X100169694Y-87812973D01*
X100168257Y-87822966D01*
X99587938Y-87822966D01*
X100072999Y-87337905D01*
X100135311Y-87303879D01*
X100162094Y-87301000D01*
X102818344Y-87301000D01*
X102831875Y-87297027D01*
X102833180Y-87287947D01*
X102791214Y-87120875D01*
X102787894Y-87111124D01*
X102702972Y-86915814D01*
X102698105Y-86906739D01*
X102582426Y-86727926D01*
X102576136Y-86719757D01*
X102432806Y-86562240D01*
X102425273Y-86555215D01*
X102258139Y-86423222D01*
X102249556Y-86417520D01*
X102212602Y-86397120D01*
X102162631Y-86346687D01*
X102147859Y-86277245D01*
X102172975Y-86210839D01*
X102200327Y-86184232D01*
X102226870Y-86165299D01*
X102379860Y-86056173D01*
X102399202Y-86036899D01*
X102534435Y-85902137D01*
X102538096Y-85898489D01*
X102559050Y-85869329D01*
X102665435Y-85721277D01*
X102668453Y-85717077D01*
X102674333Y-85705181D01*
X102765136Y-85521453D01*
X102765137Y-85521451D01*
X102767430Y-85516811D01*
X102825434Y-85325899D01*
X102830865Y-85308023D01*
X102830865Y-85308021D01*
X102832370Y-85303069D01*
X102861529Y-85081590D01*
X102862290Y-85050459D01*
X102863074Y-85018365D01*
X102863074Y-85018361D01*
X102863156Y-85015000D01*
X102844852Y-84792361D01*
X102790431Y-84575702D01*
X102701354Y-84370840D01*
X102580014Y-84183277D01*
X102568843Y-84171000D01*
X102432798Y-84021488D01*
X102401746Y-83957642D01*
X102410141Y-83887143D01*
X102455317Y-83832375D01*
X102481761Y-83818706D01*
X102588297Y-83778767D01*
X102596705Y-83775615D01*
X102713261Y-83688261D01*
X102800615Y-83571705D01*
X102851745Y-83435316D01*
X102858500Y-83373134D01*
X102858500Y-81576866D01*
X102851745Y-81514684D01*
X102800615Y-81378295D01*
X102713261Y-81261739D01*
X102596705Y-81174385D01*
X102460316Y-81123255D01*
X102398134Y-81116500D01*
X100601866Y-81116500D01*
X100539684Y-81123255D01*
X100403295Y-81174385D01*
X100286739Y-81261739D01*
X100199385Y-81378295D01*
X100148255Y-81514684D01*
X100141500Y-81576866D01*
X100141500Y-81715500D01*
X100121498Y-81783621D01*
X100067842Y-81830114D01*
X100015500Y-81841500D01*
X97715369Y-81841500D01*
X97647248Y-81821498D01*
X97608228Y-81781807D01*
X97573478Y-81725652D01*
X97448303Y-81600695D01*
X97444084Y-81598094D01*
X97403583Y-81540970D01*
X97400351Y-81470047D01*
X97435976Y-81408635D01*
X97443530Y-81402078D01*
X97449348Y-81398478D01*
X97461103Y-81386703D01*
X97569134Y-81278483D01*
X97574305Y-81273303D01*
X97667115Y-81122738D01*
X97722797Y-80954861D01*
X97733500Y-80850400D01*
X97733500Y-80074600D01*
X97733163Y-80071350D01*
X97723238Y-79975692D01*
X97723237Y-79975688D01*
X97722526Y-79968834D01*
X97689018Y-79868397D01*
X97668868Y-79808002D01*
X97666550Y-79801054D01*
X97573478Y-79650652D01*
X97448303Y-79525695D01*
X97405337Y-79499210D01*
X97303968Y-79436725D01*
X97303966Y-79436724D01*
X97297738Y-79432885D01*
X97180940Y-79394145D01*
X97136389Y-79379368D01*
X97136387Y-79379368D01*
X97129861Y-79377203D01*
X97123025Y-79376503D01*
X97123022Y-79376502D01*
X97079969Y-79372091D01*
X97025400Y-79366500D01*
X96352094Y-79366500D01*
X96283973Y-79346498D01*
X96262999Y-79329595D01*
X95415656Y-78482251D01*
X94541152Y-77607747D01*
X94533612Y-77599461D01*
X94529500Y-77592982D01*
X94507433Y-77572260D01*
X94471467Y-77511047D01*
X94474304Y-77440107D01*
X94504590Y-77391314D01*
X94685499Y-77210405D01*
X94747811Y-77176379D01*
X94774594Y-77173500D01*
X100224274Y-77173500D01*
X100292395Y-77193502D01*
X100331707Y-77233665D01*
X100399987Y-77345088D01*
X100546250Y-77513938D01*
X100718126Y-77656632D01*
X100911000Y-77769338D01*
X101119692Y-77849030D01*
X101124760Y-77850061D01*
X101124763Y-77850062D01*
X101232017Y-77871883D01*
X101338597Y-77893567D01*
X101343772Y-77893757D01*
X101343774Y-77893757D01*
X101556673Y-77901564D01*
X101556677Y-77901564D01*
X101561837Y-77901753D01*
X101566957Y-77901097D01*
X101566959Y-77901097D01*
X101778288Y-77874025D01*
X101778289Y-77874025D01*
X101783416Y-77873368D01*
X101788366Y-77871883D01*
X101992429Y-77810661D01*
X101992434Y-77810659D01*
X101997384Y-77809174D01*
X102197994Y-77710896D01*
X102379860Y-77581173D01*
X102450232Y-77511047D01*
X102523400Y-77438134D01*
X102538096Y-77423489D01*
X102603275Y-77332783D01*
X102665435Y-77246277D01*
X102668453Y-77242077D01*
X102672611Y-77233665D01*
X102765136Y-77046453D01*
X102765137Y-77046451D01*
X102767430Y-77041811D01*
X102810659Y-76899528D01*
X102830865Y-76833023D01*
X102830865Y-76833021D01*
X102832370Y-76828069D01*
X102861529Y-76606590D01*
X102862395Y-76571135D01*
X102863074Y-76543365D01*
X102863074Y-76543361D01*
X102863156Y-76540000D01*
X102844852Y-76317361D01*
X102790431Y-76100702D01*
X102701354Y-75895840D01*
X102580014Y-75708277D01*
X102565577Y-75692411D01*
X102432798Y-75546488D01*
X102401746Y-75482642D01*
X102410141Y-75412143D01*
X102455317Y-75357375D01*
X102481761Y-75343706D01*
X102588297Y-75303767D01*
X102596705Y-75300615D01*
X102713261Y-75213261D01*
X102800615Y-75096705D01*
X102851745Y-74960316D01*
X102858500Y-74898134D01*
X102858500Y-73101866D01*
X102851745Y-73039684D01*
X102800615Y-72903295D01*
X102713261Y-72786739D01*
X102596705Y-72699385D01*
X102460316Y-72648255D01*
X102398134Y-72641500D01*
X100601866Y-72641500D01*
X100598481Y-72641868D01*
X100597034Y-72641946D01*
X100527932Y-72625654D01*
X100501130Y-72605225D01*
X92395405Y-64499500D01*
X92361379Y-64437188D01*
X92358500Y-64410405D01*
X92358500Y-63101866D01*
X92351745Y-63039684D01*
X92300615Y-62903295D01*
X92213261Y-62786739D01*
X92096705Y-62699385D01*
X91960316Y-62648255D01*
X91898134Y-62641500D01*
X91089595Y-62641500D01*
X91021474Y-62621498D01*
X91000499Y-62604595D01*
X90503647Y-62107742D01*
X90496113Y-62099463D01*
X90492000Y-62092982D01*
X90442348Y-62046356D01*
X90439507Y-62043602D01*
X90419770Y-62023865D01*
X90416573Y-62021385D01*
X90407551Y-62013680D01*
X90394116Y-62001064D01*
X90375321Y-61983414D01*
X90368375Y-61979595D01*
X90368372Y-61979593D01*
X90357566Y-61973652D01*
X90341047Y-61962801D01*
X90340583Y-61962441D01*
X90325041Y-61950386D01*
X90317772Y-61947241D01*
X90317768Y-61947238D01*
X90284463Y-61932826D01*
X90273813Y-61927609D01*
X90235060Y-61906305D01*
X90215437Y-61901267D01*
X90196734Y-61894863D01*
X90185420Y-61889967D01*
X90185419Y-61889967D01*
X90178145Y-61886819D01*
X90170322Y-61885580D01*
X90170312Y-61885577D01*
X90134476Y-61879901D01*
X90122856Y-61877495D01*
X90087711Y-61868472D01*
X90087710Y-61868472D01*
X90080030Y-61866500D01*
X90059776Y-61866500D01*
X90040065Y-61864949D01*
X90037534Y-61864548D01*
X90020057Y-61861780D01*
X89990786Y-61864547D01*
X89976039Y-61865941D01*
X89964181Y-61866500D01*
X84578767Y-61866500D01*
X84567584Y-61865973D01*
X84560091Y-61864298D01*
X84552165Y-61864547D01*
X84552164Y-61864547D01*
X84492014Y-61866438D01*
X84488055Y-61866500D01*
X84460144Y-61866500D01*
X84456210Y-61866997D01*
X84456209Y-61866997D01*
X84456144Y-61867005D01*
X84444307Y-61867938D01*
X84412049Y-61868952D01*
X84408030Y-61869078D01*
X84400111Y-61869327D01*
X84380657Y-61874979D01*
X84361300Y-61878987D01*
X84349070Y-61880532D01*
X84349069Y-61880532D01*
X84341203Y-61881526D01*
X84333832Y-61884445D01*
X84333830Y-61884445D01*
X84300088Y-61897804D01*
X84288858Y-61901649D01*
X84254017Y-61911771D01*
X84254016Y-61911771D01*
X84246407Y-61913982D01*
X84239588Y-61918015D01*
X84239583Y-61918017D01*
X84228972Y-61924293D01*
X84211224Y-61932988D01*
X84192383Y-61940448D01*
X84185968Y-61945109D01*
X84185966Y-61945110D01*
X84156613Y-61966436D01*
X84146693Y-61972952D01*
X84115465Y-61991420D01*
X84115462Y-61991422D01*
X84108638Y-61995458D01*
X84094317Y-62009779D01*
X84079284Y-62022619D01*
X84062893Y-62034528D01*
X84054217Y-62045016D01*
X84034702Y-62068605D01*
X84026712Y-62077384D01*
X81023095Y-65081001D01*
X80960783Y-65115027D01*
X80889968Y-65109962D01*
X80833132Y-65067415D01*
X80808321Y-65000895D01*
X80808000Y-64991906D01*
X80808000Y-64572115D01*
X80803525Y-64556876D01*
X80802135Y-64555671D01*
X80794452Y-64554000D01*
X78272115Y-64554000D01*
X78256876Y-64558475D01*
X78255671Y-64559865D01*
X78254000Y-64567548D01*
X78254000Y-65789884D01*
X78258475Y-65805123D01*
X78259865Y-65806328D01*
X78267548Y-65807999D01*
X79991907Y-65807999D01*
X80060028Y-65828001D01*
X80106521Y-65881657D01*
X80116625Y-65951931D01*
X80087131Y-66016511D01*
X80081008Y-66023088D01*
X77527449Y-68576646D01*
X75107747Y-70996348D01*
X75099461Y-71003888D01*
X75092982Y-71008000D01*
X75087557Y-71013777D01*
X75046357Y-71057651D01*
X75043602Y-71060493D01*
X75023865Y-71080230D01*
X75021385Y-71083427D01*
X75013682Y-71092447D01*
X74983414Y-71124679D01*
X74979595Y-71131625D01*
X74979593Y-71131628D01*
X74973652Y-71142434D01*
X74962801Y-71158953D01*
X74950386Y-71174959D01*
X74947241Y-71182228D01*
X74947238Y-71182232D01*
X74932826Y-71215537D01*
X74927609Y-71226187D01*
X74906305Y-71264940D01*
X74904334Y-71272615D01*
X74904334Y-71272616D01*
X74901267Y-71284562D01*
X74894863Y-71303266D01*
X74886819Y-71321855D01*
X74885580Y-71329678D01*
X74885577Y-71329688D01*
X74879901Y-71365524D01*
X74877495Y-71377144D01*
X74866500Y-71419970D01*
X74866500Y-71440224D01*
X74864949Y-71459934D01*
X74861780Y-71479943D01*
X74862526Y-71487835D01*
X74865941Y-71523961D01*
X74866500Y-71535819D01*
X74866500Y-72180862D01*
X74846498Y-72248983D01*
X74829595Y-72269957D01*
X74810070Y-72289482D01*
X74726252Y-72427882D01*
X74723981Y-72435129D01*
X74723980Y-72435131D01*
X74710636Y-72477711D01*
X74677866Y-72582281D01*
X74671500Y-72651563D01*
X74671501Y-73153436D01*
X74671764Y-73156295D01*
X74671764Y-73156303D01*
X74672513Y-73164457D01*
X74677866Y-73222719D01*
X74679865Y-73229097D01*
X74679865Y-73229098D01*
X74710446Y-73326680D01*
X74726252Y-73377118D01*
X74730186Y-73383614D01*
X74730187Y-73383616D01*
X74761142Y-73434729D01*
X74779321Y-73503359D01*
X74761142Y-73565271D01*
X74751414Y-73581334D01*
X74726252Y-73622882D01*
X74677866Y-73777281D01*
X74671500Y-73846563D01*
X74671501Y-74348436D01*
X74671764Y-74351295D01*
X74671764Y-74351303D01*
X74674867Y-74385076D01*
X74677866Y-74417719D01*
X74679865Y-74424097D01*
X74679865Y-74424098D01*
X74720902Y-74555045D01*
X74726252Y-74572118D01*
X74810070Y-74710518D01*
X74829595Y-74730043D01*
X74863621Y-74792355D01*
X74866500Y-74819138D01*
X74866500Y-75160500D01*
X74846498Y-75228621D01*
X74792842Y-75275114D01*
X74740500Y-75286500D01*
X74633498Y-75286500D01*
X74631050Y-75286693D01*
X74631042Y-75286693D01*
X74602579Y-75288933D01*
X74602574Y-75288934D01*
X74596169Y-75289438D01*
X74514052Y-75313295D01*
X74444012Y-75333643D01*
X74444010Y-75333644D01*
X74436399Y-75335855D01*
X74429572Y-75339892D01*
X74429573Y-75339892D01*
X74300020Y-75416509D01*
X74300017Y-75416511D01*
X74293193Y-75420547D01*
X74287585Y-75426155D01*
X74281325Y-75431011D01*
X74280156Y-75429504D01*
X74226833Y-75458621D01*
X74200050Y-75461500D01*
X73909594Y-75461500D01*
X73841473Y-75441498D01*
X73820499Y-75424595D01*
X71170405Y-72774500D01*
X71136379Y-72712188D01*
X71133500Y-72685405D01*
X71133500Y-65344669D01*
X75192001Y-65344669D01*
X75192371Y-65351490D01*
X75197895Y-65402352D01*
X75201521Y-65417604D01*
X75246676Y-65538054D01*
X75255214Y-65553649D01*
X75331715Y-65655724D01*
X75344276Y-65668285D01*
X75446351Y-65744786D01*
X75461946Y-65753324D01*
X75582394Y-65798478D01*
X75597649Y-65802105D01*
X75648514Y-65807631D01*
X75655328Y-65808000D01*
X77727885Y-65808000D01*
X77743124Y-65803525D01*
X77744329Y-65802135D01*
X77746000Y-65794452D01*
X77746000Y-64572115D01*
X77741525Y-64556876D01*
X77740135Y-64555671D01*
X77732452Y-64554000D01*
X75210116Y-64554000D01*
X75194877Y-64558475D01*
X75193672Y-64559865D01*
X75192001Y-64567548D01*
X75192001Y-65344669D01*
X71133500Y-65344669D01*
X71133500Y-64578767D01*
X71134027Y-64567584D01*
X71135702Y-64560091D01*
X71133562Y-64492014D01*
X71133500Y-64488055D01*
X71133500Y-64460144D01*
X71132995Y-64456144D01*
X71132062Y-64444301D01*
X71131839Y-64437188D01*
X71130673Y-64400110D01*
X71125022Y-64380658D01*
X71121014Y-64361306D01*
X71119467Y-64349063D01*
X71118474Y-64341203D01*
X71115556Y-64333832D01*
X71102200Y-64300097D01*
X71098355Y-64288870D01*
X71097721Y-64286687D01*
X71086018Y-64246407D01*
X71075707Y-64228972D01*
X71067012Y-64211224D01*
X71059552Y-64192383D01*
X71033564Y-64156613D01*
X71027048Y-64146693D01*
X71008580Y-64115465D01*
X71008578Y-64115462D01*
X71004542Y-64108638D01*
X70990221Y-64094317D01*
X70977380Y-64079283D01*
X70970131Y-64069306D01*
X70965472Y-64062893D01*
X70931395Y-64034702D01*
X70923905Y-64027885D01*
X75192000Y-64027885D01*
X75196475Y-64043124D01*
X75197865Y-64044329D01*
X75205548Y-64046000D01*
X77727885Y-64046000D01*
X77743124Y-64041525D01*
X77744329Y-64040135D01*
X77746000Y-64032452D01*
X77746000Y-64027885D01*
X78254000Y-64027885D01*
X78258475Y-64043124D01*
X78259865Y-64044329D01*
X78267548Y-64046000D01*
X80789884Y-64046000D01*
X80805123Y-64041525D01*
X80806328Y-64040135D01*
X80807999Y-64032452D01*
X80807999Y-63255331D01*
X80807629Y-63248510D01*
X80802105Y-63197648D01*
X80798479Y-63182396D01*
X80753324Y-63061946D01*
X80744786Y-63046351D01*
X80668285Y-62944276D01*
X80655724Y-62931715D01*
X80553649Y-62855214D01*
X80538054Y-62846676D01*
X80417606Y-62801522D01*
X80402351Y-62797895D01*
X80351486Y-62792369D01*
X80344672Y-62792000D01*
X78272115Y-62792000D01*
X78256876Y-62796475D01*
X78255671Y-62797865D01*
X78254000Y-62805548D01*
X78254000Y-64027885D01*
X77746000Y-64027885D01*
X77746000Y-62810116D01*
X77741525Y-62794877D01*
X77740135Y-62793672D01*
X77732452Y-62792001D01*
X75655331Y-62792001D01*
X75648510Y-62792371D01*
X75597648Y-62797895D01*
X75582396Y-62801521D01*
X75461946Y-62846676D01*
X75446351Y-62855214D01*
X75344276Y-62931715D01*
X75331715Y-62944276D01*
X75255214Y-63046351D01*
X75246676Y-63061946D01*
X75201522Y-63182394D01*
X75197895Y-63197649D01*
X75192369Y-63248514D01*
X75192000Y-63255328D01*
X75192000Y-64027885D01*
X70923905Y-64027885D01*
X70922616Y-64026712D01*
X69456906Y-62561001D01*
X71691500Y-62561001D01*
X71691702Y-62563509D01*
X71691702Y-62563514D01*
X71698452Y-62647402D01*
X71706060Y-62741965D01*
X71707266Y-62746873D01*
X71707266Y-62746876D01*
X71720688Y-62801521D01*
X71763963Y-62977706D01*
X71858812Y-63201156D01*
X71861510Y-63205440D01*
X71935165Y-63322401D01*
X71988167Y-63406567D01*
X71991512Y-63410361D01*
X72145350Y-63584858D01*
X72145353Y-63584861D01*
X72148698Y-63588655D01*
X72152606Y-63591865D01*
X72152607Y-63591866D01*
X72259242Y-63679456D01*
X72336278Y-63742734D01*
X72546078Y-63864841D01*
X72550801Y-63866654D01*
X72767978Y-63950020D01*
X72767982Y-63950021D01*
X72772702Y-63951833D01*
X72777652Y-63952867D01*
X72777655Y-63952868D01*
X73005369Y-64000440D01*
X73005373Y-64000440D01*
X73010320Y-64001474D01*
X73252817Y-64012486D01*
X73257837Y-64011905D01*
X73257841Y-64011905D01*
X73488929Y-63985167D01*
X73488933Y-63985166D01*
X73493956Y-63984585D01*
X73498820Y-63983209D01*
X73498823Y-63983208D01*
X73722669Y-63919866D01*
X73722668Y-63919866D01*
X73727532Y-63918490D01*
X73732108Y-63916356D01*
X73732114Y-63916354D01*
X73942954Y-63818038D01*
X73942958Y-63818036D01*
X73947536Y-63815901D01*
X74148307Y-63679456D01*
X74324681Y-63512668D01*
X74327760Y-63508641D01*
X74469047Y-63323846D01*
X74469050Y-63323842D01*
X74472120Y-63319826D01*
X74494852Y-63277432D01*
X74584439Y-63110352D01*
X74586831Y-63105891D01*
X74665862Y-62876369D01*
X74689948Y-62736924D01*
X74706504Y-62641074D01*
X74706505Y-62641068D01*
X74707179Y-62637164D01*
X74707359Y-62633202D01*
X74708436Y-62609494D01*
X74708436Y-62609475D01*
X74708500Y-62608075D01*
X74708500Y-60238999D01*
X74708298Y-60236486D01*
X74694346Y-60063076D01*
X74694345Y-60063071D01*
X74693940Y-60058035D01*
X74651071Y-59883500D01*
X74637244Y-59827208D01*
X74636037Y-59822294D01*
X74541188Y-59598844D01*
X74488795Y-59515646D01*
X74414528Y-59397712D01*
X74414526Y-59397709D01*
X74411833Y-59393433D01*
X74357812Y-59332158D01*
X74254650Y-59215142D01*
X74254647Y-59215139D01*
X74251302Y-59211345D01*
X74211641Y-59178767D01*
X74067628Y-59060474D01*
X74067625Y-59060472D01*
X74063722Y-59057266D01*
X73882830Y-58951984D01*
X73858290Y-58937701D01*
X73858288Y-58937700D01*
X73853922Y-58935159D01*
X73719725Y-58883646D01*
X73632022Y-58849980D01*
X73632018Y-58849979D01*
X73627298Y-58848167D01*
X73622348Y-58847133D01*
X73622345Y-58847132D01*
X73394631Y-58799560D01*
X73394627Y-58799560D01*
X73389680Y-58798526D01*
X73147183Y-58787514D01*
X73142163Y-58788095D01*
X73142159Y-58788095D01*
X72911071Y-58814833D01*
X72911067Y-58814834D01*
X72906044Y-58815415D01*
X72901180Y-58816791D01*
X72901177Y-58816792D01*
X72835715Y-58835316D01*
X72672468Y-58881510D01*
X72667892Y-58883644D01*
X72667886Y-58883646D01*
X72457046Y-58981962D01*
X72457042Y-58981964D01*
X72452464Y-58984099D01*
X72251693Y-59120544D01*
X72075319Y-59287332D01*
X72072241Y-59291358D01*
X72072240Y-59291359D01*
X71930953Y-59476154D01*
X71930950Y-59476158D01*
X71927880Y-59480174D01*
X71925490Y-59484632D01*
X71925489Y-59484633D01*
X71908860Y-59515646D01*
X71813169Y-59694109D01*
X71734138Y-59923631D01*
X71692821Y-60162836D01*
X71691500Y-60191925D01*
X71691500Y-62561001D01*
X69456906Y-62561001D01*
X69003652Y-62107747D01*
X68996112Y-62099461D01*
X68992000Y-62092982D01*
X68942348Y-62046356D01*
X68939507Y-62043602D01*
X68919770Y-62023865D01*
X68916573Y-62021385D01*
X68907551Y-62013680D01*
X68894116Y-62001064D01*
X68875321Y-61983414D01*
X68868375Y-61979595D01*
X68868372Y-61979593D01*
X68857566Y-61973652D01*
X68841047Y-61962801D01*
X68840583Y-61962441D01*
X68825041Y-61950386D01*
X68817772Y-61947241D01*
X68817768Y-61947238D01*
X68784463Y-61932826D01*
X68773813Y-61927609D01*
X68735060Y-61906305D01*
X68715437Y-61901267D01*
X68696734Y-61894863D01*
X68685420Y-61889967D01*
X68685419Y-61889967D01*
X68678145Y-61886819D01*
X68670322Y-61885580D01*
X68670312Y-61885577D01*
X68634476Y-61879901D01*
X68622856Y-61877495D01*
X68587711Y-61868472D01*
X68587710Y-61868472D01*
X68580030Y-61866500D01*
X68559776Y-61866500D01*
X68540065Y-61864949D01*
X68537534Y-61864548D01*
X68520057Y-61861780D01*
X68490786Y-61864547D01*
X68476039Y-61865941D01*
X68464181Y-61866500D01*
X66038763Y-61866500D01*
X66027579Y-61865973D01*
X66020091Y-61864299D01*
X66012168Y-61864548D01*
X65952033Y-61866438D01*
X65948075Y-61866500D01*
X65920144Y-61866500D01*
X65916229Y-61866995D01*
X65916225Y-61866995D01*
X65916167Y-61867003D01*
X65916138Y-61867006D01*
X65904296Y-61867939D01*
X65860110Y-61869327D01*
X65842744Y-61874372D01*
X65840658Y-61874978D01*
X65821306Y-61878986D01*
X65814235Y-61879880D01*
X65801203Y-61881526D01*
X65793834Y-61884443D01*
X65793832Y-61884444D01*
X65760097Y-61897800D01*
X65748869Y-61901645D01*
X65706407Y-61913982D01*
X65699585Y-61918016D01*
X65699579Y-61918019D01*
X65688968Y-61924294D01*
X65671218Y-61932990D01*
X65659756Y-61937528D01*
X65659751Y-61937531D01*
X65652383Y-61940448D01*
X65634970Y-61953099D01*
X65616625Y-61966427D01*
X65606707Y-61972943D01*
X65595463Y-61979593D01*
X65568637Y-61995458D01*
X65554313Y-62009782D01*
X65539283Y-62022620D01*
X65522893Y-62034528D01*
X65494712Y-62068593D01*
X65486722Y-62077373D01*
X64917345Y-62646750D01*
X64855033Y-62680776D01*
X64806154Y-62681702D01*
X64593373Y-62643800D01*
X64593367Y-62643799D01*
X64588284Y-62642894D01*
X64514452Y-62641992D01*
X64370081Y-62640228D01*
X64370079Y-62640228D01*
X64364911Y-62640165D01*
X64144091Y-62673955D01*
X63931756Y-62743357D01*
X63733607Y-62846507D01*
X63729474Y-62849610D01*
X63729471Y-62849612D01*
X63559100Y-62977530D01*
X63554965Y-62980635D01*
X63400629Y-63142138D01*
X63397715Y-63146410D01*
X63397714Y-63146411D01*
X63373168Y-63182394D01*
X63274743Y-63326680D01*
X63272564Y-63331375D01*
X63188411Y-63512668D01*
X63180688Y-63529305D01*
X63120989Y-63744570D01*
X63097251Y-63966695D01*
X63097548Y-63971848D01*
X63097548Y-63971851D01*
X63103167Y-64069306D01*
X63110110Y-64189715D01*
X63111247Y-64194761D01*
X63111248Y-64194767D01*
X63143453Y-64337668D01*
X63138917Y-64408520D01*
X63109631Y-64454464D01*
X60607747Y-66956348D01*
X60599461Y-66963888D01*
X60592982Y-66968000D01*
X60587557Y-66973777D01*
X60546357Y-67017651D01*
X60543602Y-67020493D01*
X60523865Y-67040230D01*
X60521385Y-67043427D01*
X60513682Y-67052447D01*
X60483414Y-67084679D01*
X60479595Y-67091625D01*
X60479593Y-67091628D01*
X60473652Y-67102434D01*
X60462801Y-67118953D01*
X60450386Y-67134959D01*
X60447241Y-67142228D01*
X60447238Y-67142232D01*
X60432826Y-67175537D01*
X60427609Y-67186187D01*
X60406305Y-67224940D01*
X60404334Y-67232615D01*
X60404334Y-67232616D01*
X60401267Y-67244562D01*
X60394863Y-67263266D01*
X60386819Y-67281855D01*
X60385580Y-67289678D01*
X60385577Y-67289688D01*
X60379901Y-67325524D01*
X60377495Y-67337144D01*
X60370757Y-67363390D01*
X60366500Y-67379970D01*
X60366500Y-67400224D01*
X60364949Y-67419934D01*
X60361780Y-67439943D01*
X60362526Y-67447835D01*
X60365941Y-67483961D01*
X60366500Y-67495819D01*
X60366500Y-74740500D01*
X60346498Y-74808621D01*
X60292842Y-74855114D01*
X60240500Y-74866500D01*
X56314595Y-74866500D01*
X56246474Y-74846498D01*
X56225500Y-74829595D01*
X55851218Y-74455313D01*
X55817192Y-74393001D01*
X55819755Y-74329589D01*
X55830865Y-74293022D01*
X55832370Y-74288069D01*
X55861529Y-74066590D01*
X55863156Y-74000000D01*
X55844852Y-73777361D01*
X55790431Y-73560702D01*
X55701354Y-73355840D01*
X55652008Y-73279563D01*
X55582822Y-73172617D01*
X55582820Y-73172614D01*
X55580014Y-73168277D01*
X55429670Y-73003051D01*
X55425619Y-72999852D01*
X55425615Y-72999848D01*
X55258414Y-72867800D01*
X55258410Y-72867798D01*
X55254359Y-72864598D01*
X55058789Y-72756638D01*
X55053920Y-72754914D01*
X55053916Y-72754912D01*
X54853087Y-72683795D01*
X54853083Y-72683794D01*
X54848212Y-72682069D01*
X54843119Y-72681162D01*
X54843116Y-72681161D01*
X54633373Y-72643800D01*
X54633367Y-72643799D01*
X54628284Y-72642894D01*
X54550689Y-72641946D01*
X54410081Y-72640228D01*
X54410079Y-72640228D01*
X54404911Y-72640165D01*
X54184091Y-72673955D01*
X53971756Y-72743357D01*
X53773607Y-72846507D01*
X53769474Y-72849610D01*
X53769471Y-72849612D01*
X53638649Y-72947836D01*
X53594965Y-72980635D01*
X53440629Y-73142138D01*
X53437715Y-73146410D01*
X53437714Y-73146411D01*
X53371933Y-73242842D01*
X53314743Y-73326680D01*
X53291331Y-73377118D01*
X53232732Y-73503359D01*
X53220688Y-73529305D01*
X53160989Y-73744570D01*
X53137251Y-73966695D01*
X52008500Y-73966695D01*
X52008500Y-58762817D01*
X52028502Y-58694696D01*
X52045405Y-58673722D01*
X52666310Y-58052817D01*
X75387514Y-58052817D01*
X75388095Y-58057837D01*
X75388095Y-58057841D01*
X75408048Y-58230283D01*
X75415415Y-58293956D01*
X75416791Y-58298820D01*
X75416792Y-58298823D01*
X75431217Y-58349800D01*
X75481510Y-58527532D01*
X75483644Y-58532108D01*
X75483646Y-58532114D01*
X75581962Y-58742954D01*
X75584099Y-58747536D01*
X75586940Y-58751717D01*
X75586941Y-58751718D01*
X75603804Y-58776531D01*
X75720544Y-58948307D01*
X75887332Y-59124681D01*
X75891358Y-59127759D01*
X75891359Y-59127760D01*
X76076154Y-59269047D01*
X76076158Y-59269050D01*
X76080174Y-59272120D01*
X76084632Y-59274510D01*
X76084633Y-59274511D01*
X76165225Y-59317724D01*
X76294109Y-59386831D01*
X76523631Y-59465862D01*
X76622978Y-59483022D01*
X76758926Y-59506504D01*
X76758932Y-59506505D01*
X76762836Y-59507179D01*
X76766797Y-59507359D01*
X76766798Y-59507359D01*
X76790506Y-59508436D01*
X76790525Y-59508436D01*
X76791925Y-59508500D01*
X79161001Y-59508500D01*
X79163509Y-59508298D01*
X79163514Y-59508298D01*
X79336924Y-59494346D01*
X79336929Y-59494345D01*
X79341965Y-59493940D01*
X79346873Y-59492734D01*
X79346876Y-59492734D01*
X79572792Y-59437244D01*
X79577706Y-59436037D01*
X79582358Y-59434062D01*
X79582362Y-59434061D01*
X79796498Y-59343165D01*
X79801156Y-59341188D01*
X79886677Y-59287332D01*
X80002288Y-59214528D01*
X80002291Y-59214526D01*
X80006567Y-59211833D01*
X80106170Y-59124022D01*
X80184858Y-59054650D01*
X80184861Y-59054647D01*
X80188655Y-59051302D01*
X80191866Y-59047393D01*
X80339526Y-58867628D01*
X80339528Y-58867625D01*
X80342734Y-58863722D01*
X80454832Y-58671119D01*
X80506386Y-58622306D01*
X80563731Y-58608500D01*
X84043752Y-58608500D01*
X84111873Y-58628502D01*
X84158366Y-58682158D01*
X84168470Y-58752432D01*
X84161736Y-58778724D01*
X84148255Y-58814684D01*
X84141500Y-58876866D01*
X84141500Y-59423134D01*
X84148255Y-59485316D01*
X84199385Y-59621705D01*
X84286739Y-59738261D01*
X84403295Y-59825615D01*
X84539684Y-59876745D01*
X84601866Y-59883500D01*
X85398134Y-59883500D01*
X85460316Y-59876745D01*
X85596705Y-59825615D01*
X85713261Y-59738261D01*
X85800615Y-59621705D01*
X85851745Y-59485316D01*
X85858500Y-59423134D01*
X85858500Y-58876866D01*
X85851745Y-58814684D01*
X85836169Y-58773134D01*
X86141500Y-58773134D01*
X86148255Y-58835316D01*
X86199385Y-58971705D01*
X86286739Y-59088261D01*
X86403295Y-59175615D01*
X86539684Y-59226745D01*
X86601866Y-59233500D01*
X86791079Y-59233500D01*
X86821027Y-59237111D01*
X86905610Y-59257808D01*
X86911212Y-59258156D01*
X86911215Y-59258156D01*
X86914825Y-59258380D01*
X86914835Y-59258380D01*
X86916764Y-59258500D01*
X88651895Y-59258500D01*
X88720016Y-59278502D01*
X88759038Y-59318196D01*
X88801522Y-59386848D01*
X88926697Y-59511805D01*
X88932927Y-59515645D01*
X88932928Y-59515646D01*
X89070090Y-59600194D01*
X89077262Y-59604615D01*
X89103438Y-59613297D01*
X89238611Y-59658132D01*
X89238613Y-59658132D01*
X89245139Y-59660297D01*
X89251975Y-59660997D01*
X89251978Y-59660998D01*
X89295031Y-59665409D01*
X89349600Y-59671000D01*
X91650400Y-59671000D01*
X91653646Y-59670663D01*
X91653650Y-59670663D01*
X91749308Y-59660738D01*
X91749312Y-59660737D01*
X91756166Y-59660026D01*
X91762702Y-59657845D01*
X91762704Y-59657845D01*
X91896229Y-59613297D01*
X91923946Y-59604050D01*
X92074348Y-59510978D01*
X92199305Y-59385803D01*
X92228469Y-59338490D01*
X92240863Y-59318384D01*
X92293636Y-59270890D01*
X92348123Y-59258500D01*
X93030491Y-59258500D01*
X93095760Y-59276723D01*
X93169955Y-59321657D01*
X93177202Y-59323928D01*
X93177204Y-59323929D01*
X93232278Y-59341188D01*
X93323199Y-59369681D01*
X93391968Y-59376000D01*
X93808032Y-59376000D01*
X93876801Y-59369681D01*
X93967722Y-59341188D01*
X94022796Y-59323929D01*
X94022798Y-59323928D01*
X94030045Y-59321657D01*
X94104240Y-59276723D01*
X94169509Y-59258500D01*
X94878689Y-59258500D01*
X94946810Y-59278502D01*
X94985833Y-59318196D01*
X95051522Y-59424348D01*
X95176697Y-59549305D01*
X95182927Y-59553145D01*
X95182928Y-59553146D01*
X95320090Y-59637694D01*
X95327262Y-59642115D01*
X95383409Y-59660738D01*
X95488611Y-59695632D01*
X95488613Y-59695632D01*
X95495139Y-59697797D01*
X95501975Y-59698497D01*
X95501978Y-59698498D01*
X95545031Y-59702909D01*
X95599600Y-59708500D01*
X96400400Y-59708500D01*
X96403646Y-59708163D01*
X96403650Y-59708163D01*
X96499308Y-59698238D01*
X96499312Y-59698237D01*
X96506166Y-59697526D01*
X96512702Y-59695345D01*
X96512704Y-59695345D01*
X96644806Y-59651272D01*
X96673946Y-59641550D01*
X96824348Y-59548478D01*
X96910784Y-59461891D01*
X96973066Y-59427812D01*
X97043886Y-59432815D01*
X97088975Y-59461736D01*
X97134678Y-59507359D01*
X97176697Y-59549305D01*
X97182927Y-59553145D01*
X97182928Y-59553146D01*
X97320090Y-59637694D01*
X97327262Y-59642115D01*
X97383409Y-59660738D01*
X97488611Y-59695632D01*
X97488613Y-59695632D01*
X97495139Y-59697797D01*
X97501975Y-59698497D01*
X97501978Y-59698498D01*
X97545031Y-59702909D01*
X97599600Y-59708500D01*
X98400400Y-59708500D01*
X98403646Y-59708163D01*
X98403650Y-59708163D01*
X98499308Y-59698238D01*
X98499312Y-59698237D01*
X98506166Y-59697526D01*
X98512702Y-59695345D01*
X98512704Y-59695345D01*
X98644806Y-59651272D01*
X98673946Y-59641550D01*
X98824348Y-59548478D01*
X98949305Y-59423303D01*
X99013979Y-59318383D01*
X99066750Y-59270891D01*
X99121238Y-59258500D01*
X99615500Y-59258500D01*
X99683621Y-59278502D01*
X99730114Y-59332158D01*
X99741500Y-59384500D01*
X99741500Y-59963001D01*
X99724619Y-60026000D01*
X99665473Y-60128444D01*
X99606458Y-60310072D01*
X99586496Y-60500000D01*
X99606458Y-60689928D01*
X99665473Y-60871556D01*
X99760960Y-61036944D01*
X99888747Y-61178866D01*
X100043248Y-61291118D01*
X100049276Y-61293802D01*
X100049278Y-61293803D01*
X100211681Y-61366109D01*
X100217712Y-61368794D01*
X100311112Y-61388647D01*
X100398056Y-61407128D01*
X100398061Y-61407128D01*
X100404513Y-61408500D01*
X100595487Y-61408500D01*
X100601939Y-61407128D01*
X100601944Y-61407128D01*
X100688888Y-61388647D01*
X100782288Y-61368794D01*
X100788319Y-61366109D01*
X100950722Y-61293803D01*
X100950724Y-61293802D01*
X100956752Y-61291118D01*
X101111253Y-61178866D01*
X101239040Y-61036944D01*
X101334527Y-60871556D01*
X101393542Y-60689928D01*
X101413504Y-60500000D01*
X101393542Y-60310072D01*
X101334527Y-60128444D01*
X101275381Y-60026000D01*
X101258500Y-59963001D01*
X101258500Y-59024876D01*
X101264266Y-58987197D01*
X101275301Y-58951984D01*
X101312181Y-58834301D01*
X101318500Y-58765532D01*
X101318500Y-58234468D01*
X101312181Y-58165699D01*
X101264157Y-58012455D01*
X101254973Y-57997290D01*
X101236793Y-57928661D01*
X101254974Y-57866743D01*
X101259766Y-57858831D01*
X101265971Y-57845089D01*
X101309685Y-57705596D01*
X101312298Y-57692546D01*
X101317537Y-57635538D01*
X101313525Y-57621876D01*
X101312135Y-57620671D01*
X101304452Y-57619000D01*
X99700115Y-57619000D01*
X99684876Y-57623475D01*
X99683670Y-57624867D01*
X99679881Y-57642283D01*
X99645856Y-57704596D01*
X99583544Y-57738621D01*
X99556761Y-57741500D01*
X99121311Y-57741500D01*
X99053190Y-57721498D01*
X99014167Y-57681804D01*
X98948478Y-57575652D01*
X98823303Y-57450695D01*
X98730730Y-57393632D01*
X98678968Y-57361725D01*
X98678966Y-57361724D01*
X98672738Y-57357885D01*
X98512254Y-57304655D01*
X98511389Y-57304368D01*
X98511387Y-57304368D01*
X98504861Y-57302203D01*
X98498025Y-57301503D01*
X98498022Y-57301502D01*
X98454969Y-57297091D01*
X98400400Y-57291500D01*
X97599600Y-57291500D01*
X97596354Y-57291837D01*
X97596350Y-57291837D01*
X97500692Y-57301762D01*
X97500688Y-57301763D01*
X97493834Y-57302474D01*
X97487298Y-57304655D01*
X97487296Y-57304655D01*
X97383567Y-57339262D01*
X97326054Y-57358450D01*
X97175652Y-57451522D01*
X97170479Y-57456704D01*
X97089216Y-57538109D01*
X97026934Y-57572188D01*
X96956114Y-57567185D01*
X96911025Y-57538264D01*
X96828483Y-57455866D01*
X96823303Y-57450695D01*
X96730730Y-57393632D01*
X96678968Y-57361725D01*
X96678966Y-57361724D01*
X96672738Y-57357885D01*
X96512254Y-57304655D01*
X96511389Y-57304368D01*
X96511387Y-57304368D01*
X96504861Y-57302203D01*
X96498025Y-57301503D01*
X96498022Y-57301502D01*
X96454969Y-57297091D01*
X96400400Y-57291500D01*
X95599600Y-57291500D01*
X95596354Y-57291837D01*
X95596350Y-57291837D01*
X95500692Y-57301762D01*
X95500688Y-57301763D01*
X95493834Y-57302474D01*
X95487298Y-57304655D01*
X95487296Y-57304655D01*
X95383567Y-57339262D01*
X95326054Y-57358450D01*
X95175652Y-57451522D01*
X95050695Y-57576697D01*
X94988040Y-57678343D01*
X94986022Y-57681616D01*
X94933250Y-57729109D01*
X94878762Y-57741500D01*
X94542972Y-57741500D01*
X94474851Y-57721498D01*
X94428358Y-57667842D01*
X94422076Y-57650998D01*
X94413525Y-57621876D01*
X94412135Y-57620671D01*
X94404452Y-57619000D01*
X92800115Y-57619000D01*
X92784876Y-57623475D01*
X92783670Y-57624867D01*
X92779881Y-57642283D01*
X92745856Y-57704596D01*
X92683544Y-57738621D01*
X92656761Y-57741500D01*
X92348105Y-57741500D01*
X92279984Y-57721498D01*
X92240961Y-57681803D01*
X92202332Y-57619380D01*
X92198478Y-57613152D01*
X92073303Y-57488195D01*
X92067072Y-57484354D01*
X91928968Y-57399225D01*
X91928966Y-57399224D01*
X91922738Y-57395385D01*
X91811382Y-57358450D01*
X91761389Y-57341868D01*
X91761387Y-57341868D01*
X91754861Y-57339703D01*
X91748025Y-57339003D01*
X91748022Y-57339002D01*
X91704969Y-57334591D01*
X91650400Y-57329000D01*
X89349600Y-57329000D01*
X89346354Y-57329337D01*
X89346350Y-57329337D01*
X89250692Y-57339262D01*
X89250688Y-57339263D01*
X89243834Y-57339974D01*
X89237298Y-57342155D01*
X89237296Y-57342155D01*
X89176897Y-57362306D01*
X89076054Y-57395950D01*
X88925652Y-57489022D01*
X88800695Y-57614197D01*
X88796855Y-57620427D01*
X88796854Y-57620428D01*
X88759137Y-57681616D01*
X88706364Y-57729110D01*
X88651877Y-57741500D01*
X86955707Y-57741500D01*
X86885964Y-57749631D01*
X86831589Y-57755970D01*
X86831585Y-57755971D01*
X86824319Y-57756818D01*
X86817443Y-57759314D01*
X86810310Y-57761000D01*
X86810168Y-57760399D01*
X86775484Y-57766500D01*
X86601866Y-57766500D01*
X86539684Y-57773255D01*
X86403295Y-57824385D01*
X86286739Y-57911739D01*
X86199385Y-58028295D01*
X86148255Y-58164684D01*
X86141500Y-58226866D01*
X86141500Y-58773134D01*
X85836169Y-58773134D01*
X85800615Y-58678295D01*
X85723623Y-58575565D01*
X85698775Y-58509059D01*
X85713828Y-58439676D01*
X85723623Y-58424435D01*
X85795229Y-58328891D01*
X85800615Y-58321705D01*
X85851745Y-58185316D01*
X85858500Y-58123134D01*
X85858500Y-57576866D01*
X85851745Y-57514684D01*
X85800615Y-57378295D01*
X85713261Y-57261739D01*
X85596705Y-57174385D01*
X85460316Y-57123255D01*
X85398134Y-57116500D01*
X85208921Y-57116500D01*
X85178973Y-57112889D01*
X85164424Y-57109329D01*
X85103667Y-57094462D01*
X92782463Y-57094462D01*
X92786475Y-57108124D01*
X92787865Y-57109329D01*
X92795548Y-57111000D01*
X93327885Y-57111000D01*
X93343124Y-57106525D01*
X93344329Y-57105135D01*
X93346000Y-57097452D01*
X93346000Y-57092885D01*
X93854000Y-57092885D01*
X93858475Y-57108124D01*
X93859865Y-57109329D01*
X93867548Y-57111000D01*
X94399885Y-57111000D01*
X94415124Y-57106525D01*
X94416329Y-57105135D01*
X94417813Y-57098314D01*
X94417734Y-57096612D01*
X94417536Y-57094462D01*
X99682463Y-57094462D01*
X99686475Y-57108124D01*
X99687865Y-57109329D01*
X99695548Y-57111000D01*
X100227885Y-57111000D01*
X100243124Y-57106525D01*
X100244329Y-57105135D01*
X100246000Y-57097452D01*
X100246000Y-57092885D01*
X100754000Y-57092885D01*
X100758475Y-57108124D01*
X100759865Y-57109329D01*
X100767548Y-57111000D01*
X101299885Y-57111000D01*
X101315124Y-57106525D01*
X101316329Y-57105135D01*
X101317813Y-57098314D01*
X101317734Y-57096612D01*
X101312298Y-57037454D01*
X101309685Y-57024404D01*
X101265971Y-56884911D01*
X101259765Y-56871166D01*
X101184504Y-56746896D01*
X101175197Y-56735027D01*
X101072473Y-56632303D01*
X101060604Y-56622996D01*
X100936334Y-56547735D01*
X100922589Y-56541529D01*
X100783088Y-56497813D01*
X100771497Y-56495491D01*
X100757165Y-56498306D01*
X100754000Y-56510202D01*
X100754000Y-57092885D01*
X100246000Y-57092885D01*
X100246000Y-56511842D01*
X100241729Y-56497297D01*
X100229698Y-56495252D01*
X100216912Y-56497813D01*
X100077411Y-56541529D01*
X100063666Y-56547735D01*
X99939396Y-56622996D01*
X99927527Y-56632303D01*
X99824803Y-56735027D01*
X99815496Y-56746896D01*
X99740235Y-56871166D01*
X99734029Y-56884911D01*
X99690315Y-57024404D01*
X99687702Y-57037454D01*
X99682463Y-57094462D01*
X94417536Y-57094462D01*
X94412298Y-57037454D01*
X94409685Y-57024404D01*
X94365971Y-56884911D01*
X94359765Y-56871166D01*
X94284504Y-56746896D01*
X94275197Y-56735027D01*
X94172473Y-56632303D01*
X94160604Y-56622996D01*
X94036334Y-56547735D01*
X94022589Y-56541529D01*
X93883088Y-56497813D01*
X93871497Y-56495491D01*
X93857165Y-56498306D01*
X93854000Y-56510202D01*
X93854000Y-57092885D01*
X93346000Y-57092885D01*
X93346000Y-56511842D01*
X93341729Y-56497297D01*
X93329698Y-56495252D01*
X93316912Y-56497813D01*
X93177411Y-56541529D01*
X93163666Y-56547735D01*
X93039396Y-56622996D01*
X93027527Y-56632303D01*
X92924803Y-56735027D01*
X92915496Y-56746896D01*
X92840235Y-56871166D01*
X92834029Y-56884911D01*
X92790315Y-57024404D01*
X92787702Y-57037454D01*
X92782463Y-57094462D01*
X85103667Y-57094462D01*
X85094390Y-57092192D01*
X85088788Y-57091844D01*
X85088785Y-57091844D01*
X85085175Y-57091620D01*
X85085165Y-57091620D01*
X85083236Y-57091500D01*
X80371311Y-57091500D01*
X80303190Y-57071498D01*
X80280281Y-57050913D01*
X80279456Y-57051693D01*
X80116148Y-56878999D01*
X80112668Y-56875319D01*
X80107236Y-56871166D01*
X79923846Y-56730953D01*
X79923842Y-56730950D01*
X79919826Y-56727880D01*
X79705891Y-56613169D01*
X79476369Y-56534138D01*
X79377022Y-56516978D01*
X79241074Y-56493496D01*
X79241068Y-56493495D01*
X79237164Y-56492821D01*
X79233203Y-56492641D01*
X79233202Y-56492641D01*
X79209494Y-56491564D01*
X79209475Y-56491564D01*
X79208075Y-56491500D01*
X76838999Y-56491500D01*
X76836491Y-56491702D01*
X76836486Y-56491702D01*
X76663076Y-56505654D01*
X76663071Y-56505655D01*
X76658035Y-56506060D01*
X76653127Y-56507266D01*
X76653124Y-56507266D01*
X76488363Y-56547735D01*
X76422294Y-56563963D01*
X76417642Y-56565938D01*
X76417638Y-56565939D01*
X76310252Y-56611522D01*
X76198844Y-56658812D01*
X76194560Y-56661510D01*
X75997712Y-56785472D01*
X75997709Y-56785474D01*
X75993433Y-56788167D01*
X75989639Y-56791512D01*
X75815142Y-56945350D01*
X75815139Y-56945353D01*
X75811345Y-56948698D01*
X75808135Y-56952606D01*
X75808134Y-56952607D01*
X75665685Y-57126029D01*
X75657266Y-57136278D01*
X75596212Y-57241178D01*
X75538712Y-57339974D01*
X75535159Y-57346078D01*
X75533346Y-57350801D01*
X75450285Y-57567185D01*
X75448167Y-57572702D01*
X75447133Y-57577652D01*
X75447132Y-57577655D01*
X75405690Y-57776029D01*
X75398526Y-57810320D01*
X75387514Y-58052817D01*
X52666310Y-58052817D01*
X54884532Y-55834595D01*
X88642001Y-55834595D01*
X88642338Y-55841114D01*
X88652257Y-55936706D01*
X88655149Y-55950100D01*
X88706588Y-56104284D01*
X88712761Y-56117462D01*
X88798063Y-56255307D01*
X88807099Y-56266708D01*
X88921829Y-56381239D01*
X88933240Y-56390251D01*
X89071243Y-56475316D01*
X89084424Y-56481463D01*
X89238710Y-56532638D01*
X89252086Y-56535505D01*
X89346438Y-56545172D01*
X89352854Y-56545500D01*
X90227885Y-56545500D01*
X90243124Y-56541025D01*
X90244329Y-56539635D01*
X90246000Y-56531952D01*
X90246000Y-56527384D01*
X90754000Y-56527384D01*
X90758475Y-56542623D01*
X90759865Y-56543828D01*
X90767548Y-56545499D01*
X91647095Y-56545499D01*
X91653614Y-56545162D01*
X91749206Y-56535243D01*
X91762600Y-56532351D01*
X91916784Y-56480912D01*
X91929962Y-56474739D01*
X92067807Y-56389437D01*
X92079208Y-56380401D01*
X92193739Y-56265671D01*
X92202751Y-56254260D01*
X92287816Y-56116257D01*
X92293963Y-56103076D01*
X92345138Y-55948790D01*
X92348005Y-55935414D01*
X92357672Y-55841062D01*
X92358000Y-55834646D01*
X92358000Y-55647115D01*
X92353525Y-55631876D01*
X92352135Y-55630671D01*
X92344452Y-55629000D01*
X90772115Y-55629000D01*
X90756876Y-55633475D01*
X90755671Y-55634865D01*
X90754000Y-55642548D01*
X90754000Y-56527384D01*
X90246000Y-56527384D01*
X90246000Y-55647115D01*
X90241525Y-55631876D01*
X90240135Y-55630671D01*
X90232452Y-55629000D01*
X88660116Y-55629000D01*
X88644877Y-55633475D01*
X88643672Y-55634865D01*
X88642001Y-55642548D01*
X88642001Y-55834595D01*
X54884532Y-55834595D01*
X55616242Y-55102885D01*
X88642000Y-55102885D01*
X88646475Y-55118124D01*
X88647865Y-55119329D01*
X88655548Y-55121000D01*
X90227885Y-55121000D01*
X90243124Y-55116525D01*
X90244329Y-55115135D01*
X90246000Y-55107452D01*
X90246000Y-55102885D01*
X90754000Y-55102885D01*
X90758475Y-55118124D01*
X90759865Y-55119329D01*
X90767548Y-55121000D01*
X92339884Y-55121000D01*
X92355123Y-55116525D01*
X92356328Y-55115135D01*
X92357999Y-55107452D01*
X92357999Y-54915405D01*
X92357662Y-54908886D01*
X92347743Y-54813294D01*
X92344851Y-54799900D01*
X92293412Y-54645716D01*
X92287239Y-54632538D01*
X92201937Y-54494693D01*
X92192901Y-54483292D01*
X92078171Y-54368761D01*
X92066760Y-54359749D01*
X91928757Y-54274684D01*
X91915576Y-54268537D01*
X91761290Y-54217362D01*
X91747914Y-54214495D01*
X91653562Y-54204828D01*
X91647145Y-54204500D01*
X90772115Y-54204500D01*
X90756876Y-54208975D01*
X90755671Y-54210365D01*
X90754000Y-54218048D01*
X90754000Y-55102885D01*
X90246000Y-55102885D01*
X90246000Y-54222616D01*
X90241525Y-54207377D01*
X90240135Y-54206172D01*
X90232452Y-54204501D01*
X89352905Y-54204501D01*
X89346386Y-54204838D01*
X89250794Y-54214757D01*
X89237400Y-54217649D01*
X89083216Y-54269088D01*
X89070038Y-54275261D01*
X88932193Y-54360563D01*
X88920792Y-54369599D01*
X88806261Y-54484329D01*
X88797249Y-54495740D01*
X88712184Y-54633743D01*
X88706037Y-54646924D01*
X88654862Y-54801210D01*
X88651995Y-54814586D01*
X88642328Y-54908938D01*
X88642000Y-54915355D01*
X88642000Y-55102885D01*
X55616242Y-55102885D01*
X60173722Y-50545405D01*
X60236034Y-50511379D01*
X60262817Y-50508500D01*
X95737183Y-50508500D01*
X95805304Y-50528502D01*
G37*
%TD.AperFunction*%
%TA.AperFunction,Conductor*%
G36*
X93791027Y-78653502D02*
G01*
X93812001Y-78670405D01*
X95229595Y-80088000D01*
X95263621Y-80150312D01*
X95266500Y-80177095D01*
X95266500Y-80850400D01*
X95266837Y-80853646D01*
X95266837Y-80853650D01*
X95273373Y-80916638D01*
X95277474Y-80956166D01*
X95333450Y-81123946D01*
X95426522Y-81274348D01*
X95551697Y-81399305D01*
X95555916Y-81401906D01*
X95596417Y-81459030D01*
X95599649Y-81529953D01*
X95564024Y-81591365D01*
X95556470Y-81597922D01*
X95550652Y-81601522D01*
X95425695Y-81726697D01*
X95421855Y-81732927D01*
X95421854Y-81732928D01*
X95356309Y-81839262D01*
X95332885Y-81877262D01*
X95326874Y-81895385D01*
X95284847Y-82022094D01*
X95277203Y-82045139D01*
X95266500Y-82149600D01*
X95266500Y-82925400D01*
X95277474Y-83031166D01*
X95333450Y-83198946D01*
X95426522Y-83349348D01*
X95551697Y-83474305D01*
X95557927Y-83478145D01*
X95557928Y-83478146D01*
X95695090Y-83562694D01*
X95702262Y-83567115D01*
X95716101Y-83571705D01*
X95863611Y-83620632D01*
X95863613Y-83620632D01*
X95870139Y-83622797D01*
X95876975Y-83623497D01*
X95876978Y-83623498D01*
X95918685Y-83627771D01*
X95974600Y-83633500D01*
X97025400Y-83633500D01*
X97028646Y-83633163D01*
X97028650Y-83633163D01*
X97124308Y-83623238D01*
X97124312Y-83623237D01*
X97131166Y-83622526D01*
X97137702Y-83620345D01*
X97137704Y-83620345D01*
X97283495Y-83571705D01*
X97298946Y-83566550D01*
X97449348Y-83473478D01*
X97574305Y-83348303D01*
X97578146Y-83342072D01*
X97663275Y-83203968D01*
X97663276Y-83203966D01*
X97667115Y-83197738D01*
X97669419Y-83190791D01*
X97672513Y-83184156D01*
X97674749Y-83185199D01*
X97708523Y-83136462D01*
X97774091Y-83109234D01*
X97787672Y-83108500D01*
X100015500Y-83108500D01*
X100083621Y-83128502D01*
X100130114Y-83182158D01*
X100141500Y-83234500D01*
X100141500Y-83373134D01*
X100148255Y-83435316D01*
X100199385Y-83571705D01*
X100286739Y-83688261D01*
X100403295Y-83775615D01*
X100411704Y-83778767D01*
X100411705Y-83778768D01*
X100520451Y-83819535D01*
X100577216Y-83862176D01*
X100601916Y-83928738D01*
X100586709Y-83998087D01*
X100567316Y-84024568D01*
X100440629Y-84157138D01*
X100314743Y-84341680D01*
X100289210Y-84396686D01*
X100247475Y-84486598D01*
X100220688Y-84544305D01*
X100160989Y-84759570D01*
X100137251Y-84981695D01*
X100137548Y-84986848D01*
X100137548Y-84986851D01*
X100143011Y-85081590D01*
X100150110Y-85204715D01*
X100151247Y-85209761D01*
X100151248Y-85209767D01*
X100183453Y-85352668D01*
X100178917Y-85423520D01*
X100149631Y-85469464D01*
X75987747Y-109631348D01*
X75979461Y-109638888D01*
X75972982Y-109643000D01*
X75967557Y-109648777D01*
X75926357Y-109692651D01*
X75923602Y-109695493D01*
X75903865Y-109715230D01*
X75901385Y-109718427D01*
X75893682Y-109727447D01*
X75863414Y-109759679D01*
X75859595Y-109766625D01*
X75859593Y-109766628D01*
X75853652Y-109777434D01*
X75842801Y-109793953D01*
X75830386Y-109809959D01*
X75827241Y-109817228D01*
X75827238Y-109817232D01*
X75812826Y-109850537D01*
X75807609Y-109861187D01*
X75786305Y-109899940D01*
X75784334Y-109907615D01*
X75784334Y-109907616D01*
X75781267Y-109919562D01*
X75774863Y-109938266D01*
X75766819Y-109956855D01*
X75765580Y-109964678D01*
X75765577Y-109964688D01*
X75759901Y-110000524D01*
X75757495Y-110012144D01*
X75746500Y-110054970D01*
X75746500Y-110075224D01*
X75744949Y-110094934D01*
X75741780Y-110114943D01*
X75742526Y-110122835D01*
X75745941Y-110158961D01*
X75746500Y-110170819D01*
X75746500Y-114721692D01*
X75726498Y-114789813D01*
X75678683Y-114833453D01*
X75653607Y-114846507D01*
X75649474Y-114849610D01*
X75649471Y-114849612D01*
X75479100Y-114977530D01*
X75474965Y-114980635D01*
X75435525Y-115021907D01*
X75343165Y-115118556D01*
X75320629Y-115142138D01*
X75213201Y-115299621D01*
X75158293Y-115344621D01*
X75087768Y-115352792D01*
X75024021Y-115321538D01*
X75003324Y-115297054D01*
X74922822Y-115172617D01*
X74922820Y-115172614D01*
X74920014Y-115168277D01*
X74769670Y-115003051D01*
X74765619Y-114999852D01*
X74765615Y-114999848D01*
X74598414Y-114867800D01*
X74598410Y-114867798D01*
X74594359Y-114864598D01*
X74589835Y-114862101D01*
X74589831Y-114862098D01*
X74538608Y-114833822D01*
X74488636Y-114783390D01*
X74473500Y-114723513D01*
X74473500Y-108474594D01*
X74493502Y-108406473D01*
X74510405Y-108385499D01*
X87037383Y-95858522D01*
X87099695Y-95824496D01*
X87170510Y-95829561D01*
X87178329Y-95832780D01*
X87294345Y-95885164D01*
X87294349Y-95885166D01*
X87298257Y-95886930D01*
X87302377Y-95888150D01*
X87302376Y-95888150D01*
X87556723Y-95963491D01*
X87556727Y-95963492D01*
X87560836Y-95964709D01*
X87565070Y-95965357D01*
X87565075Y-95965358D01*
X87827298Y-96005483D01*
X87827300Y-96005483D01*
X87831540Y-96006132D01*
X87970912Y-96008322D01*
X88101071Y-96010367D01*
X88101077Y-96010367D01*
X88105362Y-96010434D01*
X88377235Y-95977534D01*
X88642127Y-95908041D01*
X88646087Y-95906401D01*
X88646092Y-95906399D01*
X88781386Y-95850358D01*
X88895136Y-95803241D01*
X89131582Y-95665073D01*
X89347089Y-95496094D01*
X89537669Y-95299431D01*
X89540202Y-95295983D01*
X89540206Y-95295978D01*
X89697257Y-95082178D01*
X89699795Y-95078723D01*
X89701841Y-95074955D01*
X89828418Y-94841830D01*
X89828419Y-94841828D01*
X89830468Y-94838054D01*
X89878869Y-94709965D01*
X89925751Y-94585895D01*
X89925752Y-94585891D01*
X89927269Y-94581877D01*
X89988407Y-94314933D01*
X89994384Y-94247969D01*
X90012531Y-94044627D01*
X90012532Y-94044616D01*
X90012751Y-94042161D01*
X90013193Y-94000000D01*
X90008396Y-93929627D01*
X89994859Y-93731055D01*
X89994858Y-93731049D01*
X89994567Y-93726778D01*
X89939032Y-93458612D01*
X89847617Y-93200465D01*
X89722013Y-92957112D01*
X89712040Y-92942921D01*
X89567008Y-92736562D01*
X89564545Y-92733057D01*
X89454762Y-92614916D01*
X89381046Y-92535588D01*
X89381043Y-92535585D01*
X89378125Y-92532445D01*
X89374810Y-92529731D01*
X89374806Y-92529728D01*
X89178183Y-92368794D01*
X89166205Y-92358990D01*
X88932704Y-92215901D01*
X88920690Y-92210627D01*
X88685873Y-92107549D01*
X88685869Y-92107548D01*
X88681945Y-92105825D01*
X88418566Y-92030800D01*
X88414324Y-92030196D01*
X88414318Y-92030195D01*
X88213834Y-92001662D01*
X88147443Y-91992213D01*
X88003589Y-91991460D01*
X87877877Y-91990802D01*
X87877871Y-91990802D01*
X87873591Y-91990780D01*
X87869347Y-91991339D01*
X87869343Y-91991339D01*
X87750302Y-92007011D01*
X87602078Y-92026525D01*
X87597938Y-92027658D01*
X87597936Y-92027658D01*
X87571314Y-92034941D01*
X87337928Y-92098788D01*
X87333980Y-92100472D01*
X87089982Y-92204546D01*
X87089978Y-92204548D01*
X87086030Y-92206232D01*
X86991483Y-92262817D01*
X86854725Y-92344664D01*
X86854721Y-92344667D01*
X86851043Y-92346868D01*
X86637318Y-92518094D01*
X86448808Y-92716742D01*
X86289002Y-92939136D01*
X86160857Y-93181161D01*
X86159385Y-93185184D01*
X86159383Y-93185188D01*
X86102885Y-93339574D01*
X86066743Y-93438337D01*
X86008404Y-93705907D01*
X85986917Y-93978918D01*
X86002682Y-94252320D01*
X86003507Y-94256525D01*
X86003508Y-94256533D01*
X86024698Y-94364539D01*
X86055405Y-94521053D01*
X86056792Y-94525103D01*
X86056793Y-94525108D01*
X86125858Y-94726830D01*
X86144112Y-94780144D01*
X86146037Y-94783971D01*
X86146041Y-94783981D01*
X86163387Y-94818468D01*
X86176127Y-94888312D01*
X86149083Y-94953956D01*
X86139918Y-94964178D01*
X73447747Y-107656348D01*
X73439461Y-107663888D01*
X73432982Y-107668000D01*
X73427557Y-107673777D01*
X73386357Y-107717651D01*
X73383602Y-107720493D01*
X73363865Y-107740230D01*
X73361385Y-107743427D01*
X73353682Y-107752447D01*
X73323414Y-107784679D01*
X73319595Y-107791625D01*
X73319593Y-107791628D01*
X73313652Y-107802434D01*
X73302801Y-107818953D01*
X73290386Y-107834959D01*
X73287241Y-107842228D01*
X73287238Y-107842232D01*
X73272826Y-107875537D01*
X73267609Y-107886187D01*
X73246305Y-107924940D01*
X73244334Y-107932615D01*
X73244334Y-107932616D01*
X73241267Y-107944562D01*
X73234863Y-107963266D01*
X73226819Y-107981855D01*
X73225580Y-107989678D01*
X73225577Y-107989688D01*
X73219901Y-108025524D01*
X73217495Y-108037144D01*
X73206500Y-108079970D01*
X73206500Y-108100224D01*
X73204949Y-108119934D01*
X73201780Y-108139943D01*
X73202526Y-108147835D01*
X73205941Y-108183961D01*
X73206500Y-108195819D01*
X73206500Y-114721692D01*
X73186498Y-114789813D01*
X73138683Y-114833453D01*
X73113607Y-114846507D01*
X73109474Y-114849610D01*
X73109471Y-114849612D01*
X72939100Y-114977530D01*
X72934965Y-114980635D01*
X72895525Y-115021907D01*
X72803165Y-115118556D01*
X72780629Y-115142138D01*
X72673201Y-115299621D01*
X72618293Y-115344621D01*
X72547768Y-115352792D01*
X72484021Y-115321538D01*
X72463324Y-115297054D01*
X72382822Y-115172617D01*
X72382820Y-115172614D01*
X72380014Y-115168277D01*
X72229670Y-115003051D01*
X72225619Y-114999852D01*
X72225615Y-114999848D01*
X72058414Y-114867800D01*
X72058410Y-114867798D01*
X72054359Y-114864598D01*
X72049831Y-114862098D01*
X71933988Y-114798150D01*
X71858789Y-114756638D01*
X71853920Y-114754914D01*
X71853916Y-114754912D01*
X71653087Y-114683795D01*
X71653083Y-114683794D01*
X71648212Y-114682069D01*
X71643119Y-114681162D01*
X71643116Y-114681161D01*
X71433373Y-114643800D01*
X71433367Y-114643799D01*
X71428284Y-114642894D01*
X71354452Y-114641992D01*
X71210081Y-114640228D01*
X71210079Y-114640228D01*
X71204911Y-114640165D01*
X70984091Y-114673955D01*
X70771756Y-114743357D01*
X70741443Y-114759137D01*
X70597975Y-114833822D01*
X70573607Y-114846507D01*
X70569474Y-114849610D01*
X70569471Y-114849612D01*
X70399100Y-114977530D01*
X70394965Y-114980635D01*
X70355525Y-115021907D01*
X70263165Y-115118556D01*
X70240629Y-115142138D01*
X70237720Y-115146403D01*
X70237714Y-115146411D01*
X70125095Y-115311504D01*
X70070184Y-115356507D01*
X70021007Y-115366500D01*
X68918049Y-115366500D01*
X68849928Y-115346498D01*
X68803435Y-115292842D01*
X68793331Y-115222568D01*
X68797815Y-115202821D01*
X68820133Y-115131603D01*
X68822134Y-115125219D01*
X68828500Y-115055937D01*
X68828499Y-114554064D01*
X68828234Y-114551172D01*
X68822745Y-114491435D01*
X68822134Y-114484781D01*
X68773748Y-114330382D01*
X68689930Y-114191982D01*
X68670405Y-114172457D01*
X68636379Y-114110145D01*
X68633500Y-114083362D01*
X68633500Y-112110805D01*
X68653502Y-112042684D01*
X68711282Y-111994396D01*
X68713608Y-111993433D01*
X68895136Y-111918241D01*
X69131582Y-111780073D01*
X69347089Y-111611094D01*
X69388809Y-111568043D01*
X69534686Y-111417509D01*
X69537669Y-111414431D01*
X69540202Y-111410983D01*
X69540206Y-111410978D01*
X69697257Y-111197178D01*
X69699795Y-111193723D01*
X69701841Y-111189955D01*
X69828418Y-110956830D01*
X69828419Y-110956828D01*
X69830468Y-110953054D01*
X69885397Y-110807689D01*
X69925751Y-110700895D01*
X69925752Y-110700891D01*
X69927269Y-110696877D01*
X69988407Y-110429933D01*
X69994384Y-110362969D01*
X70012531Y-110159627D01*
X70012532Y-110159616D01*
X70012751Y-110157161D01*
X70013193Y-110115000D01*
X70012991Y-110112035D01*
X69994859Y-109846055D01*
X69994858Y-109846049D01*
X69994567Y-109841778D01*
X69939032Y-109573612D01*
X69847617Y-109315465D01*
X69845655Y-109311663D01*
X69845649Y-109311650D01*
X69838030Y-109296890D01*
X69824560Y-109227183D01*
X69850915Y-109161259D01*
X69860900Y-109150004D01*
X71392247Y-107618657D01*
X71400537Y-107611113D01*
X71407018Y-107607000D01*
X71453659Y-107557332D01*
X71456413Y-107554491D01*
X71476135Y-107534769D01*
X71478619Y-107531567D01*
X71486317Y-107522555D01*
X71511161Y-107496098D01*
X71516586Y-107490321D01*
X71526347Y-107472566D01*
X71537198Y-107456047D01*
X71549614Y-107440041D01*
X71567174Y-107399463D01*
X71572391Y-107388813D01*
X71593695Y-107350060D01*
X71598733Y-107330437D01*
X71605137Y-107311734D01*
X71610033Y-107300420D01*
X71610033Y-107300419D01*
X71613181Y-107293145D01*
X71614420Y-107285322D01*
X71614423Y-107285312D01*
X71620099Y-107249476D01*
X71622505Y-107237856D01*
X71631528Y-107202711D01*
X71631528Y-107202710D01*
X71633500Y-107195030D01*
X71633500Y-107174776D01*
X71635051Y-107155065D01*
X71636980Y-107142886D01*
X71638220Y-107135057D01*
X71634059Y-107091038D01*
X71633500Y-107079181D01*
X71633500Y-90219669D01*
X76592001Y-90219669D01*
X76592371Y-90226490D01*
X76597895Y-90277352D01*
X76601521Y-90292604D01*
X76646676Y-90413054D01*
X76655214Y-90428649D01*
X76731715Y-90530724D01*
X76744276Y-90543285D01*
X76846351Y-90619786D01*
X76861946Y-90628324D01*
X76982394Y-90673478D01*
X76997649Y-90677105D01*
X77048514Y-90682631D01*
X77055328Y-90683000D01*
X77727885Y-90683000D01*
X77743124Y-90678525D01*
X77744329Y-90677135D01*
X77746000Y-90669452D01*
X77746000Y-90664884D01*
X78254000Y-90664884D01*
X78258475Y-90680123D01*
X78259865Y-90681328D01*
X78267548Y-90682999D01*
X78944669Y-90682999D01*
X78951490Y-90682629D01*
X79002352Y-90677105D01*
X79017604Y-90673479D01*
X79138054Y-90628324D01*
X79153649Y-90619786D01*
X79255724Y-90543285D01*
X79268285Y-90530724D01*
X79344786Y-90428649D01*
X79353324Y-90413054D01*
X79398478Y-90292606D01*
X79402105Y-90277351D01*
X79407631Y-90226486D01*
X79408000Y-90219672D01*
X79408000Y-89547115D01*
X79403525Y-89531876D01*
X79402135Y-89530671D01*
X79394452Y-89529000D01*
X78272115Y-89529000D01*
X78256876Y-89533475D01*
X78255671Y-89534865D01*
X78254000Y-89542548D01*
X78254000Y-90664884D01*
X77746000Y-90664884D01*
X77746000Y-89547115D01*
X77741525Y-89531876D01*
X77740135Y-89530671D01*
X77732452Y-89529000D01*
X76610116Y-89529000D01*
X76594877Y-89533475D01*
X76593672Y-89534865D01*
X76592001Y-89542548D01*
X76592001Y-90219669D01*
X71633500Y-90219669D01*
X71633500Y-88078768D01*
X71634027Y-88067585D01*
X71635702Y-88060092D01*
X71635438Y-88051672D01*
X71633562Y-87992002D01*
X71633500Y-87988044D01*
X71633500Y-87960144D01*
X71632996Y-87956153D01*
X71632063Y-87944311D01*
X71630923Y-87908036D01*
X71630674Y-87900111D01*
X71628461Y-87892493D01*
X71625021Y-87880652D01*
X71621012Y-87861293D01*
X71620476Y-87857052D01*
X71618474Y-87841203D01*
X71615558Y-87833837D01*
X71615556Y-87833831D01*
X71602200Y-87800098D01*
X71598355Y-87788868D01*
X71588230Y-87754017D01*
X71588230Y-87754016D01*
X71586019Y-87746407D01*
X71575705Y-87728966D01*
X71567008Y-87711213D01*
X71562472Y-87699758D01*
X71559552Y-87692383D01*
X71533563Y-87656612D01*
X71527047Y-87646692D01*
X71508578Y-87615463D01*
X71504542Y-87608638D01*
X71490221Y-87594317D01*
X71477380Y-87579283D01*
X71470131Y-87569306D01*
X71465472Y-87562893D01*
X71431395Y-87534702D01*
X71422616Y-87526712D01*
X70365404Y-86469500D01*
X70331378Y-86407188D01*
X70328499Y-86380405D01*
X70328499Y-86266564D01*
X70327294Y-86253441D01*
X70324136Y-86219077D01*
X70322134Y-86197281D01*
X70318045Y-86184232D01*
X70276020Y-86050131D01*
X70276019Y-86050129D01*
X70273748Y-86042882D01*
X70269813Y-86036385D01*
X70269811Y-86036380D01*
X70238566Y-85984789D01*
X70220386Y-85916160D01*
X70238566Y-85854245D01*
X70269352Y-85803412D01*
X70275561Y-85789661D01*
X70319637Y-85649011D01*
X70322250Y-85635964D01*
X70326056Y-85594541D01*
X70323134Y-85579664D01*
X70311240Y-85576500D01*
X68690402Y-85576500D01*
X68675857Y-85580771D01*
X68673794Y-85592904D01*
X68677751Y-85635973D01*
X68680360Y-85649001D01*
X68693309Y-85690322D01*
X68694592Y-85761307D01*
X68657295Y-85821717D01*
X68593258Y-85852373D01*
X68573074Y-85854000D01*
X66931312Y-85854000D01*
X66863191Y-85833998D01*
X66816698Y-85780342D01*
X66806594Y-85710068D01*
X66808936Y-85699752D01*
X66808868Y-85699738D01*
X66810180Y-85693185D01*
X66812181Y-85686801D01*
X66818500Y-85618032D01*
X66818500Y-85086968D01*
X66815145Y-85050459D01*
X68673944Y-85050459D01*
X68676866Y-85065336D01*
X68688760Y-85068500D01*
X69227885Y-85068500D01*
X69243124Y-85064025D01*
X69244329Y-85062635D01*
X69246000Y-85054952D01*
X69246000Y-85050385D01*
X69754000Y-85050385D01*
X69758475Y-85065624D01*
X69759865Y-85066829D01*
X69767548Y-85068500D01*
X70309598Y-85068500D01*
X70324143Y-85064229D01*
X70326206Y-85052096D01*
X70322249Y-85009027D01*
X70319639Y-84995994D01*
X70275561Y-84855339D01*
X70269355Y-84841594D01*
X70193467Y-84716289D01*
X70184160Y-84704420D01*
X70080580Y-84600840D01*
X70068711Y-84591533D01*
X69943406Y-84515645D01*
X69929661Y-84509439D01*
X69789006Y-84465361D01*
X69775973Y-84462751D01*
X69772039Y-84462389D01*
X69757165Y-84465312D01*
X69754000Y-84477207D01*
X69754000Y-85050385D01*
X69246000Y-85050385D01*
X69246000Y-84478847D01*
X69241729Y-84464302D01*
X69229596Y-84462239D01*
X69224027Y-84462751D01*
X69210994Y-84465361D01*
X69070339Y-84509439D01*
X69056594Y-84515645D01*
X68931289Y-84591533D01*
X68919420Y-84600840D01*
X68815840Y-84704420D01*
X68806533Y-84716289D01*
X68730645Y-84841594D01*
X68724439Y-84855339D01*
X68680363Y-84995989D01*
X68677750Y-85009036D01*
X68673944Y-85050459D01*
X66815145Y-85050459D01*
X66812181Y-85018199D01*
X66764157Y-84864955D01*
X66680966Y-84727590D01*
X66670405Y-84717029D01*
X66636379Y-84654717D01*
X66633500Y-84627934D01*
X66633500Y-84396686D01*
X82182187Y-84396686D01*
X82182266Y-84398388D01*
X82187702Y-84457546D01*
X82190315Y-84470596D01*
X82234029Y-84610089D01*
X82240235Y-84623834D01*
X82315496Y-84748104D01*
X82324803Y-84759973D01*
X82427527Y-84862697D01*
X82439396Y-84872004D01*
X82563666Y-84947265D01*
X82577411Y-84953471D01*
X82716912Y-84997187D01*
X82728503Y-84999509D01*
X82742835Y-84996694D01*
X82746000Y-84984798D01*
X82746000Y-84983158D01*
X83254000Y-84983158D01*
X83258271Y-84997703D01*
X83270302Y-84999748D01*
X83283088Y-84997187D01*
X83422589Y-84953471D01*
X83436334Y-84947265D01*
X83560604Y-84872004D01*
X83572473Y-84862697D01*
X83675197Y-84759973D01*
X83684504Y-84748104D01*
X83759765Y-84623834D01*
X83765971Y-84610089D01*
X83809685Y-84470596D01*
X83812298Y-84457546D01*
X83814792Y-84430404D01*
X88173794Y-84430404D01*
X88177751Y-84473473D01*
X88180361Y-84486506D01*
X88224439Y-84627161D01*
X88230645Y-84640906D01*
X88306533Y-84766211D01*
X88315840Y-84778080D01*
X88419420Y-84881660D01*
X88431289Y-84890967D01*
X88556594Y-84966855D01*
X88570339Y-84973061D01*
X88710994Y-85017139D01*
X88724027Y-85019749D01*
X88727961Y-85020111D01*
X88742835Y-85017188D01*
X88746000Y-85005293D01*
X88746000Y-85003653D01*
X89254000Y-85003653D01*
X89258271Y-85018198D01*
X89270404Y-85020261D01*
X89275973Y-85019749D01*
X89289006Y-85017139D01*
X89429661Y-84973061D01*
X89443406Y-84966855D01*
X89568711Y-84890967D01*
X89580580Y-84881660D01*
X89684160Y-84778080D01*
X89693467Y-84766211D01*
X89769355Y-84640906D01*
X89775561Y-84627161D01*
X89819637Y-84486511D01*
X89822250Y-84473464D01*
X89826056Y-84432041D01*
X89823134Y-84417164D01*
X89811240Y-84414000D01*
X89272115Y-84414000D01*
X89256876Y-84418475D01*
X89255671Y-84419865D01*
X89254000Y-84427548D01*
X89254000Y-85003653D01*
X88746000Y-85003653D01*
X88746000Y-84432115D01*
X88741525Y-84416876D01*
X88740135Y-84415671D01*
X88732452Y-84414000D01*
X88190402Y-84414000D01*
X88175857Y-84418271D01*
X88173794Y-84430404D01*
X83814792Y-84430404D01*
X83817537Y-84400538D01*
X83813525Y-84386876D01*
X83812135Y-84385671D01*
X83804452Y-84384000D01*
X83272115Y-84384000D01*
X83256876Y-84388475D01*
X83255671Y-84389865D01*
X83254000Y-84397548D01*
X83254000Y-84983158D01*
X82746000Y-84983158D01*
X82746000Y-84402115D01*
X82741525Y-84386876D01*
X82740135Y-84385671D01*
X82732452Y-84384000D01*
X82200115Y-84384000D01*
X82184876Y-84388475D01*
X82183671Y-84389865D01*
X82182187Y-84396686D01*
X66633500Y-84396686D01*
X66633500Y-83819138D01*
X66653502Y-83751017D01*
X66670405Y-83730043D01*
X66689930Y-83710518D01*
X66773748Y-83572118D01*
X66776513Y-83563297D01*
X66813235Y-83446116D01*
X66822134Y-83417719D01*
X66828500Y-83348437D01*
X66828499Y-82846564D01*
X66828234Y-82843672D01*
X66824923Y-82807635D01*
X66822134Y-82777281D01*
X66802323Y-82714064D01*
X66797815Y-82699679D01*
X66796531Y-82628694D01*
X66833828Y-82568284D01*
X66897864Y-82537627D01*
X66918049Y-82536000D01*
X68581951Y-82536000D01*
X68650072Y-82556002D01*
X68696565Y-82609658D01*
X68706669Y-82679932D01*
X68702185Y-82699679D01*
X68677866Y-82777281D01*
X68671500Y-82846563D01*
X68671501Y-83348436D01*
X68671764Y-83351295D01*
X68671764Y-83351303D01*
X68672060Y-83354521D01*
X68677866Y-83417719D01*
X68679865Y-83424097D01*
X68679865Y-83424098D01*
X68723488Y-83563297D01*
X68726252Y-83572118D01*
X68810070Y-83710518D01*
X68924482Y-83824930D01*
X69062882Y-83908748D01*
X69070129Y-83911019D01*
X69070131Y-83911020D01*
X69126670Y-83928738D01*
X69217281Y-83957134D01*
X69286563Y-83963500D01*
X69289461Y-83963500D01*
X69500553Y-83963499D01*
X69713436Y-83963499D01*
X69716295Y-83963236D01*
X69716303Y-83963236D01*
X69750076Y-83960133D01*
X69782719Y-83957134D01*
X69846938Y-83937009D01*
X69929869Y-83911020D01*
X69929871Y-83911019D01*
X69937118Y-83908748D01*
X70075518Y-83824930D01*
X70107543Y-83792905D01*
X70169855Y-83758879D01*
X70196638Y-83756000D01*
X82057762Y-83756000D01*
X82125883Y-83776002D01*
X82172376Y-83829658D01*
X82178658Y-83846502D01*
X82186475Y-83873124D01*
X82187865Y-83874329D01*
X82195548Y-83876000D01*
X83799885Y-83876000D01*
X83815124Y-83871525D01*
X83816329Y-83870135D01*
X83817813Y-83863314D01*
X83817734Y-83861612D01*
X83811686Y-83795790D01*
X83813415Y-83795631D01*
X83818896Y-83733514D01*
X83862380Y-83677392D01*
X83936204Y-83653500D01*
X84090415Y-83653500D01*
X84158536Y-83673502D01*
X84204516Y-83726049D01*
X84206133Y-83729500D01*
X84208450Y-83736446D01*
X84301522Y-83886848D01*
X84426697Y-84011805D01*
X84432927Y-84015645D01*
X84432928Y-84015646D01*
X84570090Y-84100194D01*
X84577262Y-84104615D01*
X84657005Y-84131064D01*
X84738611Y-84158132D01*
X84738613Y-84158132D01*
X84745139Y-84160297D01*
X84751975Y-84160997D01*
X84751978Y-84160998D01*
X84795031Y-84165409D01*
X84849600Y-84171000D01*
X87150400Y-84171000D01*
X87153646Y-84170663D01*
X87153650Y-84170663D01*
X87249308Y-84160738D01*
X87249312Y-84160737D01*
X87256166Y-84160026D01*
X87262702Y-84157845D01*
X87262704Y-84157845D01*
X87394806Y-84113772D01*
X87423946Y-84104050D01*
X87574348Y-84010978D01*
X87699305Y-83885803D01*
X87706378Y-83874329D01*
X87788275Y-83741468D01*
X87788276Y-83741466D01*
X87792115Y-83735238D01*
X87793678Y-83730525D01*
X87839956Y-83677965D01*
X87907234Y-83658500D01*
X88063673Y-83658500D01*
X88131794Y-83678502D01*
X88178287Y-83732158D01*
X88188391Y-83802432D01*
X88183907Y-83822179D01*
X88180363Y-83833489D01*
X88177750Y-83846536D01*
X88173944Y-83887959D01*
X88176866Y-83902836D01*
X88188760Y-83906000D01*
X89809598Y-83906000D01*
X89824143Y-83901729D01*
X89826206Y-83889596D01*
X89822249Y-83846527D01*
X89819639Y-83833493D01*
X89805125Y-83787179D01*
X89803841Y-83716194D01*
X89841138Y-83655783D01*
X89905175Y-83625127D01*
X89925359Y-83623500D01*
X90074117Y-83623500D01*
X90142238Y-83643502D01*
X90188731Y-83697158D01*
X90198835Y-83767432D01*
X90194353Y-83787171D01*
X90177866Y-83839781D01*
X90171500Y-83909063D01*
X90171501Y-84410936D01*
X90171764Y-84413795D01*
X90171764Y-84413803D01*
X90173440Y-84432041D01*
X90177866Y-84480219D01*
X90226252Y-84634618D01*
X90230190Y-84641120D01*
X90230337Y-84641446D01*
X90241500Y-84693297D01*
X90241500Y-85633629D01*
X90221498Y-85701750D01*
X90204595Y-85722724D01*
X88722724Y-87204595D01*
X88660412Y-87238621D01*
X88633629Y-87241500D01*
X87772120Y-87241500D01*
X87703999Y-87221498D01*
X87657506Y-87167842D01*
X87647402Y-87097568D01*
X87676896Y-87032988D01*
X87682947Y-87026483D01*
X87693735Y-87015676D01*
X87702751Y-87004260D01*
X87787816Y-86866257D01*
X87793963Y-86853076D01*
X87845138Y-86698790D01*
X87848005Y-86685414D01*
X87857672Y-86591062D01*
X87858000Y-86584646D01*
X87858000Y-86397115D01*
X87853525Y-86381876D01*
X87852135Y-86380671D01*
X87844452Y-86379000D01*
X84160116Y-86379000D01*
X84144877Y-86383475D01*
X84143672Y-86384865D01*
X84142001Y-86392548D01*
X84142001Y-86584595D01*
X84142338Y-86591114D01*
X84152257Y-86686706D01*
X84155149Y-86700100D01*
X84206588Y-86854284D01*
X84212761Y-86867462D01*
X84298063Y-87005307D01*
X84307099Y-87016708D01*
X84316734Y-87026326D01*
X84350814Y-87088609D01*
X84345811Y-87159429D01*
X84303315Y-87216302D01*
X84236816Y-87241171D01*
X84227717Y-87241500D01*
X83949557Y-87241500D01*
X83881436Y-87221498D01*
X83834943Y-87167842D01*
X83824086Y-87103970D01*
X83828500Y-87055937D01*
X83828499Y-86554064D01*
X83822134Y-86484781D01*
X83802997Y-86423715D01*
X83776020Y-86337631D01*
X83776019Y-86337629D01*
X83773748Y-86330382D01*
X83689930Y-86191982D01*
X83575518Y-86077570D01*
X83437118Y-85993752D01*
X83429871Y-85991481D01*
X83429869Y-85991480D01*
X83367715Y-85972002D01*
X83282719Y-85945366D01*
X83213437Y-85939000D01*
X83210539Y-85939000D01*
X82999447Y-85939001D01*
X82786564Y-85939001D01*
X82783705Y-85939264D01*
X82783697Y-85939264D01*
X82749924Y-85942367D01*
X82717281Y-85945366D01*
X82710903Y-85947365D01*
X82710902Y-85947365D01*
X82570131Y-85991480D01*
X82570129Y-85991481D01*
X82562882Y-85993752D01*
X82556385Y-85997687D01*
X82430983Y-86073633D01*
X82424482Y-86077570D01*
X82424070Y-86076890D01*
X82363733Y-86100946D01*
X82351934Y-86101500D01*
X79336359Y-86101500D01*
X79268238Y-86081498D01*
X79230567Y-86043940D01*
X79202112Y-85999955D01*
X79119764Y-85872665D01*
X79112913Y-85865135D01*
X79101766Y-85852885D01*
X84142000Y-85852885D01*
X84146475Y-85868124D01*
X84147865Y-85869329D01*
X84155548Y-85871000D01*
X85727885Y-85871000D01*
X85743124Y-85866525D01*
X85744329Y-85865135D01*
X85746000Y-85857452D01*
X85746000Y-85852885D01*
X86254000Y-85852885D01*
X86258475Y-85868124D01*
X86259865Y-85869329D01*
X86267548Y-85871000D01*
X87839884Y-85871000D01*
X87855123Y-85866525D01*
X87856328Y-85865135D01*
X87857999Y-85857452D01*
X87857999Y-85665405D01*
X87857662Y-85658886D01*
X87847743Y-85563294D01*
X87844851Y-85549900D01*
X87793412Y-85395716D01*
X87787239Y-85382538D01*
X87701937Y-85244693D01*
X87692901Y-85233292D01*
X87578171Y-85118761D01*
X87566760Y-85109749D01*
X87428757Y-85024684D01*
X87415576Y-85018537D01*
X87261290Y-84967362D01*
X87247914Y-84964495D01*
X87153562Y-84954828D01*
X87147145Y-84954500D01*
X86272115Y-84954500D01*
X86256876Y-84958975D01*
X86255671Y-84960365D01*
X86254000Y-84968048D01*
X86254000Y-85852885D01*
X85746000Y-85852885D01*
X85746000Y-84972616D01*
X85741525Y-84957377D01*
X85740135Y-84956172D01*
X85732452Y-84954501D01*
X84852905Y-84954501D01*
X84846386Y-84954838D01*
X84750794Y-84964757D01*
X84737400Y-84967649D01*
X84583216Y-85019088D01*
X84570038Y-85025261D01*
X84432193Y-85110563D01*
X84420792Y-85119599D01*
X84306261Y-85234329D01*
X84297249Y-85245740D01*
X84212184Y-85383743D01*
X84206037Y-85396924D01*
X84154862Y-85551210D01*
X84151995Y-85564586D01*
X84142328Y-85658938D01*
X84142000Y-85665355D01*
X84142000Y-85852885D01*
X79101766Y-85852885D01*
X79056749Y-85803412D01*
X78963887Y-85701358D01*
X78959836Y-85698159D01*
X78959832Y-85698155D01*
X78786177Y-85561011D01*
X78786172Y-85561008D01*
X78782123Y-85557810D01*
X78777607Y-85555317D01*
X78777604Y-85555315D01*
X78583879Y-85448373D01*
X78583875Y-85448371D01*
X78579355Y-85445876D01*
X78574486Y-85444152D01*
X78574482Y-85444150D01*
X78365903Y-85370288D01*
X78365899Y-85370287D01*
X78361028Y-85368562D01*
X78355935Y-85367655D01*
X78355932Y-85367654D01*
X78138095Y-85328851D01*
X78138089Y-85328850D01*
X78133006Y-85327945D01*
X78060096Y-85327054D01*
X77906581Y-85325179D01*
X77906579Y-85325179D01*
X77901411Y-85325116D01*
X77672464Y-85360150D01*
X77452314Y-85432106D01*
X77447726Y-85434494D01*
X77447722Y-85434496D01*
X77280679Y-85521453D01*
X77246872Y-85539052D01*
X77242739Y-85542155D01*
X77242736Y-85542157D01*
X77065790Y-85675012D01*
X77061655Y-85678117D01*
X76901639Y-85845564D01*
X76898725Y-85849836D01*
X76898724Y-85849837D01*
X76884288Y-85871000D01*
X76771119Y-86036899D01*
X76673602Y-86246981D01*
X76611707Y-86470169D01*
X76587095Y-86700469D01*
X76587392Y-86705622D01*
X76587392Y-86705625D01*
X76596654Y-86866257D01*
X76600427Y-86931697D01*
X76601564Y-86936743D01*
X76601565Y-86936749D01*
X76621788Y-87026483D01*
X76651346Y-87157642D01*
X76653288Y-87162424D01*
X76653289Y-87162428D01*
X76724543Y-87337905D01*
X76738484Y-87372237D01*
X76859501Y-87569719D01*
X76888355Y-87603029D01*
X76971653Y-87699191D01*
X77001135Y-87763776D01*
X76991020Y-87834049D01*
X76944519Y-87887697D01*
X76920646Y-87899670D01*
X76861944Y-87921677D01*
X76846351Y-87930214D01*
X76744276Y-88006715D01*
X76731715Y-88019276D01*
X76655214Y-88121351D01*
X76646676Y-88136946D01*
X76601522Y-88257394D01*
X76597895Y-88272649D01*
X76592369Y-88323514D01*
X76592000Y-88330328D01*
X76592000Y-89002885D01*
X76596475Y-89018124D01*
X76597865Y-89019329D01*
X76605548Y-89021000D01*
X79389884Y-89021000D01*
X79405123Y-89016525D01*
X79406328Y-89015135D01*
X79407999Y-89007452D01*
X79407999Y-88330331D01*
X79407629Y-88323510D01*
X79402105Y-88272648D01*
X79398479Y-88257396D01*
X79353324Y-88136946D01*
X79344786Y-88121351D01*
X79268285Y-88019276D01*
X79255724Y-88006715D01*
X79153649Y-87930214D01*
X79138052Y-87921675D01*
X79079415Y-87899693D01*
X79022650Y-87857052D01*
X78997950Y-87790490D01*
X79013157Y-87721141D01*
X79034703Y-87692461D01*
X79072641Y-87654654D01*
X79076303Y-87651005D01*
X79211458Y-87462917D01*
X79223440Y-87438672D01*
X79271553Y-87386466D01*
X79336397Y-87368500D01*
X82103888Y-87368500D01*
X82172009Y-87388502D01*
X82218502Y-87442158D01*
X82228606Y-87512432D01*
X82224122Y-87532178D01*
X82177866Y-87679781D01*
X82171500Y-87749063D01*
X82171501Y-88250936D01*
X82171764Y-88253795D01*
X82171764Y-88253803D01*
X82173496Y-88272649D01*
X82177866Y-88320219D01*
X82226252Y-88474618D01*
X82230190Y-88481120D01*
X82230337Y-88481446D01*
X82241500Y-88533297D01*
X82241500Y-90963001D01*
X82224619Y-91026000D01*
X82165473Y-91128444D01*
X82106458Y-91310072D01*
X82086496Y-91500000D01*
X82106458Y-91689928D01*
X82165473Y-91871556D01*
X82260960Y-92036944D01*
X82265378Y-92041851D01*
X82265379Y-92041852D01*
X82321923Y-92104650D01*
X82388747Y-92178866D01*
X82543248Y-92291118D01*
X82549276Y-92293802D01*
X82549278Y-92293803D01*
X82711681Y-92366109D01*
X82717712Y-92368794D01*
X82811113Y-92388647D01*
X82898056Y-92407128D01*
X82898061Y-92407128D01*
X82904513Y-92408500D01*
X83095487Y-92408500D01*
X83101939Y-92407128D01*
X83101944Y-92407128D01*
X83188887Y-92388647D01*
X83282288Y-92368794D01*
X83288319Y-92366109D01*
X83450722Y-92293803D01*
X83450724Y-92293802D01*
X83456752Y-92291118D01*
X83611253Y-92178866D01*
X83678077Y-92104650D01*
X83734621Y-92041852D01*
X83734622Y-92041851D01*
X83739040Y-92036944D01*
X83834527Y-91871556D01*
X83893542Y-91689928D01*
X83913504Y-91500000D01*
X83893542Y-91310072D01*
X83834527Y-91128444D01*
X83775381Y-91026000D01*
X83758500Y-90963001D01*
X83758500Y-88884500D01*
X83778502Y-88816379D01*
X83832158Y-88769886D01*
X83884500Y-88758500D01*
X88932930Y-88758500D01*
X88951880Y-88759933D01*
X88966115Y-88762099D01*
X88966119Y-88762099D01*
X88973349Y-88763199D01*
X88980641Y-88762606D01*
X88980644Y-88762606D01*
X89026018Y-88758915D01*
X89036233Y-88758500D01*
X89044293Y-88758500D01*
X89057583Y-88756951D01*
X89072507Y-88755211D01*
X89076882Y-88754778D01*
X89142339Y-88749454D01*
X89142342Y-88749453D01*
X89149637Y-88748860D01*
X89156601Y-88746604D01*
X89162560Y-88745413D01*
X89168415Y-88744029D01*
X89175681Y-88743182D01*
X89244327Y-88718265D01*
X89248455Y-88716848D01*
X89310936Y-88696607D01*
X89310938Y-88696606D01*
X89317899Y-88694351D01*
X89324154Y-88690555D01*
X89329628Y-88688049D01*
X89335058Y-88685330D01*
X89341937Y-88682833D01*
X89402976Y-88642814D01*
X89406680Y-88640477D01*
X89469107Y-88602595D01*
X89477484Y-88595197D01*
X89477508Y-88595224D01*
X89480500Y-88592571D01*
X89483733Y-88589868D01*
X89489852Y-88585856D01*
X89543128Y-88529617D01*
X89545506Y-88527175D01*
X91488911Y-86583770D01*
X91503323Y-86571384D01*
X91514918Y-86562851D01*
X91514923Y-86562846D01*
X91520818Y-86558508D01*
X91525557Y-86552930D01*
X91525560Y-86552927D01*
X91555035Y-86518232D01*
X91561965Y-86510716D01*
X91567660Y-86505021D01*
X91585281Y-86482749D01*
X91588072Y-86479345D01*
X91630591Y-86429297D01*
X91630592Y-86429295D01*
X91635333Y-86423715D01*
X91638661Y-86417199D01*
X91642028Y-86412150D01*
X91645195Y-86407021D01*
X91649734Y-86401284D01*
X91680655Y-86335125D01*
X91682561Y-86331225D01*
X91715769Y-86266192D01*
X91717508Y-86259084D01*
X91719607Y-86253441D01*
X91721524Y-86247678D01*
X91724622Y-86241050D01*
X91739487Y-86169583D01*
X91740457Y-86165299D01*
X91756473Y-86099845D01*
X91757808Y-86094390D01*
X91758500Y-86083236D01*
X91758536Y-86083238D01*
X91758775Y-86079245D01*
X91759149Y-86075053D01*
X91760640Y-86067885D01*
X91758546Y-85990479D01*
X91758500Y-85987072D01*
X91758500Y-84693297D01*
X91769663Y-84641446D01*
X91769810Y-84641120D01*
X91773748Y-84634618D01*
X91822134Y-84480219D01*
X91828500Y-84410937D01*
X91828499Y-83909064D01*
X91828234Y-83906172D01*
X91824923Y-83870135D01*
X91822134Y-83839781D01*
X91815665Y-83819138D01*
X91776020Y-83692631D01*
X91776019Y-83692629D01*
X91773748Y-83685382D01*
X91769813Y-83678884D01*
X91738858Y-83627771D01*
X91720679Y-83559141D01*
X91738858Y-83497229D01*
X91769813Y-83446116D01*
X91769814Y-83446114D01*
X91773748Y-83439618D01*
X91783627Y-83408096D01*
X91800741Y-83353483D01*
X91822134Y-83285219D01*
X91828500Y-83215937D01*
X91828499Y-82714064D01*
X91827178Y-82699679D01*
X91822745Y-82651435D01*
X91822134Y-82644781D01*
X91797217Y-82565271D01*
X91776020Y-82497631D01*
X91776019Y-82497629D01*
X91773748Y-82490382D01*
X91689930Y-82351982D01*
X91575518Y-82237570D01*
X91437118Y-82153752D01*
X91429871Y-82151481D01*
X91429869Y-82151480D01*
X91333899Y-82121405D01*
X91282719Y-82105366D01*
X91213437Y-82099000D01*
X91210539Y-82099000D01*
X90999447Y-82099001D01*
X90786564Y-82099001D01*
X90783705Y-82099264D01*
X90783697Y-82099264D01*
X90749924Y-82102367D01*
X90717281Y-82105366D01*
X90710903Y-82107365D01*
X90710902Y-82107365D01*
X90570131Y-82151480D01*
X90570129Y-82151481D01*
X90562882Y-82153752D01*
X90424482Y-82237570D01*
X90392457Y-82269595D01*
X90330145Y-82303621D01*
X90303362Y-82306500D01*
X89696638Y-82306500D01*
X89628517Y-82286498D01*
X89607543Y-82269595D01*
X89575518Y-82237570D01*
X89437118Y-82153752D01*
X89429871Y-82151481D01*
X89429869Y-82151480D01*
X89333899Y-82121405D01*
X89282719Y-82105366D01*
X89213437Y-82099000D01*
X89210539Y-82099000D01*
X88999447Y-82099001D01*
X88786564Y-82099001D01*
X88783705Y-82099264D01*
X88783697Y-82099264D01*
X88749924Y-82102367D01*
X88717281Y-82105366D01*
X88710903Y-82107365D01*
X88710902Y-82107365D01*
X88570131Y-82151480D01*
X88570129Y-82151481D01*
X88562882Y-82153752D01*
X88424482Y-82237570D01*
X88357457Y-82304595D01*
X88295145Y-82338621D01*
X88268362Y-82341500D01*
X87907243Y-82341500D01*
X87839122Y-82321498D01*
X87793479Y-82269336D01*
X87791550Y-82263554D01*
X87787701Y-82257334D01*
X87787699Y-82257330D01*
X87702332Y-82119380D01*
X87698478Y-82113152D01*
X87573303Y-81988195D01*
X87517785Y-81953973D01*
X87428968Y-81899225D01*
X87428966Y-81899224D01*
X87422738Y-81895385D01*
X87262254Y-81842155D01*
X87261389Y-81841868D01*
X87261387Y-81841868D01*
X87254861Y-81839703D01*
X87248025Y-81839003D01*
X87248022Y-81839002D01*
X87204969Y-81834591D01*
X87150400Y-81829000D01*
X84849600Y-81829000D01*
X84846354Y-81829337D01*
X84846350Y-81829337D01*
X84750692Y-81839262D01*
X84750688Y-81839263D01*
X84743834Y-81839974D01*
X84737298Y-81842155D01*
X84737296Y-81842155D01*
X84611246Y-81884209D01*
X84576054Y-81895950D01*
X84425652Y-81989022D01*
X84300695Y-82114197D01*
X84207885Y-82264762D01*
X84207574Y-82265700D01*
X84162380Y-82317032D01*
X84095098Y-82336500D01*
X83898950Y-82336500D01*
X83830829Y-82316498D01*
X83784336Y-82262842D01*
X83774232Y-82192568D01*
X83803726Y-82127988D01*
X83809855Y-82121405D01*
X85925854Y-80005405D01*
X85988166Y-79971380D01*
X86014949Y-79968500D01*
X86357725Y-79968500D01*
X86425846Y-79988502D01*
X86458551Y-80018935D01*
X86536739Y-80123261D01*
X86653295Y-80210615D01*
X86789684Y-80261745D01*
X86851866Y-80268500D01*
X88148134Y-80268500D01*
X88210316Y-80261745D01*
X88346705Y-80210615D01*
X88463261Y-80123261D01*
X88541449Y-80018935D01*
X88598308Y-79976420D01*
X88642275Y-79968500D01*
X90357725Y-79968500D01*
X90425846Y-79988502D01*
X90458551Y-80018935D01*
X90536739Y-80123261D01*
X90653295Y-80210615D01*
X90789684Y-80261745D01*
X90851866Y-80268500D01*
X92148134Y-80268500D01*
X92210316Y-80261745D01*
X92346705Y-80210615D01*
X92463261Y-80123261D01*
X92550615Y-80006705D01*
X92601745Y-79870316D01*
X92608500Y-79808134D01*
X92608500Y-78811866D01*
X92608132Y-78808474D01*
X92608131Y-78808464D01*
X92604290Y-78773106D01*
X92616819Y-78703224D01*
X92665140Y-78651209D01*
X92729553Y-78633500D01*
X93722906Y-78633500D01*
X93791027Y-78653502D01*
G37*
%TD.AperFunction*%
%TA.AperFunction,Conductor*%
G36*
X87236604Y-63153502D02*
G01*
X87283097Y-63207158D01*
X87293201Y-63277432D01*
X87278036Y-63321743D01*
X87277663Y-63322399D01*
X87274743Y-63326680D01*
X87272565Y-63331373D01*
X87272564Y-63331374D01*
X87188411Y-63512668D01*
X87180688Y-63529305D01*
X87120989Y-63744570D01*
X87097251Y-63966695D01*
X87097548Y-63971848D01*
X87097548Y-63971851D01*
X87103167Y-64069306D01*
X87110110Y-64189715D01*
X87111247Y-64194761D01*
X87111248Y-64194767D01*
X87118957Y-64228972D01*
X87159222Y-64407639D01*
X87192682Y-64490042D01*
X87223894Y-64566907D01*
X87243266Y-64614616D01*
X87245965Y-64619020D01*
X87311216Y-64725500D01*
X87359987Y-64805088D01*
X87506250Y-64973938D01*
X87678126Y-65116632D01*
X87682593Y-65119242D01*
X87764070Y-65166853D01*
X87812794Y-65218491D01*
X87826500Y-65275641D01*
X87826500Y-67095500D01*
X87806498Y-67163621D01*
X87752842Y-67210114D01*
X87700500Y-67221500D01*
X87561866Y-67221500D01*
X87499684Y-67228255D01*
X87363295Y-67279385D01*
X87246739Y-67366739D01*
X87159385Y-67483295D01*
X87108255Y-67619684D01*
X87101500Y-67681866D01*
X87101500Y-69478134D01*
X87108255Y-69540316D01*
X87159385Y-69676705D01*
X87246739Y-69793261D01*
X87363295Y-69880615D01*
X87499684Y-69931745D01*
X87561866Y-69938500D01*
X87700500Y-69938500D01*
X87768621Y-69958502D01*
X87815114Y-70012158D01*
X87826500Y-70064500D01*
X87826500Y-71765500D01*
X87806498Y-71833621D01*
X87752842Y-71880114D01*
X87700500Y-71891500D01*
X87351866Y-71891500D01*
X87289684Y-71898255D01*
X87153295Y-71949385D01*
X87036739Y-72036739D01*
X86949385Y-72153295D01*
X86898255Y-72289684D01*
X86891500Y-72351866D01*
X86891500Y-73648134D01*
X86898255Y-73710316D01*
X86949385Y-73846705D01*
X87036739Y-73963261D01*
X87153295Y-74050615D01*
X87153951Y-74050861D01*
X87201157Y-74098175D01*
X87216500Y-74158433D01*
X87216500Y-74925500D01*
X87196498Y-74993621D01*
X87142842Y-75040114D01*
X87090500Y-75051500D01*
X86851866Y-75051500D01*
X86789684Y-75058255D01*
X86653295Y-75109385D01*
X86536739Y-75196739D01*
X86449385Y-75313295D01*
X86398255Y-75449684D01*
X86391500Y-75511866D01*
X86391500Y-76191405D01*
X86371498Y-76259526D01*
X86317842Y-76306019D01*
X86247568Y-76316123D01*
X86182988Y-76286629D01*
X86176404Y-76280500D01*
X85945687Y-76049782D01*
X85670404Y-75774499D01*
X85636379Y-75712187D01*
X85633500Y-75685404D01*
X85633500Y-71078763D01*
X85634027Y-71067579D01*
X85635701Y-71060091D01*
X85633562Y-70992032D01*
X85633500Y-70988075D01*
X85633500Y-70960144D01*
X85632994Y-70956138D01*
X85632061Y-70944292D01*
X85630952Y-70908975D01*
X85630673Y-70900110D01*
X85625022Y-70880658D01*
X85621014Y-70861306D01*
X85619467Y-70849063D01*
X85618474Y-70841203D01*
X85615556Y-70833832D01*
X85602200Y-70800097D01*
X85598355Y-70788870D01*
X85597721Y-70786687D01*
X85586018Y-70746407D01*
X85581984Y-70739585D01*
X85581981Y-70739579D01*
X85575706Y-70728968D01*
X85567010Y-70711218D01*
X85562472Y-70699756D01*
X85562469Y-70699751D01*
X85559552Y-70692383D01*
X85533573Y-70656625D01*
X85527057Y-70646707D01*
X85508575Y-70615457D01*
X85504542Y-70608637D01*
X85490218Y-70594313D01*
X85477376Y-70579278D01*
X85465472Y-70562893D01*
X85431406Y-70534711D01*
X85422627Y-70526722D01*
X84003652Y-69107747D01*
X83996112Y-69099461D01*
X83992000Y-69092982D01*
X83974829Y-69076857D01*
X83942349Y-69046357D01*
X83939507Y-69043602D01*
X83919770Y-69023865D01*
X83916573Y-69021385D01*
X83907551Y-69013680D01*
X83881100Y-68988841D01*
X83875321Y-68983414D01*
X83868375Y-68979595D01*
X83868372Y-68979593D01*
X83857566Y-68973652D01*
X83841047Y-68962801D01*
X83840583Y-68962441D01*
X83825041Y-68950386D01*
X83817772Y-68947241D01*
X83817768Y-68947238D01*
X83784463Y-68932826D01*
X83773813Y-68927609D01*
X83735060Y-68906305D01*
X83715437Y-68901267D01*
X83696734Y-68894863D01*
X83685420Y-68889967D01*
X83685419Y-68889967D01*
X83678145Y-68886819D01*
X83670322Y-68885580D01*
X83670312Y-68885577D01*
X83634476Y-68879901D01*
X83622856Y-68877495D01*
X83587711Y-68868472D01*
X83587710Y-68868472D01*
X83580030Y-68866500D01*
X83559776Y-68866500D01*
X83540065Y-68864949D01*
X83527886Y-68863020D01*
X83520057Y-68861780D01*
X83512165Y-68862526D01*
X83476039Y-68865941D01*
X83464181Y-68866500D01*
X81224566Y-68866500D01*
X81156445Y-68846498D01*
X81135471Y-68829595D01*
X81067410Y-68761534D01*
X80930045Y-68678343D01*
X80922798Y-68676072D01*
X80922796Y-68676071D01*
X80839309Y-68649908D01*
X80776801Y-68630319D01*
X80708032Y-68624000D01*
X80291968Y-68624000D01*
X80223199Y-68630319D01*
X80160691Y-68649908D01*
X80077204Y-68676071D01*
X80077202Y-68676072D01*
X80069955Y-68678343D01*
X79932590Y-68761534D01*
X79819034Y-68875090D01*
X79735843Y-69012455D01*
X79733572Y-69019702D01*
X79733571Y-69019704D01*
X79726082Y-69043602D01*
X79687819Y-69165699D01*
X79681500Y-69234468D01*
X79681500Y-69370406D01*
X79661498Y-69438527D01*
X79644595Y-69459501D01*
X78865629Y-70238466D01*
X78107747Y-70996348D01*
X78099461Y-71003888D01*
X78092982Y-71008000D01*
X78087557Y-71013777D01*
X78046357Y-71057651D01*
X78043602Y-71060493D01*
X78023865Y-71080230D01*
X78021385Y-71083427D01*
X78013682Y-71092447D01*
X77983414Y-71124679D01*
X77979595Y-71131625D01*
X77979593Y-71131628D01*
X77973652Y-71142434D01*
X77962801Y-71158953D01*
X77950386Y-71174959D01*
X77947241Y-71182228D01*
X77947238Y-71182232D01*
X77932826Y-71215537D01*
X77927609Y-71226187D01*
X77906305Y-71264940D01*
X77904334Y-71272615D01*
X77904334Y-71272616D01*
X77901267Y-71284562D01*
X77894863Y-71303266D01*
X77886819Y-71321855D01*
X77885580Y-71329678D01*
X77885577Y-71329688D01*
X77879901Y-71365524D01*
X77877495Y-71377144D01*
X77866500Y-71419970D01*
X77866500Y-71440224D01*
X77864949Y-71459934D01*
X77861780Y-71479943D01*
X77862526Y-71487835D01*
X77865941Y-71523961D01*
X77866500Y-71535819D01*
X77866500Y-79171233D01*
X77865973Y-79182416D01*
X77864298Y-79189909D01*
X77864547Y-79197835D01*
X77864547Y-79197836D01*
X77866438Y-79257986D01*
X77866500Y-79261945D01*
X77866500Y-79289856D01*
X77866997Y-79293790D01*
X77866997Y-79293791D01*
X77867005Y-79293856D01*
X77867938Y-79305693D01*
X77869327Y-79349889D01*
X77874978Y-79369339D01*
X77878987Y-79388700D01*
X77881526Y-79408797D01*
X77884445Y-79416168D01*
X77884445Y-79416170D01*
X77897804Y-79449912D01*
X77901649Y-79461142D01*
X77902334Y-79463499D01*
X77913982Y-79503593D01*
X77918015Y-79510412D01*
X77918017Y-79510417D01*
X77924293Y-79521028D01*
X77932988Y-79538776D01*
X77940448Y-79557617D01*
X77945110Y-79564033D01*
X77945110Y-79564034D01*
X77966436Y-79593387D01*
X77972952Y-79603307D01*
X77995458Y-79641362D01*
X78009779Y-79655683D01*
X78022619Y-79670716D01*
X78034528Y-79687107D01*
X78053087Y-79702460D01*
X78068593Y-79715288D01*
X78077374Y-79723278D01*
X78651353Y-80297258D01*
X78658887Y-80305537D01*
X78663000Y-80312018D01*
X78712651Y-80358643D01*
X78715493Y-80361398D01*
X78735230Y-80381135D01*
X78738427Y-80383615D01*
X78747447Y-80391318D01*
X78779679Y-80421586D01*
X78786625Y-80425405D01*
X78786628Y-80425407D01*
X78797434Y-80431348D01*
X78813953Y-80442199D01*
X78829959Y-80454614D01*
X78837228Y-80457759D01*
X78837232Y-80457762D01*
X78870537Y-80472174D01*
X78881187Y-80477391D01*
X78919940Y-80498695D01*
X78927615Y-80500666D01*
X78927616Y-80500666D01*
X78939562Y-80503733D01*
X78958267Y-80510137D01*
X78976855Y-80518181D01*
X78984678Y-80519420D01*
X78984688Y-80519423D01*
X79020524Y-80525099D01*
X79032144Y-80527505D01*
X79067289Y-80536528D01*
X79074970Y-80538500D01*
X79095224Y-80538500D01*
X79114934Y-80540051D01*
X79134943Y-80543220D01*
X79142835Y-80542474D01*
X79150758Y-80542723D01*
X79150708Y-80544323D01*
X79211413Y-80556082D01*
X79230509Y-80570040D01*
X79231325Y-80568989D01*
X79237584Y-80573844D01*
X79243193Y-80579453D01*
X79250017Y-80583489D01*
X79250020Y-80583491D01*
X79357589Y-80647107D01*
X79386399Y-80664145D01*
X79394010Y-80666356D01*
X79394012Y-80666357D01*
X79405237Y-80669618D01*
X79546169Y-80710562D01*
X79552574Y-80711066D01*
X79552579Y-80711067D01*
X79581042Y-80713307D01*
X79581050Y-80713307D01*
X79583498Y-80713500D01*
X81366502Y-80713500D01*
X81368950Y-80713307D01*
X81368958Y-80713307D01*
X81397421Y-80711067D01*
X81397426Y-80711066D01*
X81403831Y-80710562D01*
X81544763Y-80669618D01*
X81555988Y-80666357D01*
X81555990Y-80666356D01*
X81563601Y-80664145D01*
X81592411Y-80647107D01*
X81699980Y-80583491D01*
X81699983Y-80583489D01*
X81706807Y-80579453D01*
X81824453Y-80461807D01*
X81828489Y-80454983D01*
X81828491Y-80454980D01*
X81905108Y-80325427D01*
X81909145Y-80318601D01*
X81911415Y-80310790D01*
X81939602Y-80213767D01*
X81955562Y-80158831D01*
X81956233Y-80150312D01*
X81958307Y-80123958D01*
X81958307Y-80123950D01*
X81958500Y-80121502D01*
X81958500Y-79688498D01*
X81957101Y-79670717D01*
X81956067Y-79657579D01*
X81956066Y-79657574D01*
X81955562Y-79651169D01*
X81912688Y-79503593D01*
X81911357Y-79499012D01*
X81911356Y-79499010D01*
X81909145Y-79491399D01*
X81889769Y-79458637D01*
X81872311Y-79389822D01*
X81894828Y-79322491D01*
X81950173Y-79278022D01*
X81998224Y-79268500D01*
X82315862Y-79268500D01*
X82383983Y-79288502D01*
X82404957Y-79305405D01*
X82424482Y-79324930D01*
X82562882Y-79408748D01*
X82570129Y-79411019D01*
X82570131Y-79411020D01*
X82586565Y-79416170D01*
X82717281Y-79457134D01*
X82786563Y-79463500D01*
X82789461Y-79463500D01*
X83000553Y-79463499D01*
X83213436Y-79463499D01*
X83216295Y-79463236D01*
X83216303Y-79463236D01*
X83250076Y-79460133D01*
X83282719Y-79457134D01*
X83289104Y-79455133D01*
X83429869Y-79411020D01*
X83429871Y-79411019D01*
X83437118Y-79408748D01*
X83575518Y-79324930D01*
X83689930Y-79210518D01*
X83773748Y-79072118D01*
X83822134Y-78917719D01*
X83828500Y-78848437D01*
X83828499Y-78346564D01*
X83827597Y-78336739D01*
X83822745Y-78283935D01*
X83822134Y-78277281D01*
X83804622Y-78221399D01*
X83797815Y-78199679D01*
X83796531Y-78128694D01*
X83833828Y-78068284D01*
X83897864Y-78037627D01*
X83918049Y-78036000D01*
X84587906Y-78036000D01*
X84656027Y-78056002D01*
X84677001Y-78072905D01*
X84996343Y-78392247D01*
X85003887Y-78400537D01*
X85008000Y-78407018D01*
X85013777Y-78412443D01*
X85057667Y-78453658D01*
X85060509Y-78456413D01*
X85080231Y-78476135D01*
X85083355Y-78478558D01*
X85083359Y-78478562D01*
X85083424Y-78478612D01*
X85092445Y-78486317D01*
X85124679Y-78516586D01*
X85131627Y-78520405D01*
X85131629Y-78520407D01*
X85142432Y-78526346D01*
X85158959Y-78537202D01*
X85168698Y-78544757D01*
X85168700Y-78544758D01*
X85174960Y-78549614D01*
X85215540Y-78567174D01*
X85226186Y-78572390D01*
X85253455Y-78587381D01*
X85303514Y-78637726D01*
X85318408Y-78707143D01*
X85293408Y-78773592D01*
X85281850Y-78786891D01*
X85268032Y-78800709D01*
X85253000Y-78813548D01*
X85235643Y-78826159D01*
X85212646Y-78853958D01*
X85206193Y-78861758D01*
X85198203Y-78870538D01*
X82592395Y-81476345D01*
X82583615Y-81484335D01*
X82583613Y-81484337D01*
X82576920Y-81488584D01*
X82571494Y-81494362D01*
X82571493Y-81494363D01*
X82528396Y-81540257D01*
X82525641Y-81543099D01*
X82505073Y-81563667D01*
X82502356Y-81567170D01*
X82494648Y-81576195D01*
X82463028Y-81609867D01*
X82459207Y-81616818D01*
X82459206Y-81616819D01*
X82452697Y-81628658D01*
X82441843Y-81645182D01*
X82436894Y-81651563D01*
X82428696Y-81662132D01*
X82425549Y-81669404D01*
X82425548Y-81669406D01*
X82410346Y-81704535D01*
X82405124Y-81715195D01*
X82398801Y-81726697D01*
X82382876Y-81755663D01*
X82377541Y-81776441D01*
X82371142Y-81795131D01*
X82362620Y-81814824D01*
X82358680Y-81839703D01*
X82355394Y-81860448D01*
X82352987Y-81872071D01*
X82347001Y-81895385D01*
X82341500Y-81916812D01*
X82341500Y-81938259D01*
X82339949Y-81957969D01*
X82336594Y-81979152D01*
X82337340Y-81987043D01*
X82340941Y-82025138D01*
X82341500Y-82036996D01*
X82341500Y-82299409D01*
X82321498Y-82367530D01*
X82321262Y-82367862D01*
X82319034Y-82370090D01*
X82315336Y-82376196D01*
X82315334Y-82376199D01*
X82314077Y-82378275D01*
X82313016Y-82379245D01*
X82310412Y-82382566D01*
X82309858Y-82382132D01*
X82261677Y-82426180D01*
X82206303Y-82439000D01*
X70425883Y-82439000D01*
X70357762Y-82418998D01*
X70311269Y-82365342D01*
X70301165Y-82295068D01*
X70305647Y-82275329D01*
X70322134Y-82222719D01*
X70328500Y-82153437D01*
X70328500Y-82022094D01*
X70348502Y-81953973D01*
X70365405Y-81932999D01*
X72127534Y-80170871D01*
X74048456Y-80170871D01*
X74089107Y-80310790D01*
X74095352Y-80325221D01*
X74171911Y-80454678D01*
X74181551Y-80467104D01*
X74287896Y-80573449D01*
X74300322Y-80583089D01*
X74429779Y-80659648D01*
X74444210Y-80665893D01*
X74590065Y-80708269D01*
X74602667Y-80710570D01*
X74631084Y-80712807D01*
X74636014Y-80713000D01*
X75252885Y-80713000D01*
X75268124Y-80708525D01*
X75269329Y-80707135D01*
X75271000Y-80699452D01*
X75271000Y-80694884D01*
X75779000Y-80694884D01*
X75783475Y-80710123D01*
X75784865Y-80711328D01*
X75792548Y-80712999D01*
X76413984Y-80712999D01*
X76418920Y-80712805D01*
X76447336Y-80710570D01*
X76459931Y-80708270D01*
X76605790Y-80665893D01*
X76620221Y-80659648D01*
X76749678Y-80583089D01*
X76762104Y-80573449D01*
X76868449Y-80467104D01*
X76878089Y-80454678D01*
X76954648Y-80325221D01*
X76960893Y-80310790D01*
X76999939Y-80176395D01*
X76999899Y-80162294D01*
X76992630Y-80159000D01*
X75797115Y-80159000D01*
X75781876Y-80163475D01*
X75780671Y-80164865D01*
X75779000Y-80172548D01*
X75779000Y-80694884D01*
X75271000Y-80694884D01*
X75271000Y-80177115D01*
X75266525Y-80161876D01*
X75265135Y-80160671D01*
X75257452Y-80159000D01*
X74063122Y-80159000D01*
X74049591Y-80162973D01*
X74048456Y-80170871D01*
X72127534Y-80170871D01*
X72993000Y-79305405D01*
X73055312Y-79271379D01*
X73082095Y-79268500D01*
X74002357Y-79268500D01*
X74070478Y-79288502D01*
X74116971Y-79342158D01*
X74127075Y-79412432D01*
X74110811Y-79458639D01*
X74095352Y-79484779D01*
X74089107Y-79499210D01*
X74050061Y-79633605D01*
X74050101Y-79647706D01*
X74057370Y-79651000D01*
X76986878Y-79651000D01*
X77000409Y-79647027D01*
X77001544Y-79639129D01*
X76960893Y-79499210D01*
X76954648Y-79484779D01*
X76878089Y-79355323D01*
X76872129Y-79347640D01*
X76846180Y-79281556D01*
X76860078Y-79211933D01*
X76870421Y-79195839D01*
X76874453Y-79191807D01*
X76959145Y-79048601D01*
X77005562Y-78888831D01*
X77008500Y-78851502D01*
X77008500Y-78418498D01*
X77008307Y-78416042D01*
X77006067Y-78387579D01*
X77006066Y-78387574D01*
X77005562Y-78381169D01*
X76959145Y-78221399D01*
X76874453Y-78078193D01*
X76871771Y-78075511D01*
X76846498Y-78011139D01*
X76860400Y-77941516D01*
X76870572Y-77925688D01*
X76874453Y-77921807D01*
X76959145Y-77778601D01*
X77005562Y-77618831D01*
X77006435Y-77607747D01*
X77008307Y-77583958D01*
X77008307Y-77583950D01*
X77008500Y-77581502D01*
X77008500Y-77148498D01*
X77006969Y-77129042D01*
X77006067Y-77117579D01*
X77006066Y-77117574D01*
X77005562Y-77111169D01*
X76959145Y-76951399D01*
X76874453Y-76808193D01*
X76871771Y-76805511D01*
X76846498Y-76741139D01*
X76860400Y-76671516D01*
X76870572Y-76655688D01*
X76874453Y-76651807D01*
X76959145Y-76508601D01*
X76961358Y-76500986D01*
X76984677Y-76420717D01*
X77005562Y-76348831D01*
X77008137Y-76316123D01*
X77008307Y-76313958D01*
X77008307Y-76313950D01*
X77008500Y-76311502D01*
X77008500Y-75878498D01*
X77007570Y-75866680D01*
X77006067Y-75847579D01*
X77006066Y-75847574D01*
X77005562Y-75841169D01*
X76959145Y-75681399D01*
X76931543Y-75634726D01*
X76878491Y-75545020D01*
X76878489Y-75545017D01*
X76874453Y-75538193D01*
X76756807Y-75420547D01*
X76749983Y-75416511D01*
X76749980Y-75416509D01*
X76620427Y-75339892D01*
X76620428Y-75339892D01*
X76613601Y-75335855D01*
X76605990Y-75333644D01*
X76605988Y-75333643D01*
X76535948Y-75313295D01*
X76453831Y-75289438D01*
X76447426Y-75288934D01*
X76447421Y-75288933D01*
X76418958Y-75286693D01*
X76418950Y-75286693D01*
X76416502Y-75286500D01*
X76259500Y-75286500D01*
X76191379Y-75266498D01*
X76144886Y-75212842D01*
X76133500Y-75160500D01*
X76133500Y-74819138D01*
X76153502Y-74751017D01*
X76170405Y-74730043D01*
X76189930Y-74710518D01*
X76273748Y-74572118D01*
X76279099Y-74555045D01*
X76307975Y-74462900D01*
X76322134Y-74417719D01*
X76328500Y-74348437D01*
X76328499Y-73846564D01*
X76328234Y-73843672D01*
X76322745Y-73783935D01*
X76322134Y-73777281D01*
X76310322Y-73739588D01*
X76276020Y-73630131D01*
X76276019Y-73630129D01*
X76273748Y-73622882D01*
X76248586Y-73581334D01*
X76238858Y-73565271D01*
X76220679Y-73496641D01*
X76238858Y-73434729D01*
X76269813Y-73383616D01*
X76269814Y-73383614D01*
X76273748Y-73377118D01*
X76322134Y-73222719D01*
X76328500Y-73153437D01*
X76328499Y-72651564D01*
X76328234Y-72648672D01*
X76322745Y-72588935D01*
X76322134Y-72582281D01*
X76301416Y-72516170D01*
X76276020Y-72435131D01*
X76276019Y-72435129D01*
X76273748Y-72427882D01*
X76189930Y-72289482D01*
X76170405Y-72269957D01*
X76136379Y-72207645D01*
X76133500Y-72180862D01*
X76133500Y-71814594D01*
X76153502Y-71746473D01*
X76170405Y-71725499D01*
X84725500Y-63170405D01*
X84787812Y-63136379D01*
X84814595Y-63133500D01*
X87168483Y-63133500D01*
X87236604Y-63153502D01*
G37*
%TD.AperFunction*%
%TA.AperFunction,Conductor*%
G36*
X83253527Y-70153502D02*
G01*
X83274501Y-70170405D01*
X83836453Y-70732357D01*
X83870479Y-70794669D01*
X83865414Y-70865484D01*
X83822867Y-70922320D01*
X83756347Y-70947131D01*
X83707690Y-70941045D01*
X83636290Y-70917362D01*
X83622914Y-70914495D01*
X83528562Y-70904828D01*
X83522145Y-70904500D01*
X83272115Y-70904500D01*
X83256876Y-70908975D01*
X83255671Y-70910365D01*
X83254000Y-70918048D01*
X83254000Y-72128000D01*
X83233998Y-72196121D01*
X83180342Y-72242614D01*
X83128000Y-72254000D01*
X81785116Y-72254000D01*
X81769877Y-72258475D01*
X81768672Y-72259865D01*
X81767001Y-72267548D01*
X81767001Y-72384595D01*
X81767338Y-72391114D01*
X81777257Y-72486706D01*
X81780149Y-72500100D01*
X81831588Y-72654284D01*
X81837761Y-72667462D01*
X81923063Y-72805307D01*
X81932099Y-72816708D01*
X82046828Y-72931238D01*
X82055762Y-72938294D01*
X82096823Y-72996212D01*
X82100053Y-73067135D01*
X82064426Y-73128546D01*
X82056593Y-73135346D01*
X82050652Y-73139022D01*
X82045479Y-73144204D01*
X82003257Y-73186500D01*
X81925695Y-73264197D01*
X81922739Y-73268993D01*
X81865386Y-73309655D01*
X81824422Y-73316500D01*
X81444000Y-73316500D01*
X81375879Y-73296498D01*
X81329386Y-73242842D01*
X81324747Y-73221516D01*
X81323104Y-73221998D01*
X81313525Y-73189376D01*
X81312135Y-73188171D01*
X81304452Y-73186500D01*
X79700115Y-73186500D01*
X79684876Y-73190975D01*
X79683671Y-73192365D01*
X79682187Y-73199186D01*
X79682266Y-73200888D01*
X79687702Y-73260046D01*
X79690315Y-73273096D01*
X79734029Y-73412589D01*
X79740234Y-73426331D01*
X79745026Y-73434243D01*
X79763207Y-73502872D01*
X79745027Y-73564790D01*
X79735843Y-73579955D01*
X79687819Y-73733199D01*
X79681500Y-73801968D01*
X79681500Y-74333032D01*
X79687819Y-74401801D01*
X79735734Y-74554697D01*
X79741500Y-74592376D01*
X79741500Y-75160500D01*
X79721498Y-75228621D01*
X79667842Y-75275114D01*
X79615500Y-75286500D01*
X79583498Y-75286500D01*
X79581050Y-75286693D01*
X79581042Y-75286693D01*
X79552579Y-75288933D01*
X79552574Y-75288934D01*
X79546169Y-75289438D01*
X79464052Y-75313295D01*
X79394012Y-75333643D01*
X79394010Y-75333644D01*
X79386399Y-75335855D01*
X79323637Y-75372973D01*
X79254823Y-75390431D01*
X79187491Y-75367914D01*
X79143022Y-75312570D01*
X79133500Y-75264518D01*
X79133500Y-72661962D01*
X79682463Y-72661962D01*
X79686475Y-72675624D01*
X79687865Y-72676829D01*
X79695548Y-72678500D01*
X80227885Y-72678500D01*
X80243124Y-72674025D01*
X80244329Y-72672635D01*
X80246000Y-72664952D01*
X80246000Y-72660385D01*
X80754000Y-72660385D01*
X80758475Y-72675624D01*
X80759865Y-72676829D01*
X80767548Y-72678500D01*
X81299885Y-72678500D01*
X81315124Y-72674025D01*
X81316329Y-72672635D01*
X81317813Y-72665814D01*
X81317734Y-72664112D01*
X81312298Y-72604954D01*
X81309685Y-72591904D01*
X81265971Y-72452411D01*
X81259765Y-72438666D01*
X81184504Y-72314396D01*
X81175197Y-72302527D01*
X81072473Y-72199803D01*
X81060604Y-72190496D01*
X80936334Y-72115235D01*
X80922589Y-72109029D01*
X80783088Y-72065313D01*
X80771497Y-72062991D01*
X80757165Y-72065806D01*
X80754000Y-72077702D01*
X80754000Y-72660385D01*
X80246000Y-72660385D01*
X80246000Y-72079342D01*
X80241729Y-72064797D01*
X80229698Y-72062752D01*
X80216912Y-72065313D01*
X80077411Y-72109029D01*
X80063666Y-72115235D01*
X79939396Y-72190496D01*
X79927527Y-72199803D01*
X79824803Y-72302527D01*
X79815496Y-72314396D01*
X79740235Y-72438666D01*
X79734029Y-72452411D01*
X79690315Y-72591904D01*
X79687702Y-72604954D01*
X79682463Y-72661962D01*
X79133500Y-72661962D01*
X79133500Y-71814594D01*
X79153502Y-71746473D01*
X79168482Y-71727885D01*
X81767000Y-71727885D01*
X81771475Y-71743124D01*
X81772865Y-71744329D01*
X81780548Y-71746000D01*
X82727885Y-71746000D01*
X82743124Y-71741525D01*
X82744329Y-71740135D01*
X82746000Y-71732452D01*
X82746000Y-70922616D01*
X82741525Y-70907377D01*
X82740135Y-70906172D01*
X82732452Y-70904501D01*
X82477905Y-70904501D01*
X82471386Y-70904838D01*
X82375794Y-70914757D01*
X82362400Y-70917649D01*
X82208216Y-70969088D01*
X82195038Y-70975261D01*
X82057193Y-71060563D01*
X82045792Y-71069599D01*
X81931261Y-71184329D01*
X81922249Y-71195740D01*
X81837184Y-71333743D01*
X81831037Y-71346924D01*
X81779862Y-71501210D01*
X81776995Y-71514586D01*
X81767328Y-71608938D01*
X81767000Y-71615355D01*
X81767000Y-71727885D01*
X79168482Y-71727885D01*
X79170405Y-71725499D01*
X79639071Y-71256833D01*
X79701383Y-71222807D01*
X79772198Y-71227872D01*
X79817803Y-71261227D01*
X79819430Y-71259600D01*
X79927527Y-71367697D01*
X79939396Y-71377004D01*
X80063666Y-71452265D01*
X80077411Y-71458471D01*
X80216912Y-71502187D01*
X80228503Y-71504509D01*
X80242835Y-71501694D01*
X80246000Y-71489798D01*
X80246000Y-71488158D01*
X80754000Y-71488158D01*
X80758271Y-71502703D01*
X80770302Y-71504748D01*
X80783088Y-71502187D01*
X80922589Y-71458471D01*
X80936334Y-71452265D01*
X81060604Y-71377004D01*
X81072473Y-71367697D01*
X81175197Y-71264973D01*
X81184504Y-71253104D01*
X81259765Y-71128834D01*
X81265971Y-71115089D01*
X81309685Y-70975596D01*
X81312298Y-70962546D01*
X81317537Y-70905538D01*
X81313525Y-70891876D01*
X81312135Y-70890671D01*
X81304452Y-70889000D01*
X80772115Y-70889000D01*
X80756876Y-70893475D01*
X80755671Y-70894865D01*
X80754000Y-70902548D01*
X80754000Y-71488158D01*
X80246000Y-71488158D01*
X80246000Y-70702095D01*
X80266002Y-70633974D01*
X80282905Y-70613000D01*
X80478000Y-70417905D01*
X80540312Y-70383879D01*
X80567095Y-70381000D01*
X81299885Y-70381000D01*
X81315124Y-70376525D01*
X81316329Y-70375135D01*
X81317813Y-70368314D01*
X81317734Y-70366612D01*
X81312298Y-70307454D01*
X81308373Y-70287854D01*
X81310380Y-70287452D01*
X81309266Y-70226206D01*
X81346558Y-70165792D01*
X81410592Y-70135129D01*
X81430788Y-70133500D01*
X83185406Y-70133500D01*
X83253527Y-70153502D01*
G37*
%TD.AperFunction*%
%TD*%
M02*
