%TF.GenerationSoftware,KiCad,Pcbnew,(6.0.7-1)-1*%
%TF.CreationDate,2022-12-18T15:37:26+01:00*%
%TF.ProjectId,overdrive,6f766572-6472-4697-9665-2e6b69636164,rev?*%
%TF.SameCoordinates,Original*%
%TF.FileFunction,Legend,Top*%
%TF.FilePolarity,Positive*%
%FSLAX46Y46*%
G04 Gerber Fmt 4.6, Leading zero omitted, Abs format (unit mm)*
G04 Created by KiCad (PCBNEW (6.0.7-1)-1) date 2022-12-18 15:37:26*
%MOMM*%
%LPD*%
G01*
G04 APERTURE LIST*
%ADD10C,0.200000*%
%ADD11C,0.150000*%
%ADD12C,0.300000*%
%ADD13C,0.120000*%
%ADD14C,0.500000*%
G04 APERTURE END LIST*
D10*
X96750000Y-115000000D02*
X97750000Y-115000000D01*
X57250000Y-115500000D02*
X57750000Y-115000000D01*
D11*
X57750000Y-115000000D02*
X57250000Y-114500000D01*
X97750000Y-115000000D02*
X97250000Y-114500000D01*
D10*
X57250000Y-114500000D02*
X57750000Y-115000000D01*
D12*
X84000000Y-62000000D02*
X101500000Y-62000000D01*
X101500000Y-62000000D02*
X101500000Y-71000000D01*
X101500000Y-71000000D02*
X84000000Y-71000000D01*
X84000000Y-71000000D02*
X84000000Y-62000000D01*
D10*
X56750000Y-115000000D02*
X57750000Y-115000000D01*
X97250000Y-114500000D02*
X97750000Y-115000000D01*
D12*
X54000000Y-62000000D02*
X71000000Y-62000000D01*
X71000000Y-62000000D02*
X71000000Y-71000000D01*
X71000000Y-71000000D02*
X54000000Y-71000000D01*
X54000000Y-71000000D02*
X54000000Y-62000000D01*
D10*
X97250000Y-115500000D02*
X97750000Y-115000000D01*
X93644285Y-67922857D02*
X93872857Y-67922857D01*
X93987142Y-67980000D01*
X94101428Y-68094285D01*
X94158571Y-68322857D01*
X94158571Y-68722857D01*
X94101428Y-68951428D01*
X93987142Y-69065714D01*
X93872857Y-69122857D01*
X93644285Y-69122857D01*
X93530000Y-69065714D01*
X93415714Y-68951428D01*
X93358571Y-68722857D01*
X93358571Y-68322857D01*
X93415714Y-68094285D01*
X93530000Y-67980000D01*
X93644285Y-67922857D01*
X94672857Y-69122857D02*
X94672857Y-67922857D01*
X95130000Y-67922857D01*
X95244285Y-67980000D01*
X95301428Y-68037142D01*
X95358571Y-68151428D01*
X95358571Y-68322857D01*
X95301428Y-68437142D01*
X95244285Y-68494285D01*
X95130000Y-68551428D01*
X94672857Y-68551428D01*
X95701428Y-67922857D02*
X96387142Y-67922857D01*
X96044285Y-69122857D02*
X96044285Y-67922857D01*
X78285714Y-118047619D02*
X78333333Y-118000000D01*
X78428571Y-117952380D01*
X78666666Y-117952380D01*
X78761904Y-118000000D01*
X78809523Y-118047619D01*
X78857142Y-118142857D01*
X78857142Y-118238095D01*
X78809523Y-118380952D01*
X78238095Y-118952380D01*
X78857142Y-118952380D01*
X79238095Y-118666666D02*
X79714285Y-118666666D01*
X79142857Y-118952380D02*
X79476190Y-117952380D01*
X79809523Y-118952380D01*
X60312857Y-63914285D02*
X60712857Y-63914285D01*
X60884285Y-64542857D02*
X60312857Y-64542857D01*
X60312857Y-63342857D01*
X60884285Y-63342857D01*
X61398571Y-64542857D02*
X61398571Y-63342857D01*
X62084285Y-64542857D01*
X62084285Y-63342857D01*
X80785714Y-118047619D02*
X80833333Y-118000000D01*
X80928571Y-117952380D01*
X81166666Y-117952380D01*
X81261904Y-118000000D01*
X81309523Y-118047619D01*
X81357142Y-118142857D01*
X81357142Y-118238095D01*
X81309523Y-118380952D01*
X80738095Y-118952380D01*
X81357142Y-118952380D01*
X81976190Y-118476190D02*
X81976190Y-118952380D01*
X81642857Y-117952380D02*
X81976190Y-118476190D01*
X82309523Y-117952380D01*
D12*
X54923571Y-64019714D02*
X55095000Y-64076857D01*
X55380714Y-64076857D01*
X55495000Y-64019714D01*
X55552142Y-63962571D01*
X55609285Y-63848285D01*
X55609285Y-63734000D01*
X55552142Y-63619714D01*
X55495000Y-63562571D01*
X55380714Y-63505428D01*
X55152142Y-63448285D01*
X55037857Y-63391142D01*
X54980714Y-63334000D01*
X54923571Y-63219714D01*
X54923571Y-63105428D01*
X54980714Y-62991142D01*
X55037857Y-62934000D01*
X55152142Y-62876857D01*
X55437857Y-62876857D01*
X55609285Y-62934000D01*
X56352142Y-62876857D02*
X56580714Y-62876857D01*
X56695000Y-62934000D01*
X56809285Y-63048285D01*
X56866428Y-63276857D01*
X56866428Y-63676857D01*
X56809285Y-63905428D01*
X56695000Y-64019714D01*
X56580714Y-64076857D01*
X56352142Y-64076857D01*
X56237857Y-64019714D01*
X56123571Y-63905428D01*
X56066428Y-63676857D01*
X56066428Y-63276857D01*
X56123571Y-63048285D01*
X56237857Y-62934000D01*
X56352142Y-62876857D01*
X57780714Y-63448285D02*
X57380714Y-63448285D01*
X57380714Y-64076857D02*
X57380714Y-62876857D01*
X57952142Y-62876857D01*
X58237857Y-62876857D02*
X58923571Y-62876857D01*
X58580714Y-64076857D02*
X58580714Y-62876857D01*
X55666428Y-65894571D02*
X55609285Y-65951714D01*
X55437857Y-66008857D01*
X55323571Y-66008857D01*
X55152142Y-65951714D01*
X55037857Y-65837428D01*
X54980714Y-65723142D01*
X54923571Y-65494571D01*
X54923571Y-65323142D01*
X54980714Y-65094571D01*
X55037857Y-64980285D01*
X55152142Y-64866000D01*
X55323571Y-64808857D01*
X55437857Y-64808857D01*
X55609285Y-64866000D01*
X55666428Y-64923142D01*
X56752142Y-66008857D02*
X56180714Y-66008857D01*
X56180714Y-64808857D01*
X57152142Y-66008857D02*
X57152142Y-64808857D01*
X57723571Y-66008857D02*
X57723571Y-64808857D01*
X58180714Y-64808857D01*
X58295000Y-64866000D01*
X58352142Y-64923142D01*
X58409285Y-65037428D01*
X58409285Y-65208857D01*
X58352142Y-65323142D01*
X58295000Y-65380285D01*
X58180714Y-65437428D01*
X57723571Y-65437428D01*
D10*
X93415714Y-63914285D02*
X93815714Y-63914285D01*
X93987142Y-64542857D02*
X93415714Y-64542857D01*
X93415714Y-63342857D01*
X93987142Y-63342857D01*
X94501428Y-64542857D02*
X94501428Y-63342857D01*
X95187142Y-64542857D01*
X95187142Y-63342857D01*
X71124142Y-118952380D02*
X70552714Y-118952380D01*
X70838428Y-118952380D02*
X70838428Y-117952380D01*
X70743190Y-118095238D01*
X70647952Y-118190476D01*
X70552714Y-118238095D01*
X71505095Y-118666666D02*
X71981285Y-118666666D01*
X71409857Y-118952380D02*
X71743190Y-117952380D01*
X72076523Y-118952380D01*
X83214285Y-118047619D02*
X83261904Y-118000000D01*
X83357142Y-117952380D01*
X83595238Y-117952380D01*
X83690476Y-118000000D01*
X83738095Y-118047619D01*
X83785714Y-118142857D01*
X83785714Y-118238095D01*
X83738095Y-118380952D01*
X83166666Y-118952380D01*
X83785714Y-118952380D01*
X84547619Y-118428571D02*
X84690476Y-118476190D01*
X84738095Y-118523809D01*
X84785714Y-118619047D01*
X84785714Y-118761904D01*
X84738095Y-118857142D01*
X84690476Y-118904761D01*
X84595238Y-118952380D01*
X84214285Y-118952380D01*
X84214285Y-117952380D01*
X84547619Y-117952380D01*
X84642857Y-118000000D01*
X84690476Y-118047619D01*
X84738095Y-118142857D01*
X84738095Y-118238095D01*
X84690476Y-118333333D01*
X84642857Y-118380952D01*
X84547619Y-118428571D01*
X84214285Y-118428571D01*
X97842857Y-88487142D02*
X99042857Y-88087142D01*
X97842857Y-87687142D01*
X97842857Y-87058571D02*
X97842857Y-86830000D01*
X97900000Y-86715714D01*
X98014285Y-86601428D01*
X98242857Y-86544285D01*
X98642857Y-86544285D01*
X98871428Y-86601428D01*
X98985714Y-86715714D01*
X99042857Y-86830000D01*
X99042857Y-87058571D01*
X98985714Y-87172857D01*
X98871428Y-87287142D01*
X98642857Y-87344285D01*
X98242857Y-87344285D01*
X98014285Y-87287142D01*
X97900000Y-87172857D01*
X97842857Y-87058571D01*
X99042857Y-85458571D02*
X99042857Y-86030000D01*
X97842857Y-86030000D01*
X97842857Y-85058571D02*
X98814285Y-85058571D01*
X98928571Y-85001428D01*
X98985714Y-84944285D01*
X99042857Y-84830000D01*
X99042857Y-84601428D01*
X98985714Y-84487142D01*
X98928571Y-84430000D01*
X98814285Y-84372857D01*
X97842857Y-84372857D01*
X99042857Y-83801428D02*
X97842857Y-83801428D01*
X98700000Y-83401428D01*
X97842857Y-83001428D01*
X99042857Y-83001428D01*
X98414285Y-82430000D02*
X98414285Y-82030000D01*
X99042857Y-81858571D02*
X99042857Y-82430000D01*
X97842857Y-82430000D01*
X97842857Y-81858571D01*
X72728571Y-113414285D02*
X72328571Y-113414285D01*
X72328571Y-114042857D02*
X72328571Y-112842857D01*
X72900000Y-112842857D01*
X73585714Y-112842857D02*
X73814285Y-112842857D01*
X73928571Y-112900000D01*
X74042857Y-113014285D01*
X74100000Y-113242857D01*
X74100000Y-113642857D01*
X74042857Y-113871428D01*
X73928571Y-113985714D01*
X73814285Y-114042857D01*
X73585714Y-114042857D01*
X73471428Y-113985714D01*
X73357142Y-113871428D01*
X73300000Y-113642857D01*
X73300000Y-113242857D01*
X73357142Y-113014285D01*
X73471428Y-112900000D01*
X73585714Y-112842857D01*
X74842857Y-112842857D02*
X75071428Y-112842857D01*
X75185714Y-112900000D01*
X75300000Y-113014285D01*
X75357142Y-113242857D01*
X75357142Y-113642857D01*
X75300000Y-113871428D01*
X75185714Y-113985714D01*
X75071428Y-114042857D01*
X74842857Y-114042857D01*
X74728571Y-113985714D01*
X74614285Y-113871428D01*
X74557142Y-113642857D01*
X74557142Y-113242857D01*
X74614285Y-113014285D01*
X74728571Y-112900000D01*
X74842857Y-112842857D01*
X75700000Y-112842857D02*
X76385714Y-112842857D01*
X76042857Y-114042857D02*
X76042857Y-112842857D01*
X76728571Y-113985714D02*
X76900000Y-114042857D01*
X77185714Y-114042857D01*
X77300000Y-113985714D01*
X77357142Y-113928571D01*
X77414285Y-113814285D01*
X77414285Y-113700000D01*
X77357142Y-113585714D01*
X77300000Y-113528571D01*
X77185714Y-113471428D01*
X76957142Y-113414285D01*
X76842857Y-113357142D01*
X76785714Y-113300000D01*
X76728571Y-113185714D01*
X76728571Y-113071428D01*
X76785714Y-112957142D01*
X76842857Y-112900000D01*
X76957142Y-112842857D01*
X77242857Y-112842857D01*
X77414285Y-112900000D01*
X77814285Y-112842857D02*
X78100000Y-114042857D01*
X78328571Y-113185714D01*
X78557142Y-114042857D01*
X78842857Y-112842857D01*
X79300000Y-114042857D02*
X79300000Y-112842857D01*
X79700000Y-112842857D02*
X80385714Y-112842857D01*
X80042857Y-114042857D02*
X80042857Y-112842857D01*
X81471428Y-113928571D02*
X81414285Y-113985714D01*
X81242857Y-114042857D01*
X81128571Y-114042857D01*
X80957142Y-113985714D01*
X80842857Y-113871428D01*
X80785714Y-113757142D01*
X80728571Y-113528571D01*
X80728571Y-113357142D01*
X80785714Y-113128571D01*
X80842857Y-113014285D01*
X80957142Y-112900000D01*
X81128571Y-112842857D01*
X81242857Y-112842857D01*
X81414285Y-112900000D01*
X81471428Y-112957142D01*
X81985714Y-114042857D02*
X81985714Y-112842857D01*
X81985714Y-113414285D02*
X82671428Y-113414285D01*
X82671428Y-114042857D02*
X82671428Y-112842857D01*
X97842857Y-77530000D02*
X97842857Y-76844285D01*
X99042857Y-77187142D02*
X97842857Y-77187142D01*
X97842857Y-76215714D02*
X97842857Y-75987142D01*
X97900000Y-75872857D01*
X98014285Y-75758571D01*
X98242857Y-75701428D01*
X98642857Y-75701428D01*
X98871428Y-75758571D01*
X98985714Y-75872857D01*
X99042857Y-75987142D01*
X99042857Y-76215714D01*
X98985714Y-76330000D01*
X98871428Y-76444285D01*
X98642857Y-76501428D01*
X98242857Y-76501428D01*
X98014285Y-76444285D01*
X97900000Y-76330000D01*
X97842857Y-76215714D01*
X99042857Y-75187142D02*
X97842857Y-75187142D01*
X99042857Y-74501428D01*
X97842857Y-74501428D01*
X98414285Y-73930000D02*
X98414285Y-73530000D01*
X99042857Y-73358571D02*
X99042857Y-73930000D01*
X97842857Y-73930000D01*
X97842857Y-73358571D01*
D12*
X96405000Y-64076857D02*
X96405000Y-62876857D01*
X96405000Y-63448285D02*
X97090714Y-63448285D01*
X97090714Y-64076857D02*
X97090714Y-62876857D01*
X97605000Y-63734000D02*
X98176428Y-63734000D01*
X97490714Y-64076857D02*
X97890714Y-62876857D01*
X98290714Y-64076857D01*
X99376428Y-64076857D02*
X98976428Y-63505428D01*
X98690714Y-64076857D02*
X98690714Y-62876857D01*
X99147857Y-62876857D01*
X99262142Y-62934000D01*
X99319285Y-62991142D01*
X99376428Y-63105428D01*
X99376428Y-63276857D01*
X99319285Y-63391142D01*
X99262142Y-63448285D01*
X99147857Y-63505428D01*
X98690714Y-63505428D01*
X99890714Y-64076857D02*
X99890714Y-62876857D01*
X100176428Y-62876857D01*
X100347857Y-62934000D01*
X100462142Y-63048285D01*
X100519285Y-63162571D01*
X100576428Y-63391142D01*
X100576428Y-63562571D01*
X100519285Y-63791142D01*
X100462142Y-63905428D01*
X100347857Y-64019714D01*
X100176428Y-64076857D01*
X99890714Y-64076857D01*
X97833571Y-65894571D02*
X97776428Y-65951714D01*
X97605000Y-66008857D01*
X97490714Y-66008857D01*
X97319285Y-65951714D01*
X97205000Y-65837428D01*
X97147857Y-65723142D01*
X97090714Y-65494571D01*
X97090714Y-65323142D01*
X97147857Y-65094571D01*
X97205000Y-64980285D01*
X97319285Y-64866000D01*
X97490714Y-64808857D01*
X97605000Y-64808857D01*
X97776428Y-64866000D01*
X97833571Y-64923142D01*
X98919285Y-66008857D02*
X98347857Y-66008857D01*
X98347857Y-64808857D01*
X99319285Y-66008857D02*
X99319285Y-64808857D01*
X99890714Y-66008857D02*
X99890714Y-64808857D01*
X100347857Y-64808857D01*
X100462142Y-64866000D01*
X100519285Y-64923142D01*
X100576428Y-65037428D01*
X100576428Y-65208857D01*
X100519285Y-65323142D01*
X100462142Y-65380285D01*
X100347857Y-65437428D01*
X99890714Y-65437428D01*
D10*
X59262857Y-67922857D02*
X59491428Y-67922857D01*
X59605714Y-67980000D01*
X59720000Y-68094285D01*
X59777142Y-68322857D01*
X59777142Y-68722857D01*
X59720000Y-68951428D01*
X59605714Y-69065714D01*
X59491428Y-69122857D01*
X59262857Y-69122857D01*
X59148571Y-69065714D01*
X59034285Y-68951428D01*
X58977142Y-68722857D01*
X58977142Y-68322857D01*
X59034285Y-68094285D01*
X59148571Y-67980000D01*
X59262857Y-67922857D01*
X60291428Y-69122857D02*
X60291428Y-67922857D01*
X60748571Y-67922857D01*
X60862857Y-67980000D01*
X60920000Y-68037142D01*
X60977142Y-68151428D01*
X60977142Y-68322857D01*
X60920000Y-68437142D01*
X60862857Y-68494285D01*
X60748571Y-68551428D01*
X60291428Y-68551428D01*
X61320000Y-67922857D02*
X62005714Y-67922857D01*
X61662857Y-69122857D02*
X61662857Y-67922857D01*
X98584285Y-114342857D02*
X98812857Y-114342857D01*
X98927142Y-114400000D01*
X99041428Y-114514285D01*
X99098571Y-114742857D01*
X99098571Y-115142857D01*
X99041428Y-115371428D01*
X98927142Y-115485714D01*
X98812857Y-115542857D01*
X98584285Y-115542857D01*
X98470000Y-115485714D01*
X98355714Y-115371428D01*
X98298571Y-115142857D01*
X98298571Y-114742857D01*
X98355714Y-114514285D01*
X98470000Y-114400000D01*
X98584285Y-114342857D01*
X99612857Y-114342857D02*
X99612857Y-115314285D01*
X99670000Y-115428571D01*
X99727142Y-115485714D01*
X99841428Y-115542857D01*
X100070000Y-115542857D01*
X100184285Y-115485714D01*
X100241428Y-115428571D01*
X100298571Y-115314285D01*
X100298571Y-114342857D01*
X100698571Y-114342857D02*
X101384285Y-114342857D01*
X101041428Y-115542857D02*
X101041428Y-114342857D01*
X101784285Y-115542857D02*
X101784285Y-114342857D01*
X102241428Y-114342857D01*
X102355714Y-114400000D01*
X102412857Y-114457142D01*
X102470000Y-114571428D01*
X102470000Y-114742857D01*
X102412857Y-114857142D01*
X102355714Y-114914285D01*
X102241428Y-114971428D01*
X101784285Y-114971428D01*
X102984285Y-114342857D02*
X102984285Y-115314285D01*
X103041428Y-115428571D01*
X103098571Y-115485714D01*
X103212857Y-115542857D01*
X103441428Y-115542857D01*
X103555714Y-115485714D01*
X103612857Y-115428571D01*
X103670000Y-115314285D01*
X103670000Y-114342857D01*
X104070000Y-114342857D02*
X104755714Y-114342857D01*
X104412857Y-115542857D02*
X104412857Y-114342857D01*
X56900000Y-76272857D02*
X56842857Y-76387142D01*
X56842857Y-76558571D01*
X56900000Y-76730000D01*
X57014285Y-76844285D01*
X57128571Y-76901428D01*
X57357142Y-76958571D01*
X57528571Y-76958571D01*
X57757142Y-76901428D01*
X57871428Y-76844285D01*
X57985714Y-76730000D01*
X58042857Y-76558571D01*
X58042857Y-76444285D01*
X57985714Y-76272857D01*
X57928571Y-76215714D01*
X57528571Y-76215714D01*
X57528571Y-76444285D01*
X57700000Y-75758571D02*
X57700000Y-75187142D01*
X58042857Y-75872857D02*
X56842857Y-75472857D01*
X58042857Y-75072857D01*
X58042857Y-74672857D02*
X56842857Y-74672857D01*
X58042857Y-74101428D02*
X56842857Y-74101428D01*
X58042857Y-73415714D01*
X56842857Y-73415714D01*
X76185714Y-118952380D02*
X75614285Y-118952380D01*
X75900000Y-118952380D02*
X75900000Y-117952380D01*
X75804761Y-118095238D01*
X75709523Y-118190476D01*
X75614285Y-118238095D01*
X76947619Y-118428571D02*
X77090476Y-118476190D01*
X77138095Y-118523809D01*
X77185714Y-118619047D01*
X77185714Y-118761904D01*
X77138095Y-118857142D01*
X77090476Y-118904761D01*
X76995238Y-118952380D01*
X76614285Y-118952380D01*
X76614285Y-117952380D01*
X76947619Y-117952380D01*
X77042857Y-118000000D01*
X77090476Y-118047619D01*
X77138095Y-118142857D01*
X77138095Y-118238095D01*
X77090476Y-118333333D01*
X77042857Y-118380952D01*
X76947619Y-118428571D01*
X76614285Y-118428571D01*
X60346190Y-51842380D02*
X60536666Y-51842380D01*
X60631904Y-51890000D01*
X60727142Y-51985238D01*
X60774761Y-52175714D01*
X60774761Y-52509047D01*
X60727142Y-52699523D01*
X60631904Y-52794761D01*
X60536666Y-52842380D01*
X60346190Y-52842380D01*
X60250952Y-52794761D01*
X60155714Y-52699523D01*
X60108095Y-52509047D01*
X60108095Y-52175714D01*
X60155714Y-51985238D01*
X60250952Y-51890000D01*
X60346190Y-51842380D01*
X61060476Y-51842380D02*
X61393809Y-52842380D01*
X61727142Y-51842380D01*
X62060476Y-52318571D02*
X62393809Y-52318571D01*
X62536666Y-52842380D02*
X62060476Y-52842380D01*
X62060476Y-51842380D01*
X62536666Y-51842380D01*
X63536666Y-52842380D02*
X63203333Y-52366190D01*
X62965238Y-52842380D02*
X62965238Y-51842380D01*
X63346190Y-51842380D01*
X63441428Y-51890000D01*
X63489047Y-51937619D01*
X63536666Y-52032857D01*
X63536666Y-52175714D01*
X63489047Y-52270952D01*
X63441428Y-52318571D01*
X63346190Y-52366190D01*
X62965238Y-52366190D01*
X63965238Y-52842380D02*
X63965238Y-51842380D01*
X64203333Y-51842380D01*
X64346190Y-51890000D01*
X64441428Y-51985238D01*
X64489047Y-52080476D01*
X64536666Y-52270952D01*
X64536666Y-52413809D01*
X64489047Y-52604285D01*
X64441428Y-52699523D01*
X64346190Y-52794761D01*
X64203333Y-52842380D01*
X63965238Y-52842380D01*
X65536666Y-52842380D02*
X65203333Y-52366190D01*
X64965238Y-52842380D02*
X64965238Y-51842380D01*
X65346190Y-51842380D01*
X65441428Y-51890000D01*
X65489047Y-51937619D01*
X65536666Y-52032857D01*
X65536666Y-52175714D01*
X65489047Y-52270952D01*
X65441428Y-52318571D01*
X65346190Y-52366190D01*
X64965238Y-52366190D01*
X65965238Y-52842380D02*
X65965238Y-51842380D01*
X66298571Y-51842380D02*
X66631904Y-52842380D01*
X66965238Y-51842380D01*
X67298571Y-52318571D02*
X67631904Y-52318571D01*
X67774761Y-52842380D02*
X67298571Y-52842380D01*
X67298571Y-51842380D01*
X67774761Y-51842380D01*
X68870000Y-52175714D02*
X69108095Y-52842380D01*
X69346190Y-52175714D01*
X70250952Y-52842380D02*
X69679523Y-52842380D01*
X69965238Y-52842380D02*
X69965238Y-51842380D01*
X69870000Y-51985238D01*
X69774761Y-52080476D01*
X69679523Y-52128095D01*
X70679523Y-52747142D02*
X70727142Y-52794761D01*
X70679523Y-52842380D01*
X70631904Y-52794761D01*
X70679523Y-52747142D01*
X70679523Y-52842380D01*
X71346190Y-51842380D02*
X71441428Y-51842380D01*
X71536666Y-51890000D01*
X71584285Y-51937619D01*
X71631904Y-52032857D01*
X71679523Y-52223333D01*
X71679523Y-52461428D01*
X71631904Y-52651904D01*
X71584285Y-52747142D01*
X71536666Y-52794761D01*
X71441428Y-52842380D01*
X71346190Y-52842380D01*
X71250952Y-52794761D01*
X71203333Y-52747142D01*
X71155714Y-52651904D01*
X71108095Y-52461428D01*
X71108095Y-52223333D01*
X71155714Y-52032857D01*
X71203333Y-51937619D01*
X71250952Y-51890000D01*
X71346190Y-51842380D01*
X60250952Y-54404761D02*
X60393809Y-54452380D01*
X60631904Y-54452380D01*
X60727142Y-54404761D01*
X60774761Y-54357142D01*
X60822380Y-54261904D01*
X60822380Y-54166666D01*
X60774761Y-54071428D01*
X60727142Y-54023809D01*
X60631904Y-53976190D01*
X60441428Y-53928571D01*
X60346190Y-53880952D01*
X60298571Y-53833333D01*
X60250952Y-53738095D01*
X60250952Y-53642857D01*
X60298571Y-53547619D01*
X60346190Y-53500000D01*
X60441428Y-53452380D01*
X60679523Y-53452380D01*
X60822380Y-53500000D01*
X61441428Y-53976190D02*
X61441428Y-54452380D01*
X61108095Y-53452380D02*
X61441428Y-53976190D01*
X61774761Y-53452380D01*
X62584285Y-54452380D02*
X62108095Y-54452380D01*
X62108095Y-53452380D01*
X62774761Y-53452380D02*
X63108095Y-54452380D01*
X63441428Y-53452380D01*
X63727142Y-54166666D02*
X64203333Y-54166666D01*
X63631904Y-54452380D02*
X63965238Y-53452380D01*
X64298571Y-54452380D01*
X64631904Y-54452380D02*
X64631904Y-53452380D01*
X65108095Y-54452380D02*
X65108095Y-53452380D01*
X65679523Y-54452380D01*
X65679523Y-53452380D01*
X66917619Y-54452380D02*
X66917619Y-53452380D01*
X67250952Y-54166666D01*
X67584285Y-53452380D01*
X67584285Y-54452380D01*
X68012857Y-54166666D02*
X68489047Y-54166666D01*
X67917619Y-54452380D02*
X68250952Y-53452380D01*
X68584285Y-54452380D01*
X69489047Y-54452380D02*
X69155714Y-53976190D01*
X68917619Y-54452380D02*
X68917619Y-53452380D01*
X69298571Y-53452380D01*
X69393809Y-53500000D01*
X69441428Y-53547619D01*
X69489047Y-53642857D01*
X69489047Y-53785714D01*
X69441428Y-53880952D01*
X69393809Y-53928571D01*
X69298571Y-53976190D01*
X68917619Y-53976190D01*
X69917619Y-54452380D02*
X69917619Y-53452380D01*
X70393809Y-53928571D02*
X70727142Y-53928571D01*
X70870000Y-54452380D02*
X70393809Y-54452380D01*
X70393809Y-53452380D01*
X70870000Y-53452380D01*
X71774761Y-54452380D02*
X71298571Y-54452380D01*
X71298571Y-53452380D01*
X62584285Y-55062380D02*
X62679523Y-55062380D01*
X62774761Y-55110000D01*
X62822380Y-55157619D01*
X62870000Y-55252857D01*
X62917619Y-55443333D01*
X62917619Y-55681428D01*
X62870000Y-55871904D01*
X62822380Y-55967142D01*
X62774761Y-56014761D01*
X62679523Y-56062380D01*
X62584285Y-56062380D01*
X62489047Y-56014761D01*
X62441428Y-55967142D01*
X62393809Y-55871904D01*
X62346190Y-55681428D01*
X62346190Y-55443333D01*
X62393809Y-55252857D01*
X62441428Y-55157619D01*
X62489047Y-55110000D01*
X62584285Y-55062380D01*
X63870000Y-56062380D02*
X63298571Y-56062380D01*
X63584285Y-56062380D02*
X63584285Y-55062380D01*
X63489047Y-55205238D01*
X63393809Y-55300476D01*
X63298571Y-55348095D01*
X65012857Y-55014761D02*
X64155714Y-56300476D01*
X65536666Y-55062380D02*
X65631904Y-55062380D01*
X65727142Y-55110000D01*
X65774761Y-55157619D01*
X65822380Y-55252857D01*
X65870000Y-55443333D01*
X65870000Y-55681428D01*
X65822380Y-55871904D01*
X65774761Y-55967142D01*
X65727142Y-56014761D01*
X65631904Y-56062380D01*
X65536666Y-56062380D01*
X65441428Y-56014761D01*
X65393809Y-55967142D01*
X65346190Y-55871904D01*
X65298571Y-55681428D01*
X65298571Y-55443333D01*
X65346190Y-55252857D01*
X65393809Y-55157619D01*
X65441428Y-55110000D01*
X65536666Y-55062380D01*
X66346190Y-56062380D02*
X66536666Y-56062380D01*
X66631904Y-56014761D01*
X66679523Y-55967142D01*
X66774761Y-55824285D01*
X66822380Y-55633809D01*
X66822380Y-55252857D01*
X66774761Y-55157619D01*
X66727142Y-55110000D01*
X66631904Y-55062380D01*
X66441428Y-55062380D01*
X66346190Y-55110000D01*
X66298571Y-55157619D01*
X66250952Y-55252857D01*
X66250952Y-55490952D01*
X66298571Y-55586190D01*
X66346190Y-55633809D01*
X66441428Y-55681428D01*
X66631904Y-55681428D01*
X66727142Y-55633809D01*
X66774761Y-55586190D01*
X66822380Y-55490952D01*
X67965238Y-55014761D02*
X67108095Y-56300476D01*
X68250952Y-55157619D02*
X68298571Y-55110000D01*
X68393809Y-55062380D01*
X68631904Y-55062380D01*
X68727142Y-55110000D01*
X68774761Y-55157619D01*
X68822380Y-55252857D01*
X68822380Y-55348095D01*
X68774761Y-55490952D01*
X68203333Y-56062380D01*
X68822380Y-56062380D01*
X69441428Y-55062380D02*
X69536666Y-55062380D01*
X69631904Y-55110000D01*
X69679523Y-55157619D01*
X69727142Y-55252857D01*
X69774761Y-55443333D01*
X69774761Y-55681428D01*
X69727142Y-55871904D01*
X69679523Y-55967142D01*
X69631904Y-56014761D01*
X69536666Y-56062380D01*
X69441428Y-56062380D01*
X69346190Y-56014761D01*
X69298571Y-55967142D01*
X69250952Y-55871904D01*
X69203333Y-55681428D01*
X69203333Y-55443333D01*
X69250952Y-55252857D01*
X69298571Y-55157619D01*
X69346190Y-55110000D01*
X69441428Y-55062380D01*
X70155714Y-55157619D02*
X70203333Y-55110000D01*
X70298571Y-55062380D01*
X70536666Y-55062380D01*
X70631904Y-55110000D01*
X70679523Y-55157619D01*
X70727142Y-55252857D01*
X70727142Y-55348095D01*
X70679523Y-55490952D01*
X70108095Y-56062380D01*
X70727142Y-56062380D01*
X71108095Y-55157619D02*
X71155714Y-55110000D01*
X71250952Y-55062380D01*
X71489047Y-55062380D01*
X71584285Y-55110000D01*
X71631904Y-55157619D01*
X71679523Y-55252857D01*
X71679523Y-55348095D01*
X71631904Y-55490952D01*
X71060476Y-56062380D01*
X71679523Y-56062380D01*
D11*
X90294047Y-52571428D02*
X91055952Y-52571428D01*
D10*
X51415714Y-115542857D02*
X51415714Y-114342857D01*
X51987142Y-115542857D02*
X51987142Y-114342857D01*
X52672857Y-115542857D01*
X52672857Y-114342857D01*
X53244285Y-115542857D02*
X53244285Y-114342857D01*
X53701428Y-114342857D01*
X53815714Y-114400000D01*
X53872857Y-114457142D01*
X53930000Y-114571428D01*
X53930000Y-114742857D01*
X53872857Y-114857142D01*
X53815714Y-114914285D01*
X53701428Y-114971428D01*
X53244285Y-114971428D01*
X54444285Y-114342857D02*
X54444285Y-115314285D01*
X54501428Y-115428571D01*
X54558571Y-115485714D01*
X54672857Y-115542857D01*
X54901428Y-115542857D01*
X55015714Y-115485714D01*
X55072857Y-115428571D01*
X55130000Y-115314285D01*
X55130000Y-114342857D01*
X55530000Y-114342857D02*
X56215714Y-114342857D01*
X55872857Y-115542857D02*
X55872857Y-114342857D01*
X73757142Y-118952380D02*
X73185714Y-118952380D01*
X73471428Y-118952380D02*
X73471428Y-117952380D01*
X73376190Y-118095238D01*
X73280952Y-118190476D01*
X73185714Y-118238095D01*
X74376190Y-118476190D02*
X74376190Y-118952380D01*
X74042857Y-117952380D02*
X74376190Y-118476190D01*
X74709523Y-117952380D01*
D11*
X84294047Y-52571428D02*
X85055952Y-52571428D01*
X84675000Y-52952380D02*
X84675000Y-52190476D01*
%TO.C,D4*%
X68761904Y-73452380D02*
X68761904Y-72452380D01*
X69000000Y-72452380D01*
X69142857Y-72500000D01*
X69238095Y-72595238D01*
X69285714Y-72690476D01*
X69333333Y-72880952D01*
X69333333Y-73023809D01*
X69285714Y-73214285D01*
X69238095Y-73309523D01*
X69142857Y-73404761D01*
X69000000Y-73452380D01*
X68761904Y-73452380D01*
X70190476Y-72785714D02*
X70190476Y-73452380D01*
X69952380Y-72404761D02*
X69714285Y-73119047D01*
X70333333Y-73119047D01*
%TO.C,J6*%
X85166666Y-63452380D02*
X85166666Y-64166666D01*
X85119047Y-64309523D01*
X85023809Y-64404761D01*
X84880952Y-64452380D01*
X84785714Y-64452380D01*
X86071428Y-63452380D02*
X85880952Y-63452380D01*
X85785714Y-63500000D01*
X85738095Y-63547619D01*
X85642857Y-63690476D01*
X85595238Y-63880952D01*
X85595238Y-64261904D01*
X85642857Y-64357142D01*
X85690476Y-64404761D01*
X85785714Y-64452380D01*
X85976190Y-64452380D01*
X86071428Y-64404761D01*
X86119047Y-64357142D01*
X86166666Y-64261904D01*
X86166666Y-64023809D01*
X86119047Y-63928571D01*
X86071428Y-63880952D01*
X85976190Y-63833333D01*
X85785714Y-63833333D01*
X85690476Y-63880952D01*
X85642857Y-63928571D01*
X85595238Y-64023809D01*
%TO.C,R6*%
X92833333Y-83952380D02*
X92500000Y-83476190D01*
X92261904Y-83952380D02*
X92261904Y-82952380D01*
X92642857Y-82952380D01*
X92738095Y-83000000D01*
X92785714Y-83047619D01*
X92833333Y-83142857D01*
X92833333Y-83285714D01*
X92785714Y-83380952D01*
X92738095Y-83428571D01*
X92642857Y-83476190D01*
X92261904Y-83476190D01*
X93690476Y-82952380D02*
X93500000Y-82952380D01*
X93404761Y-83000000D01*
X93357142Y-83047619D01*
X93261904Y-83190476D01*
X93214285Y-83380952D01*
X93214285Y-83761904D01*
X93261904Y-83857142D01*
X93309523Y-83904761D01*
X93404761Y-83952380D01*
X93595238Y-83952380D01*
X93690476Y-83904761D01*
X93738095Y-83857142D01*
X93785714Y-83761904D01*
X93785714Y-83523809D01*
X93738095Y-83428571D01*
X93690476Y-83380952D01*
X93595238Y-83333333D01*
X93404761Y-83333333D01*
X93309523Y-83380952D01*
X93261904Y-83428571D01*
X93214285Y-83523809D01*
%TO.C,J2*%
X77666666Y-66452380D02*
X77666666Y-67166666D01*
X77619047Y-67309523D01*
X77523809Y-67404761D01*
X77380952Y-67452380D01*
X77285714Y-67452380D01*
X78095238Y-66547619D02*
X78142857Y-66500000D01*
X78238095Y-66452380D01*
X78476190Y-66452380D01*
X78571428Y-66500000D01*
X78619047Y-66547619D01*
X78666666Y-66642857D01*
X78666666Y-66738095D01*
X78619047Y-66880952D01*
X78047619Y-67452380D01*
X78666666Y-67452380D01*
%TO.C,C2*%
X90333333Y-60857142D02*
X90285714Y-60904761D01*
X90142857Y-60952380D01*
X90047619Y-60952380D01*
X89904761Y-60904761D01*
X89809523Y-60809523D01*
X89761904Y-60714285D01*
X89714285Y-60523809D01*
X89714285Y-60380952D01*
X89761904Y-60190476D01*
X89809523Y-60095238D01*
X89904761Y-60000000D01*
X90047619Y-59952380D01*
X90142857Y-59952380D01*
X90285714Y-60000000D01*
X90333333Y-60047619D01*
X90714285Y-60047619D02*
X90761904Y-60000000D01*
X90857142Y-59952380D01*
X91095238Y-59952380D01*
X91190476Y-60000000D01*
X91238095Y-60047619D01*
X91285714Y-60142857D01*
X91285714Y-60238095D01*
X91238095Y-60380952D01*
X90666666Y-60952380D01*
X91285714Y-60952380D01*
%TO.C,D2*%
X63261904Y-81452380D02*
X63261904Y-80452380D01*
X63500000Y-80452380D01*
X63642857Y-80500000D01*
X63738095Y-80595238D01*
X63785714Y-80690476D01*
X63833333Y-80880952D01*
X63833333Y-81023809D01*
X63785714Y-81214285D01*
X63738095Y-81309523D01*
X63642857Y-81404761D01*
X63500000Y-81452380D01*
X63261904Y-81452380D01*
X64214285Y-80547619D02*
X64261904Y-80500000D01*
X64357142Y-80452380D01*
X64595238Y-80452380D01*
X64690476Y-80500000D01*
X64738095Y-80547619D01*
X64785714Y-80642857D01*
X64785714Y-80738095D01*
X64738095Y-80880952D01*
X64166666Y-81452380D01*
X64785714Y-81452380D01*
%TO.C,R1*%
X71333333Y-86372380D02*
X71000000Y-85896190D01*
X70761904Y-86372380D02*
X70761904Y-85372380D01*
X71142857Y-85372380D01*
X71238095Y-85420000D01*
X71285714Y-85467619D01*
X71333333Y-85562857D01*
X71333333Y-85705714D01*
X71285714Y-85800952D01*
X71238095Y-85848571D01*
X71142857Y-85896190D01*
X70761904Y-85896190D01*
X72285714Y-86372380D02*
X71714285Y-86372380D01*
X72000000Y-86372380D02*
X72000000Y-85372380D01*
X71904761Y-85515238D01*
X71809523Y-85610476D01*
X71714285Y-85658095D01*
%TO.C,R7*%
X89833333Y-86452380D02*
X89500000Y-85976190D01*
X89261904Y-86452380D02*
X89261904Y-85452380D01*
X89642857Y-85452380D01*
X89738095Y-85500000D01*
X89785714Y-85547619D01*
X89833333Y-85642857D01*
X89833333Y-85785714D01*
X89785714Y-85880952D01*
X89738095Y-85928571D01*
X89642857Y-85976190D01*
X89261904Y-85976190D01*
X90166666Y-85452380D02*
X90833333Y-85452380D01*
X90404761Y-86452380D01*
%TO.C,R4*%
X58833333Y-80049880D02*
X58500000Y-79573690D01*
X58261904Y-80049880D02*
X58261904Y-79049880D01*
X58642857Y-79049880D01*
X58738095Y-79097500D01*
X58785714Y-79145119D01*
X58833333Y-79240357D01*
X58833333Y-79383214D01*
X58785714Y-79478452D01*
X58738095Y-79526071D01*
X58642857Y-79573690D01*
X58261904Y-79573690D01*
X59690476Y-79383214D02*
X59690476Y-80049880D01*
X59452380Y-79002261D02*
X59214285Y-79716547D01*
X59833333Y-79716547D01*
%TO.C,J5*%
X69416666Y-63452380D02*
X69416666Y-64166666D01*
X69369047Y-64309523D01*
X69273809Y-64404761D01*
X69130952Y-64452380D01*
X69035714Y-64452380D01*
X70369047Y-63452380D02*
X69892857Y-63452380D01*
X69845238Y-63928571D01*
X69892857Y-63880952D01*
X69988095Y-63833333D01*
X70226190Y-63833333D01*
X70321428Y-63880952D01*
X70369047Y-63928571D01*
X70416666Y-64023809D01*
X70416666Y-64261904D01*
X70369047Y-64357142D01*
X70321428Y-64404761D01*
X70226190Y-64452380D01*
X69988095Y-64452380D01*
X69892857Y-64404761D01*
X69845238Y-64357142D01*
%TO.C,J3*%
X54166666Y-78322380D02*
X54166666Y-79036666D01*
X54119047Y-79179523D01*
X54023809Y-79274761D01*
X53880952Y-79322380D01*
X53785714Y-79322380D01*
X54547619Y-78322380D02*
X55166666Y-78322380D01*
X54833333Y-78703333D01*
X54976190Y-78703333D01*
X55071428Y-78750952D01*
X55119047Y-78798571D01*
X55166666Y-78893809D01*
X55166666Y-79131904D01*
X55119047Y-79227142D01*
X55071428Y-79274761D01*
X54976190Y-79322380D01*
X54690476Y-79322380D01*
X54595238Y-79274761D01*
X54547619Y-79227142D01*
%TO.C,J1*%
X51621309Y-112952380D02*
X51621309Y-113666666D01*
X51573690Y-113809523D01*
X51478452Y-113904761D01*
X51335595Y-113952380D01*
X51240357Y-113952380D01*
X52621309Y-113952380D02*
X52049880Y-113952380D01*
X52335595Y-113952380D02*
X52335595Y-112952380D01*
X52240357Y-113095238D01*
X52145119Y-113190476D01*
X52049880Y-113238095D01*
%TO.C,C7*%
X58833333Y-76308807D02*
X58785714Y-76356426D01*
X58642857Y-76404045D01*
X58547619Y-76404045D01*
X58404761Y-76356426D01*
X58309523Y-76261188D01*
X58261904Y-76165950D01*
X58214285Y-75975474D01*
X58214285Y-75832617D01*
X58261904Y-75642141D01*
X58309523Y-75546903D01*
X58404761Y-75451665D01*
X58547619Y-75404045D01*
X58642857Y-75404045D01*
X58785714Y-75451665D01*
X58833333Y-75499284D01*
X59166666Y-75404045D02*
X59833333Y-75404045D01*
X59404761Y-76404045D01*
%TO.C,J11*%
X85782380Y-116809523D02*
X86496666Y-116809523D01*
X86639523Y-116857142D01*
X86734761Y-116952380D01*
X86782380Y-117095238D01*
X86782380Y-117190476D01*
X86782380Y-115809523D02*
X86782380Y-116380952D01*
X86782380Y-116095238D02*
X85782380Y-116095238D01*
X85925238Y-116190476D01*
X86020476Y-116285714D01*
X86068095Y-116380952D01*
X86782380Y-114857142D02*
X86782380Y-115428571D01*
X86782380Y-115142857D02*
X85782380Y-115142857D01*
X85925238Y-115238095D01*
X86020476Y-115333333D01*
X86068095Y-115428571D01*
%TO.C,C1*%
X67333333Y-86161307D02*
X67285714Y-86208926D01*
X67142857Y-86256545D01*
X67047619Y-86256545D01*
X66904761Y-86208926D01*
X66809523Y-86113688D01*
X66761904Y-86018450D01*
X66714285Y-85827974D01*
X66714285Y-85685117D01*
X66761904Y-85494641D01*
X66809523Y-85399403D01*
X66904761Y-85304165D01*
X67047619Y-85256545D01*
X67142857Y-85256545D01*
X67285714Y-85304165D01*
X67333333Y-85351784D01*
X68285714Y-86256545D02*
X67714285Y-86256545D01*
X68000000Y-86256545D02*
X68000000Y-85256545D01*
X67904761Y-85399403D01*
X67809523Y-85494641D01*
X67714285Y-85542260D01*
%TO.C,C3*%
X58833333Y-82857142D02*
X58785714Y-82904761D01*
X58642857Y-82952380D01*
X58547619Y-82952380D01*
X58404761Y-82904761D01*
X58309523Y-82809523D01*
X58261904Y-82714285D01*
X58214285Y-82523809D01*
X58214285Y-82380952D01*
X58261904Y-82190476D01*
X58309523Y-82095238D01*
X58404761Y-82000000D01*
X58547619Y-81952380D01*
X58642857Y-81952380D01*
X58785714Y-82000000D01*
X58833333Y-82047619D01*
X59166666Y-81952380D02*
X59785714Y-81952380D01*
X59452380Y-82333333D01*
X59595238Y-82333333D01*
X59690476Y-82380952D01*
X59738095Y-82428571D01*
X59785714Y-82523809D01*
X59785714Y-82761904D01*
X59738095Y-82857142D01*
X59690476Y-82904761D01*
X59595238Y-82952380D01*
X59309523Y-82952380D01*
X59214285Y-82904761D01*
X59166666Y-82857142D01*
%TO.C,D3*%
X69761904Y-77952380D02*
X69761904Y-76952380D01*
X70000000Y-76952380D01*
X70142857Y-77000000D01*
X70238095Y-77095238D01*
X70285714Y-77190476D01*
X70333333Y-77380952D01*
X70333333Y-77523809D01*
X70285714Y-77714285D01*
X70238095Y-77809523D01*
X70142857Y-77904761D01*
X70000000Y-77952380D01*
X69761904Y-77952380D01*
X70666666Y-76952380D02*
X71285714Y-76952380D01*
X70952380Y-77333333D01*
X71095238Y-77333333D01*
X71190476Y-77380952D01*
X71238095Y-77428571D01*
X71285714Y-77523809D01*
X71285714Y-77761904D01*
X71238095Y-77857142D01*
X71190476Y-77904761D01*
X71095238Y-77952380D01*
X70809523Y-77952380D01*
X70714285Y-77904761D01*
X70666666Y-77857142D01*
%TO.C,C12*%
X95857142Y-84857142D02*
X95809523Y-84904761D01*
X95666666Y-84952380D01*
X95571428Y-84952380D01*
X95428571Y-84904761D01*
X95333333Y-84809523D01*
X95285714Y-84714285D01*
X95238095Y-84523809D01*
X95238095Y-84380952D01*
X95285714Y-84190476D01*
X95333333Y-84095238D01*
X95428571Y-84000000D01*
X95571428Y-83952380D01*
X95666666Y-83952380D01*
X95809523Y-84000000D01*
X95857142Y-84047619D01*
X96809523Y-84952380D02*
X96238095Y-84952380D01*
X96523809Y-84952380D02*
X96523809Y-83952380D01*
X96428571Y-84095238D01*
X96333333Y-84190476D01*
X96238095Y-84238095D01*
X97190476Y-84047619D02*
X97238095Y-84000000D01*
X97333333Y-83952380D01*
X97571428Y-83952380D01*
X97666666Y-84000000D01*
X97714285Y-84047619D01*
X97761904Y-84142857D01*
X97761904Y-84238095D01*
X97714285Y-84380952D01*
X97142857Y-84952380D01*
X97761904Y-84952380D01*
%TO.C,R11*%
X84357142Y-77952380D02*
X84023809Y-77476190D01*
X83785714Y-77952380D02*
X83785714Y-76952380D01*
X84166666Y-76952380D01*
X84261904Y-77000000D01*
X84309523Y-77047619D01*
X84357142Y-77142857D01*
X84357142Y-77285714D01*
X84309523Y-77380952D01*
X84261904Y-77428571D01*
X84166666Y-77476190D01*
X83785714Y-77476190D01*
X85309523Y-77952380D02*
X84738095Y-77952380D01*
X85023809Y-77952380D02*
X85023809Y-76952380D01*
X84928571Y-77095238D01*
X84833333Y-77190476D01*
X84738095Y-77238095D01*
X86261904Y-77952380D02*
X85690476Y-77952380D01*
X85976190Y-77952380D02*
X85976190Y-76952380D01*
X85880952Y-77095238D01*
X85785714Y-77190476D01*
X85690476Y-77238095D01*
%TO.C,D7*%
X86761904Y-81452380D02*
X86761904Y-80452380D01*
X87000000Y-80452380D01*
X87142857Y-80500000D01*
X87238095Y-80595238D01*
X87285714Y-80690476D01*
X87333333Y-80880952D01*
X87333333Y-81023809D01*
X87285714Y-81214285D01*
X87238095Y-81309523D01*
X87142857Y-81404761D01*
X87000000Y-81452380D01*
X86761904Y-81452380D01*
X87666666Y-80452380D02*
X88333333Y-80452380D01*
X87904761Y-81452380D01*
%TO.C,R2*%
X67333333Y-82784759D02*
X67000000Y-82308569D01*
X66761904Y-82784759D02*
X66761904Y-81784759D01*
X67142857Y-81784759D01*
X67238095Y-81832379D01*
X67285714Y-81879998D01*
X67333333Y-81975236D01*
X67333333Y-82118093D01*
X67285714Y-82213331D01*
X67238095Y-82260950D01*
X67142857Y-82308569D01*
X66761904Y-82308569D01*
X67714285Y-81879998D02*
X67761904Y-81832379D01*
X67857142Y-81784759D01*
X68095238Y-81784759D01*
X68190476Y-81832379D01*
X68238095Y-81879998D01*
X68285714Y-81975236D01*
X68285714Y-82070474D01*
X68238095Y-82213331D01*
X67666666Y-82784759D01*
X68285714Y-82784759D01*
%TO.C,R5*%
X97060397Y-60952380D02*
X96727064Y-60476190D01*
X96488968Y-60952380D02*
X96488968Y-59952380D01*
X96869921Y-59952380D01*
X96965159Y-60000000D01*
X97012778Y-60047619D01*
X97060397Y-60142857D01*
X97060397Y-60285714D01*
X97012778Y-60380952D01*
X96965159Y-60428571D01*
X96869921Y-60476190D01*
X96488968Y-60476190D01*
X97965159Y-59952380D02*
X97488968Y-59952380D01*
X97441349Y-60428571D01*
X97488968Y-60380952D01*
X97584206Y-60333333D01*
X97822302Y-60333333D01*
X97917540Y-60380952D01*
X97965159Y-60428571D01*
X98012778Y-60523809D01*
X98012778Y-60761904D01*
X97965159Y-60857142D01*
X97917540Y-60904761D01*
X97822302Y-60952380D01*
X97584206Y-60952380D01*
X97488968Y-60904761D01*
X97441349Y-60857142D01*
%TO.C,C8*%
X78833333Y-73857142D02*
X78785714Y-73904761D01*
X78642857Y-73952380D01*
X78547619Y-73952380D01*
X78404761Y-73904761D01*
X78309523Y-73809523D01*
X78261904Y-73714285D01*
X78214285Y-73523809D01*
X78214285Y-73380952D01*
X78261904Y-73190476D01*
X78309523Y-73095238D01*
X78404761Y-73000000D01*
X78547619Y-72952380D01*
X78642857Y-72952380D01*
X78785714Y-73000000D01*
X78833333Y-73047619D01*
X79404761Y-73380952D02*
X79309523Y-73333333D01*
X79261904Y-73285714D01*
X79214285Y-73190476D01*
X79214285Y-73142857D01*
X79261904Y-73047619D01*
X79309523Y-73000000D01*
X79404761Y-72952380D01*
X79595238Y-72952380D01*
X79690476Y-73000000D01*
X79738095Y-73047619D01*
X79785714Y-73142857D01*
X79785714Y-73190476D01*
X79738095Y-73285714D01*
X79690476Y-73333333D01*
X79595238Y-73380952D01*
X79404761Y-73380952D01*
X79309523Y-73428571D01*
X79261904Y-73476190D01*
X79214285Y-73571428D01*
X79214285Y-73761904D01*
X79261904Y-73857142D01*
X79309523Y-73904761D01*
X79404761Y-73952380D01*
X79595238Y-73952380D01*
X79690476Y-73904761D01*
X79738095Y-73857142D01*
X79785714Y-73761904D01*
X79785714Y-73571428D01*
X79738095Y-73476190D01*
X79690476Y-73428571D01*
X79595238Y-73380952D01*
%TO.C,R3*%
X71333333Y-82872380D02*
X71000000Y-82396190D01*
X70761904Y-82872380D02*
X70761904Y-81872380D01*
X71142857Y-81872380D01*
X71238095Y-81920000D01*
X71285714Y-81967619D01*
X71333333Y-82062857D01*
X71333333Y-82205714D01*
X71285714Y-82300952D01*
X71238095Y-82348571D01*
X71142857Y-82396190D01*
X70761904Y-82396190D01*
X71666666Y-81872380D02*
X72285714Y-81872380D01*
X71952380Y-82253333D01*
X72095238Y-82253333D01*
X72190476Y-82300952D01*
X72238095Y-82348571D01*
X72285714Y-82443809D01*
X72285714Y-82681904D01*
X72238095Y-82777142D01*
X72190476Y-82824761D01*
X72095238Y-82872380D01*
X71809523Y-82872380D01*
X71714285Y-82824761D01*
X71666666Y-82777142D01*
%TO.C,J9*%
X101166666Y-89452380D02*
X101166666Y-90166666D01*
X101119047Y-90309523D01*
X101023809Y-90404761D01*
X100880952Y-90452380D01*
X100785714Y-90452380D01*
X101690476Y-90452380D02*
X101880952Y-90452380D01*
X101976190Y-90404761D01*
X102023809Y-90357142D01*
X102119047Y-90214285D01*
X102166666Y-90023809D01*
X102166666Y-89642857D01*
X102119047Y-89547619D01*
X102071428Y-89500000D01*
X101976190Y-89452380D01*
X101785714Y-89452380D01*
X101690476Y-89500000D01*
X101642857Y-89547619D01*
X101595238Y-89642857D01*
X101595238Y-89880952D01*
X101642857Y-89976190D01*
X101690476Y-90023809D01*
X101785714Y-90071428D01*
X101976190Y-90071428D01*
X102071428Y-90023809D01*
X102119047Y-89976190D01*
X102166666Y-89880952D01*
%TO.C,U1*%
X77238095Y-80952380D02*
X77238095Y-81761904D01*
X77285714Y-81857142D01*
X77333333Y-81904761D01*
X77428571Y-81952380D01*
X77619047Y-81952380D01*
X77714285Y-81904761D01*
X77761904Y-81857142D01*
X77809523Y-81761904D01*
X77809523Y-80952380D01*
X78809523Y-81952380D02*
X78238095Y-81952380D01*
X78523809Y-81952380D02*
X78523809Y-80952380D01*
X78428571Y-81095238D01*
X78333333Y-81190476D01*
X78238095Y-81238095D01*
%TO.C,C4*%
X93433333Y-60857142D02*
X93385714Y-60904761D01*
X93242857Y-60952380D01*
X93147619Y-60952380D01*
X93004761Y-60904761D01*
X92909523Y-60809523D01*
X92861904Y-60714285D01*
X92814285Y-60523809D01*
X92814285Y-60380952D01*
X92861904Y-60190476D01*
X92909523Y-60095238D01*
X93004761Y-60000000D01*
X93147619Y-59952380D01*
X93242857Y-59952380D01*
X93385714Y-60000000D01*
X93433333Y-60047619D01*
X94290476Y-60285714D02*
X94290476Y-60952380D01*
X94052380Y-59904761D02*
X93814285Y-60619047D01*
X94433333Y-60619047D01*
%TO.C,J7*%
X85166666Y-68032380D02*
X85166666Y-68746666D01*
X85119047Y-68889523D01*
X85023809Y-68984761D01*
X84880952Y-69032380D01*
X84785714Y-69032380D01*
X85547619Y-68032380D02*
X86214285Y-68032380D01*
X85785714Y-69032380D01*
%TO.C,D1*%
X85286904Y-60952380D02*
X85286904Y-59952380D01*
X85525000Y-59952380D01*
X85667857Y-60000000D01*
X85763095Y-60095238D01*
X85810714Y-60190476D01*
X85858333Y-60380952D01*
X85858333Y-60523809D01*
X85810714Y-60714285D01*
X85763095Y-60809523D01*
X85667857Y-60904761D01*
X85525000Y-60952380D01*
X85286904Y-60952380D01*
X86810714Y-60952380D02*
X86239285Y-60952380D01*
X86525000Y-60952380D02*
X86525000Y-59952380D01*
X86429761Y-60095238D01*
X86334523Y-60190476D01*
X86239285Y-60238095D01*
%TO.C,J10*%
X102759642Y-112952380D02*
X102759642Y-113666666D01*
X102712023Y-113809523D01*
X102616785Y-113904761D01*
X102473928Y-113952380D01*
X102378690Y-113952380D01*
X103759642Y-113952380D02*
X103188214Y-113952380D01*
X103473928Y-113952380D02*
X103473928Y-112952380D01*
X103378690Y-113095238D01*
X103283452Y-113190476D01*
X103188214Y-113238095D01*
X104378690Y-112952380D02*
X104473928Y-112952380D01*
X104569166Y-113000000D01*
X104616785Y-113047619D01*
X104664404Y-113142857D01*
X104712023Y-113333333D01*
X104712023Y-113571428D01*
X104664404Y-113761904D01*
X104616785Y-113857142D01*
X104569166Y-113904761D01*
X104473928Y-113952380D01*
X104378690Y-113952380D01*
X104283452Y-113904761D01*
X104235833Y-113857142D01*
X104188214Y-113761904D01*
X104140595Y-113571428D01*
X104140595Y-113333333D01*
X104188214Y-113142857D01*
X104235833Y-113047619D01*
X104283452Y-113000000D01*
X104378690Y-112952380D01*
%TO.C,R8*%
X73833333Y-73952380D02*
X73500000Y-73476190D01*
X73261904Y-73952380D02*
X73261904Y-72952380D01*
X73642857Y-72952380D01*
X73738095Y-73000000D01*
X73785714Y-73047619D01*
X73833333Y-73142857D01*
X73833333Y-73285714D01*
X73785714Y-73380952D01*
X73738095Y-73428571D01*
X73642857Y-73476190D01*
X73261904Y-73476190D01*
X74404761Y-73380952D02*
X74309523Y-73333333D01*
X74261904Y-73285714D01*
X74214285Y-73190476D01*
X74214285Y-73142857D01*
X74261904Y-73047619D01*
X74309523Y-73000000D01*
X74404761Y-72952380D01*
X74595238Y-72952380D01*
X74690476Y-73000000D01*
X74738095Y-73047619D01*
X74785714Y-73142857D01*
X74785714Y-73190476D01*
X74738095Y-73285714D01*
X74690476Y-73333333D01*
X74595238Y-73380952D01*
X74404761Y-73380952D01*
X74309523Y-73428571D01*
X74261904Y-73476190D01*
X74214285Y-73571428D01*
X74214285Y-73761904D01*
X74261904Y-73857142D01*
X74309523Y-73904761D01*
X74404761Y-73952380D01*
X74595238Y-73952380D01*
X74690476Y-73904761D01*
X74738095Y-73857142D01*
X74785714Y-73761904D01*
X74785714Y-73571428D01*
X74738095Y-73476190D01*
X74690476Y-73428571D01*
X74595238Y-73380952D01*
%TO.C,D6*%
X90761904Y-81452380D02*
X90761904Y-80452380D01*
X91000000Y-80452380D01*
X91142857Y-80500000D01*
X91238095Y-80595238D01*
X91285714Y-80690476D01*
X91333333Y-80880952D01*
X91333333Y-81023809D01*
X91285714Y-81214285D01*
X91238095Y-81309523D01*
X91142857Y-81404761D01*
X91000000Y-81452380D01*
X90761904Y-81452380D01*
X92190476Y-80452380D02*
X92000000Y-80452380D01*
X91904761Y-80500000D01*
X91857142Y-80547619D01*
X91761904Y-80690476D01*
X91714285Y-80880952D01*
X91714285Y-81261904D01*
X91761904Y-81357142D01*
X91809523Y-81404761D01*
X91904761Y-81452380D01*
X92095238Y-81452380D01*
X92190476Y-81404761D01*
X92238095Y-81357142D01*
X92285714Y-81261904D01*
X92285714Y-81023809D01*
X92238095Y-80928571D01*
X92190476Y-80880952D01*
X92095238Y-80833333D01*
X91904761Y-80833333D01*
X91809523Y-80880952D01*
X91761904Y-80928571D01*
X91714285Y-81023809D01*
%TO.C,D5*%
X92261904Y-73452380D02*
X92261904Y-72452380D01*
X92500000Y-72452380D01*
X92642857Y-72500000D01*
X92738095Y-72595238D01*
X92785714Y-72690476D01*
X92833333Y-72880952D01*
X92833333Y-73023809D01*
X92785714Y-73214285D01*
X92738095Y-73309523D01*
X92642857Y-73404761D01*
X92500000Y-73452380D01*
X92261904Y-73452380D01*
X93738095Y-72452380D02*
X93261904Y-72452380D01*
X93214285Y-72928571D01*
X93261904Y-72880952D01*
X93357142Y-72833333D01*
X93595238Y-72833333D01*
X93690476Y-72880952D01*
X93738095Y-72928571D01*
X93785714Y-73023809D01*
X93785714Y-73261904D01*
X93738095Y-73357142D01*
X93690476Y-73404761D01*
X93595238Y-73452380D01*
X93357142Y-73452380D01*
X93261904Y-73404761D01*
X93214285Y-73357142D01*
%TO.C,J8*%
X101166666Y-78452380D02*
X101166666Y-79166666D01*
X101119047Y-79309523D01*
X101023809Y-79404761D01*
X100880952Y-79452380D01*
X100785714Y-79452380D01*
X101785714Y-78880952D02*
X101690476Y-78833333D01*
X101642857Y-78785714D01*
X101595238Y-78690476D01*
X101595238Y-78642857D01*
X101642857Y-78547619D01*
X101690476Y-78500000D01*
X101785714Y-78452380D01*
X101976190Y-78452380D01*
X102071428Y-78500000D01*
X102119047Y-78547619D01*
X102166666Y-78642857D01*
X102166666Y-78690476D01*
X102119047Y-78785714D01*
X102071428Y-78833333D01*
X101976190Y-78880952D01*
X101785714Y-78880952D01*
X101690476Y-78928571D01*
X101642857Y-78976190D01*
X101595238Y-79071428D01*
X101595238Y-79261904D01*
X101642857Y-79357142D01*
X101690476Y-79404761D01*
X101785714Y-79452380D01*
X101976190Y-79452380D01*
X102071428Y-79404761D01*
X102119047Y-79357142D01*
X102166666Y-79261904D01*
X102166666Y-79071428D01*
X102119047Y-78976190D01*
X102071428Y-78928571D01*
X101976190Y-78880952D01*
%TO.C,R10*%
X64857142Y-115687259D02*
X64523809Y-115211069D01*
X64285714Y-115687259D02*
X64285714Y-114687259D01*
X64666666Y-114687259D01*
X64761904Y-114734879D01*
X64809523Y-114782498D01*
X64857142Y-114877736D01*
X64857142Y-115020593D01*
X64809523Y-115115831D01*
X64761904Y-115163450D01*
X64666666Y-115211069D01*
X64285714Y-115211069D01*
X65809523Y-115687259D02*
X65238095Y-115687259D01*
X65523809Y-115687259D02*
X65523809Y-114687259D01*
X65428571Y-114830117D01*
X65333333Y-114925355D01*
X65238095Y-114972974D01*
X66428571Y-114687259D02*
X66523809Y-114687259D01*
X66619047Y-114734879D01*
X66666666Y-114782498D01*
X66714285Y-114877736D01*
X66761904Y-115068212D01*
X66761904Y-115306307D01*
X66714285Y-115496783D01*
X66666666Y-115592021D01*
X66619047Y-115639640D01*
X66523809Y-115687259D01*
X66428571Y-115687259D01*
X66333333Y-115639640D01*
X66285714Y-115592021D01*
X66238095Y-115496783D01*
X66190476Y-115306307D01*
X66190476Y-115068212D01*
X66238095Y-114877736D01*
X66285714Y-114782498D01*
X66333333Y-114734879D01*
X66428571Y-114687259D01*
%TO.C,D8*%
X77261904Y-84452380D02*
X77261904Y-83452380D01*
X77500000Y-83452380D01*
X77642857Y-83500000D01*
X77738095Y-83595238D01*
X77785714Y-83690476D01*
X77833333Y-83880952D01*
X77833333Y-84023809D01*
X77785714Y-84214285D01*
X77738095Y-84309523D01*
X77642857Y-84404761D01*
X77500000Y-84452380D01*
X77261904Y-84452380D01*
X78404761Y-83880952D02*
X78309523Y-83833333D01*
X78261904Y-83785714D01*
X78214285Y-83690476D01*
X78214285Y-83642857D01*
X78261904Y-83547619D01*
X78309523Y-83500000D01*
X78404761Y-83452380D01*
X78595238Y-83452380D01*
X78690476Y-83500000D01*
X78738095Y-83547619D01*
X78785714Y-83642857D01*
X78785714Y-83690476D01*
X78738095Y-83785714D01*
X78690476Y-83833333D01*
X78595238Y-83880952D01*
X78404761Y-83880952D01*
X78309523Y-83928571D01*
X78261904Y-83976190D01*
X78214285Y-84071428D01*
X78214285Y-84261904D01*
X78261904Y-84357142D01*
X78309523Y-84404761D01*
X78404761Y-84452380D01*
X78595238Y-84452380D01*
X78690476Y-84404761D01*
X78738095Y-84357142D01*
X78785714Y-84261904D01*
X78785714Y-84071428D01*
X78738095Y-83976190D01*
X78690476Y-83928571D01*
X78595238Y-83880952D01*
%TO.C,C11*%
X77857142Y-70424642D02*
X77809523Y-70472261D01*
X77666666Y-70519880D01*
X77571428Y-70519880D01*
X77428571Y-70472261D01*
X77333333Y-70377023D01*
X77285714Y-70281785D01*
X77238095Y-70091309D01*
X77238095Y-69948452D01*
X77285714Y-69757976D01*
X77333333Y-69662738D01*
X77428571Y-69567500D01*
X77571428Y-69519880D01*
X77666666Y-69519880D01*
X77809523Y-69567500D01*
X77857142Y-69615119D01*
X78809523Y-70519880D02*
X78238095Y-70519880D01*
X78523809Y-70519880D02*
X78523809Y-69519880D01*
X78428571Y-69662738D01*
X78333333Y-69757976D01*
X78238095Y-69805595D01*
X79761904Y-70519880D02*
X79190476Y-70519880D01*
X79476190Y-70519880D02*
X79476190Y-69519880D01*
X79380952Y-69662738D01*
X79285714Y-69757976D01*
X79190476Y-69805595D01*
%TO.C,C9*%
X85833333Y-88357142D02*
X85785714Y-88404761D01*
X85642857Y-88452380D01*
X85547619Y-88452380D01*
X85404761Y-88404761D01*
X85309523Y-88309523D01*
X85261904Y-88214285D01*
X85214285Y-88023809D01*
X85214285Y-87880952D01*
X85261904Y-87690476D01*
X85309523Y-87595238D01*
X85404761Y-87500000D01*
X85547619Y-87452380D01*
X85642857Y-87452380D01*
X85785714Y-87500000D01*
X85833333Y-87547619D01*
X86309523Y-88452380D02*
X86500000Y-88452380D01*
X86595238Y-88404761D01*
X86642857Y-88357142D01*
X86738095Y-88214285D01*
X86785714Y-88023809D01*
X86785714Y-87642857D01*
X86738095Y-87547619D01*
X86690476Y-87500000D01*
X86595238Y-87452380D01*
X86404761Y-87452380D01*
X86309523Y-87500000D01*
X86261904Y-87547619D01*
X86214285Y-87642857D01*
X86214285Y-87880952D01*
X86261904Y-87976190D01*
X86309523Y-88023809D01*
X86404761Y-88071428D01*
X86595238Y-88071428D01*
X86690476Y-88023809D01*
X86738095Y-87976190D01*
X86785714Y-87880952D01*
%TO.C,C6*%
X84833333Y-73357142D02*
X84785714Y-73404761D01*
X84642857Y-73452380D01*
X84547619Y-73452380D01*
X84404761Y-73404761D01*
X84309523Y-73309523D01*
X84261904Y-73214285D01*
X84214285Y-73023809D01*
X84214285Y-72880952D01*
X84261904Y-72690476D01*
X84309523Y-72595238D01*
X84404761Y-72500000D01*
X84547619Y-72452380D01*
X84642857Y-72452380D01*
X84785714Y-72500000D01*
X84833333Y-72547619D01*
X85690476Y-72452380D02*
X85500000Y-72452380D01*
X85404761Y-72500000D01*
X85357142Y-72547619D01*
X85261904Y-72690476D01*
X85214285Y-72880952D01*
X85214285Y-73261904D01*
X85261904Y-73357142D01*
X85309523Y-73404761D01*
X85404761Y-73452380D01*
X85595238Y-73452380D01*
X85690476Y-73404761D01*
X85738095Y-73357142D01*
X85785714Y-73261904D01*
X85785714Y-73023809D01*
X85738095Y-72928571D01*
X85690476Y-72880952D01*
X85595238Y-72833333D01*
X85404761Y-72833333D01*
X85309523Y-72880952D01*
X85261904Y-72928571D01*
X85214285Y-73023809D01*
%TO.C,C5*%
X101833333Y-58857142D02*
X101785714Y-58904761D01*
X101642857Y-58952380D01*
X101547619Y-58952380D01*
X101404761Y-58904761D01*
X101309523Y-58809523D01*
X101261904Y-58714285D01*
X101214285Y-58523809D01*
X101214285Y-58380952D01*
X101261904Y-58190476D01*
X101309523Y-58095238D01*
X101404761Y-58000000D01*
X101547619Y-57952380D01*
X101642857Y-57952380D01*
X101785714Y-58000000D01*
X101833333Y-58047619D01*
X102738095Y-57952380D02*
X102261904Y-57952380D01*
X102214285Y-58428571D01*
X102261904Y-58380952D01*
X102357142Y-58333333D01*
X102595238Y-58333333D01*
X102690476Y-58380952D01*
X102738095Y-58428571D01*
X102785714Y-58523809D01*
X102785714Y-58761904D01*
X102738095Y-58857142D01*
X102690476Y-58904761D01*
X102595238Y-58952380D01*
X102357142Y-58952380D01*
X102261904Y-58904761D01*
X102214285Y-58857142D01*
%TO.C,C10*%
X82357142Y-81919642D02*
X82309523Y-81967261D01*
X82166666Y-82014880D01*
X82071428Y-82014880D01*
X81928571Y-81967261D01*
X81833333Y-81872023D01*
X81785714Y-81776785D01*
X81738095Y-81586309D01*
X81738095Y-81443452D01*
X81785714Y-81252976D01*
X81833333Y-81157738D01*
X81928571Y-81062500D01*
X82071428Y-81014880D01*
X82166666Y-81014880D01*
X82309523Y-81062500D01*
X82357142Y-81110119D01*
X83309523Y-82014880D02*
X82738095Y-82014880D01*
X83023809Y-82014880D02*
X83023809Y-81014880D01*
X82928571Y-81157738D01*
X82833333Y-81252976D01*
X82738095Y-81300595D01*
X83928571Y-81014880D02*
X84023809Y-81014880D01*
X84119047Y-81062500D01*
X84166666Y-81110119D01*
X84214285Y-81205357D01*
X84261904Y-81395833D01*
X84261904Y-81633928D01*
X84214285Y-81824404D01*
X84166666Y-81919642D01*
X84119047Y-81967261D01*
X84023809Y-82014880D01*
X83928571Y-82014880D01*
X83833333Y-81967261D01*
X83785714Y-81919642D01*
X83738095Y-81824404D01*
X83690476Y-81633928D01*
X83690476Y-81395833D01*
X83738095Y-81205357D01*
X83785714Y-81110119D01*
X83833333Y-81062500D01*
X83928571Y-81014880D01*
%TO.C,J4*%
X69416666Y-68032380D02*
X69416666Y-68746666D01*
X69369047Y-68889523D01*
X69273809Y-68984761D01*
X69130952Y-69032380D01*
X69035714Y-69032380D01*
X70321428Y-68365714D02*
X70321428Y-69032380D01*
X70083333Y-67984761D02*
X69845238Y-68699047D01*
X70464285Y-68699047D01*
%TO.C,R9*%
X82833333Y-89854880D02*
X82500000Y-89378690D01*
X82261904Y-89854880D02*
X82261904Y-88854880D01*
X82642857Y-88854880D01*
X82738095Y-88902500D01*
X82785714Y-88950119D01*
X82833333Y-89045357D01*
X82833333Y-89188214D01*
X82785714Y-89283452D01*
X82738095Y-89331071D01*
X82642857Y-89378690D01*
X82261904Y-89378690D01*
X83309523Y-89854880D02*
X83500000Y-89854880D01*
X83595238Y-89807261D01*
X83642857Y-89759642D01*
X83738095Y-89616785D01*
X83785714Y-89426309D01*
X83785714Y-89045357D01*
X83738095Y-88950119D01*
X83690476Y-88902500D01*
X83595238Y-88854880D01*
X83404761Y-88854880D01*
X83309523Y-88902500D01*
X83261904Y-88950119D01*
X83214285Y-89045357D01*
X83214285Y-89283452D01*
X83261904Y-89378690D01*
X83309523Y-89426309D01*
X83404761Y-89473928D01*
X83595238Y-89473928D01*
X83690476Y-89426309D01*
X83738095Y-89378690D01*
X83785714Y-89283452D01*
D13*
%TO.C,D4*%
X68250000Y-74000000D02*
X68250000Y-72000000D01*
X68250000Y-72000000D02*
X64350000Y-72000000D01*
X68250000Y-74000000D02*
X64350000Y-74000000D01*
%TO.C,J6*%
X92330000Y-62670000D02*
X92330000Y-64000000D01*
X89730000Y-62670000D02*
X87130000Y-62670000D01*
X89730000Y-62670000D02*
X89730000Y-65330000D01*
X89730000Y-65330000D02*
X87130000Y-65330000D01*
X87130000Y-62670000D02*
X87130000Y-65330000D01*
X91000000Y-62670000D02*
X92330000Y-62670000D01*
%TO.C,R6*%
X90620000Y-83730121D02*
X90620000Y-83394879D01*
X91380000Y-83730121D02*
X91380000Y-83394879D01*
%TO.C,J2*%
X82900000Y-65300000D02*
X82900000Y-64000000D01*
X73400000Y-59100000D02*
X73400000Y-50500000D01*
X75400000Y-65000000D02*
X73400000Y-65000000D01*
X82600000Y-65000000D02*
X80600000Y-65000000D01*
X73400000Y-50500000D02*
X82600000Y-50500000D01*
X82600000Y-50500000D02*
X82600000Y-65000000D01*
X73400000Y-65000000D02*
X73400000Y-63700000D01*
X81200000Y-65300000D02*
X82900000Y-65300000D01*
%TO.C,C2*%
X89140000Y-57648752D02*
X89140000Y-56226248D01*
X91860000Y-57648752D02*
X91860000Y-56226248D01*
%TO.C,D2*%
X63000000Y-75250000D02*
X63000000Y-79150000D01*
X65000000Y-75250000D02*
X63000000Y-75250000D01*
X65000000Y-75250000D02*
X65000000Y-79150000D01*
%TO.C,R1*%
X69880000Y-85752379D02*
X69880000Y-86087621D01*
X69120000Y-85752379D02*
X69120000Y-86087621D01*
%TO.C,R7*%
X88620000Y-83394879D02*
X88620000Y-83730121D01*
X89380000Y-83394879D02*
X89380000Y-83730121D01*
%TO.C,R4*%
X60620000Y-79765121D02*
X60620000Y-79429879D01*
X61380000Y-79765121D02*
X61380000Y-79429879D01*
%TO.C,J5*%
X65730000Y-65330000D02*
X63130000Y-65330000D01*
X65730000Y-62670000D02*
X65730000Y-65330000D01*
X63130000Y-62670000D02*
X63130000Y-65330000D01*
X67000000Y-62670000D02*
X68330000Y-62670000D01*
X65730000Y-62670000D02*
X63130000Y-62670000D01*
X68330000Y-62670000D02*
X68330000Y-64000000D01*
%TO.C,J3*%
X55830000Y-75270000D02*
X55830000Y-72670000D01*
X53170000Y-75270000D02*
X53170000Y-72670000D01*
X55830000Y-76540000D02*
X55830000Y-77870000D01*
X55830000Y-72670000D02*
X53170000Y-72670000D01*
X55830000Y-75270000D02*
X53170000Y-75270000D01*
X55830000Y-77870000D02*
X54500000Y-77870000D01*
%TO.C,J1*%
X50830000Y-96380000D02*
X41980000Y-96380000D01*
X72070000Y-111220000D02*
X69350000Y-111220000D01*
X50830000Y-107620000D02*
X50830000Y-111220000D01*
X72070000Y-106470000D02*
X72070000Y-111220000D01*
X41980000Y-96380000D02*
X41980000Y-107620000D01*
X66600000Y-111220000D02*
X56700000Y-111220000D01*
X50830000Y-92780000D02*
X53950000Y-92780000D01*
X50830000Y-111220000D02*
X53950000Y-111220000D01*
X72070000Y-92780000D02*
X72070000Y-97530000D01*
X75070000Y-97570000D02*
X75070000Y-106470000D01*
X75070000Y-97530000D02*
X72070000Y-97530000D01*
X69350000Y-92780000D02*
X72070000Y-92780000D01*
X50830000Y-107620000D02*
X41980000Y-107620000D01*
X75070000Y-106470000D02*
X72070000Y-106470000D01*
X56700000Y-92780000D02*
X66600000Y-92780000D01*
X50830000Y-92780000D02*
X50830000Y-96380000D01*
%TO.C,C7*%
X61360000Y-76183335D02*
X61360000Y-75951665D01*
X60640000Y-76183335D02*
X60640000Y-75951665D01*
%TO.C,J11*%
X82730000Y-114670000D02*
X69970000Y-114670000D01*
X82730000Y-114670000D02*
X82730000Y-117330000D01*
X69970000Y-114670000D02*
X69970000Y-117330000D01*
X84000000Y-114670000D02*
X85330000Y-114670000D01*
X82730000Y-117330000D02*
X69970000Y-117330000D01*
X85330000Y-114670000D02*
X85330000Y-116000000D01*
%TO.C,C1*%
X66360000Y-86035835D02*
X66360000Y-85804165D01*
X65640000Y-86035835D02*
X65640000Y-85804165D01*
%TO.C,C3*%
X60640000Y-82615835D02*
X60640000Y-82384165D01*
X61360000Y-82615835D02*
X61360000Y-82384165D01*
%TO.C,D3*%
X69000000Y-79750000D02*
X69000000Y-75850000D01*
X67000000Y-79750000D02*
X67000000Y-75850000D01*
X67000000Y-79750000D02*
X69000000Y-79750000D01*
%TO.C,C12*%
X95765000Y-81238748D02*
X95765000Y-81761252D01*
X97235000Y-81238748D02*
X97235000Y-81761252D01*
%TO.C,R11*%
X82620000Y-78167621D02*
X82620000Y-77832379D01*
X83380000Y-78167621D02*
X83380000Y-77832379D01*
%TO.C,D7*%
X86500000Y-79910000D02*
X88500000Y-79910000D01*
X88500000Y-79910000D02*
X88500000Y-76010000D01*
X86500000Y-79910000D02*
X86500000Y-76010000D01*
%TO.C,R2*%
X65620000Y-82667621D02*
X65620000Y-82332379D01*
X66380000Y-82667621D02*
X66380000Y-82332379D01*
%TO.C,R5*%
X96772936Y-59235000D02*
X97227064Y-59235000D01*
X96772936Y-57765000D02*
X97227064Y-57765000D01*
%TO.C,C8*%
X80140000Y-73615835D02*
X80140000Y-73384165D01*
X80860000Y-73615835D02*
X80860000Y-73384165D01*
%TO.C,R3*%
X69880000Y-82667621D02*
X69880000Y-82332379D01*
X69120000Y-82667621D02*
X69120000Y-82332379D01*
%TO.C,J9*%
X100170000Y-83745000D02*
X102830000Y-83745000D01*
X100170000Y-81145000D02*
X101500000Y-81145000D01*
X102830000Y-83745000D02*
X102830000Y-88885000D01*
X100170000Y-83745000D02*
X100170000Y-88885000D01*
X100170000Y-82475000D02*
X100170000Y-81145000D01*
X100170000Y-88885000D02*
X102830000Y-88885000D01*
%TO.C,U1*%
X78000000Y-80560000D02*
X76050000Y-80560000D01*
X78000000Y-75440000D02*
X74550000Y-75440000D01*
X78000000Y-80560000D02*
X79950000Y-80560000D01*
X78000000Y-75440000D02*
X79950000Y-75440000D01*
%TO.C,C4*%
X93960000Y-58048335D02*
X93960000Y-57816665D01*
X93240000Y-58048335D02*
X93240000Y-57816665D01*
%TO.C,J7*%
X92330000Y-69910000D02*
X92330000Y-67250000D01*
X88460000Y-69910000D02*
X87130000Y-69910000D01*
X89730000Y-69910000D02*
X89730000Y-67250000D01*
X89730000Y-69910000D02*
X92330000Y-69910000D01*
X87130000Y-69910000D02*
X87130000Y-68580000D01*
X89730000Y-67250000D02*
X92330000Y-67250000D01*
%TO.C,D1*%
X86730000Y-57340000D02*
X86730000Y-58000000D01*
X86730000Y-57340000D02*
X84700000Y-57340000D01*
X86730000Y-59000000D02*
X86730000Y-59660000D01*
X85320000Y-59660000D02*
X86730000Y-59660000D01*
%TO.C,J10*%
X105170000Y-92895000D02*
X102050000Y-92895000D01*
X105170000Y-111335000D02*
X102050000Y-111335000D01*
X99300000Y-111335000D02*
X89400000Y-111335000D01*
X83930000Y-111335000D02*
X83930000Y-106585000D01*
X83930000Y-92895000D02*
X86650000Y-92895000D01*
X86650000Y-111335000D02*
X83930000Y-111335000D01*
X105170000Y-96495000D02*
X105170000Y-92895000D01*
X80930000Y-106585000D02*
X83930000Y-106585000D01*
X80930000Y-97645000D02*
X83930000Y-97645000D01*
X80930000Y-106545000D02*
X80930000Y-97645000D01*
X114020000Y-107735000D02*
X114020000Y-96495000D01*
X89400000Y-92895000D02*
X99300000Y-92895000D01*
X83930000Y-97645000D02*
X83930000Y-92895000D01*
X105170000Y-111335000D02*
X105170000Y-107735000D01*
X105170000Y-107735000D02*
X114020000Y-107735000D01*
X105170000Y-96495000D02*
X114020000Y-96495000D01*
%TO.C,R8*%
X75120000Y-73667621D02*
X75120000Y-73332379D01*
X75880000Y-73667621D02*
X75880000Y-73332379D01*
%TO.C,D6*%
X92500000Y-75410000D02*
X90500000Y-75410000D01*
X90500000Y-75410000D02*
X90500000Y-79310000D01*
X92500000Y-75410000D02*
X92500000Y-79310000D01*
%TO.C,D5*%
X87250000Y-74000000D02*
X91150000Y-74000000D01*
X87250000Y-72000000D02*
X91150000Y-72000000D01*
X87250000Y-72000000D02*
X87250000Y-74000000D01*
%TO.C,J8*%
X100170000Y-75270000D02*
X102830000Y-75270000D01*
X102830000Y-75270000D02*
X102830000Y-77870000D01*
X100170000Y-77870000D02*
X102830000Y-77870000D01*
X100170000Y-75270000D02*
X100170000Y-77870000D01*
X100170000Y-74000000D02*
X100170000Y-72670000D01*
X100170000Y-72670000D02*
X101500000Y-72670000D01*
%TO.C,R10*%
X68380000Y-115234879D02*
X68380000Y-115570121D01*
X67620000Y-115234879D02*
X67620000Y-115570121D01*
D11*
%TO.C,REF\u002A\u002A*%
X87675000Y-52575000D02*
X89675000Y-52575000D01*
X85675000Y-52575000D02*
X86575000Y-52575000D01*
X88350000Y-51825000D02*
G75*
G03*
X88425000Y-53250000I-675000J-750000D01*
G01*
D14*
X87850000Y-52575000D02*
G75*
G03*
X87850000Y-52575000I-175000J0D01*
G01*
D11*
X91600000Y-52575000D02*
G75*
G03*
X91600000Y-52575000I-925000J0D01*
G01*
X85600000Y-52575000D02*
G75*
G03*
X85600000Y-52575000I-925000J0D01*
G01*
D13*
%TO.C,D8*%
X76455000Y-90565000D02*
X79545000Y-90565000D01*
X79544830Y-90565000D02*
G75*
G03*
X77999538Y-85015000I-1544830J2560000D01*
G01*
X78000462Y-85015000D02*
G75*
G03*
X76455170Y-90565000I-462J-2990000D01*
G01*
X80500000Y-88005000D02*
G75*
G03*
X80500000Y-88005000I-2500000J0D01*
G01*
%TO.C,C11*%
X80140000Y-69951665D02*
X80140000Y-70183335D01*
X80860000Y-69951665D02*
X80860000Y-70183335D01*
%TO.C,C9*%
X84640000Y-83851248D02*
X84640000Y-85273752D01*
X87360000Y-83851248D02*
X87360000Y-85273752D01*
%TO.C,C6*%
X82265000Y-73298752D02*
X82265000Y-72776248D01*
X83735000Y-73298752D02*
X83735000Y-72776248D01*
%TO.C,C5*%
X100860000Y-58048335D02*
X100860000Y-57816665D01*
X100140000Y-58048335D02*
X100140000Y-57816665D01*
%TO.C,C10*%
X82640000Y-83446665D02*
X82640000Y-83678335D01*
X83360000Y-83446665D02*
X83360000Y-83678335D01*
%TO.C,J4*%
X64460000Y-69910000D02*
X63130000Y-69910000D01*
X65730000Y-67250000D02*
X68330000Y-67250000D01*
X63130000Y-69910000D02*
X63130000Y-68580000D01*
X65730000Y-69910000D02*
X65730000Y-67250000D01*
X65730000Y-69910000D02*
X68330000Y-69910000D01*
X68330000Y-69910000D02*
X68330000Y-67250000D01*
%TO.C,R9*%
X82620000Y-87570121D02*
X82620000Y-87234879D01*
X83380000Y-87570121D02*
X83380000Y-87234879D01*
%TD*%
M02*
