M48
; DRILL file {KiCad (6.0.7-1)-1} date 2022 September 18, Sunday 14:33:57
; FORMAT={-:-/ absolute / inch / decimal}
; #@! TF.CreationDate,2022-09-18T14:33:57+02:00
; #@! TF.GenerationSoftware,Kicad,Pcbnew,(6.0.7-1)-1
; #@! TF.FileFunction,Plated,1,2,PTH
FMAT,2
INCH
; #@! TA.AperFunction,Plated,PTH,ViaDrill
T1C0.0157
; #@! TA.AperFunction,Plated,PTH,ComponentDrill
T2C0.0354
; #@! TA.AperFunction,Plated,PTH,ComponentDrill
T3C0.0394
; #@! TA.AperFunction,Plated,PTH,ComponentDrill
T4C0.0551
%
G90
G05
T1
X2.0866Y-2.3622
X2.1063Y-2.6969
X2.1063Y-3.248
X2.1063Y-3.5433
X2.1063Y-4.0551
X2.1063Y-4.6063
X2.2835Y-2.1654
X2.3425Y-2.9134
X2.3425Y-3.0512
X2.4213Y-3.4055
X2.4213Y-3.8189
X2.4213Y-4.252
X2.4213Y-4.6063
X2.4409Y-2.3622
X2.6575Y-4.0551
X2.6772Y-3.3268
X2.6772Y-3.5433
X2.7362Y-2.3622
X2.7756Y-3.1102
X2.7953Y-4.4488
X2.8937Y-3.1496
X2.9134Y-2.6969
X2.9134Y-2.9331
X2.9724Y-3.2087
X3.0315Y-2.8346
X3.0709Y-2.0472
X3.0709Y-2.185
X3.0709Y-3.8189
X3.1102Y-4.3898
X3.1693Y-2.825
X3.2677Y-2.7756
X3.2677Y-2.9921
X3.2677Y-3.6024
X3.3268Y-3.1102
X3.3661Y-2.6181
X3.3858Y-3.189
X3.4055Y-2.9331
X3.4449Y-2.185
X3.4646Y-4.0551
X3.4843Y-3.3858
X3.6024Y-3.5433
X3.6811Y-3.1299
X3.685Y-2.185
X3.7205Y-3.8189
X3.7205Y-4.252
X3.7205Y-4.6063
X3.7402Y-2.0472
X3.7598Y-2.3819
X3.7598Y-3.4055
X3.8583Y-3.0906
X3.9075Y-2.2047
X3.9567Y-2.3819
X4.0354Y-2.3819
X4.0354Y-2.7165
X4.0354Y-4.0551
X4.0354Y-4.6063
T2
X3.0709Y-3.4148
X3.0709Y-3.5148
T3
X2.1457Y-2.9134
X2.1457Y-3.0134
X2.5378Y-2.5197
X2.5378Y-2.7
X2.6378Y-2.5197
X2.6378Y-2.7
X2.8071Y-4.5669
X2.9071Y-4.5669
X3.0071Y-4.5669
X3.1071Y-4.5669
X3.2071Y-4.5669
X3.3071Y-4.5669
X3.4827Y-2.5197
X3.4827Y-2.7
X3.5827Y-2.5197
X3.5827Y-2.7
X3.9961Y-2.9134
X3.9961Y-3.0134
X3.9961Y-3.247
X3.9961Y-3.347
X3.9961Y-3.447
T4
X2.1772Y-3.6963
X2.1772Y-4.3352
X2.6772Y-3.6963
X2.6772Y-4.3352
X3.4646Y-3.7008
X3.4646Y-4.3398
X3.9646Y-3.7008
X3.9646Y-4.3398
T3
G00X2.8819Y-2.4606
M15
G01X2.8819Y-2.374
M16
G05
G00X3.1142Y-2.2835
M15
G01X3.0276Y-2.2835
M16
G05
G00X3.122Y-2.5315
M15
G01X3.0197Y-2.5315
M16
G05
T0
M30
